<svg width="50" height="50" viewBox="0 0 50 50" fill="none" xmlns="http://www.w3.org/2000/svg">
<circle cx="25" cy="25" r="24" fill="#224943" stroke="#72C173" stroke-width="2"/>
<g clip-path="url(#clip0_320_1516)">
<path d="M33.7273 13H16.2727C15.4047 13 14.5723 13.3448 13.9586 13.9586C13.3448 14.5723 13 15.4047 13 16.2727V33.7273C13 34.5953 13.3448 35.4277 13.9586 36.0414C14.5723 36.6552 15.4047 37 16.2727 37H33.7273C34.5953 37 35.4277 36.6552 36.0414 36.0414C36.6552 35.4277 37 34.5953 37 33.7273V16.2727C37 15.4047 36.6552 14.5723 36.0414 13.9586C35.4277 13.3448 34.5953 13 33.7273 13ZM28.8018 23.5805L28.5605 25.6695C28.5507 25.765 28.5061 25.8536 28.4352 25.9183C28.3642 25.9829 28.2719 26.0192 28.1759 26.02H25.9941L25.9832 32.2177C25.9839 32.2912 25.9557 32.362 25.9047 32.4148C25.8537 32.4676 25.7839 32.4982 25.7105 32.5H23.5C23.4632 32.5 23.4269 32.4926 23.393 32.4782C23.3592 32.4639 23.3287 32.4428 23.3032 32.4163C23.2777 32.3898 23.2579 32.3584 23.2448 32.3241C23.2318 32.2897 23.2258 32.2531 23.2273 32.2164V26.02H21.5909C21.5395 26.0195 21.4887 26.0088 21.4414 25.9887C21.3942 25.9685 21.3513 25.9392 21.3154 25.9025C21.2794 25.8658 21.251 25.8223 21.2319 25.7746C21.2127 25.7269 21.2031 25.6759 21.2036 25.6245L21.1955 23.5341C21.1947 23.4825 21.2042 23.4313 21.2233 23.3834C21.2423 23.3355 21.2707 23.2918 21.3066 23.2548C21.3426 23.2178 21.3855 23.1883 21.4328 23.1679C21.4802 23.1475 21.5312 23.1366 21.5827 23.1359H23.2273V21.1177C23.2273 18.775 24.6182 17.5 26.6582 17.5H28.33C28.3817 17.5005 28.4328 17.5113 28.4803 17.5316C28.5278 17.5519 28.5709 17.5814 28.607 17.6184C28.6431 17.6554 28.6716 17.6991 28.6907 17.7472C28.7099 17.7952 28.7194 17.8465 28.7186 17.8982V19.6586C28.7194 19.7103 28.7099 19.7616 28.6907 19.8097C28.6716 19.8577 28.6431 19.9014 28.607 19.9384C28.5709 19.9754 28.5278 20.0049 28.4803 20.0252C28.4328 20.0456 28.3817 20.0563 28.33 20.0568H27.3045C26.1959 20.0568 25.9805 20.6023 25.9805 21.3891V23.1359H28.4173C28.4728 23.1368 28.5274 23.1494 28.5777 23.1729C28.628 23.1963 28.6727 23.2302 28.709 23.2721C28.7453 23.3141 28.7724 23.3632 28.7883 23.4164C28.8043 23.4695 28.8089 23.5254 28.8018 23.5805Z" fill="#72C173"/>
</g>
<defs>
<clipPath id="clip0_320_1516">
<rect width="24" height="24" fill="white" transform="translate(13 13)"/>
</clipPath>
</defs>
</svg>
