<svg width="50" height="50" viewBox="0 0 50 50" fill="none" xmlns="http://www.w3.org/2000/svg">
<circle cx="25" cy="25" r="24" fill="#224943" stroke="#72C173" stroke-width="2"/>
<g clip-path="url(#clip0_320_1522)">
<path d="M27.1094 25C27.1094 26.1649 26.1649 27.1094 25 27.1094C23.8351 27.1094 22.8906 26.1649 22.8906 25C22.8906 23.8351 23.8351 22.8906 25 22.8906C26.1649 22.8906 27.1094 23.8351 27.1094 25Z" fill="#72C173"/>
<path d="M28.5625 18.625H21.4375C19.8866 18.625 18.625 19.8866 18.625 21.4375V28.5625C18.625 30.1134 19.8866 31.375 21.4375 31.375H28.5625C30.1134 31.375 31.375 30.1134 31.375 28.5625V21.4375C31.375 19.8866 30.1134 18.625 28.5625 18.625ZM25 28.5156C23.0615 28.5156 21.4844 26.9385 21.4844 25C21.4844 23.0615 23.0615 21.4844 25 21.4844C26.9385 21.4844 28.5156 23.0615 28.5156 25C28.5156 26.9385 26.9385 28.5156 25 28.5156ZM29.0312 21.6719C28.6429 21.6719 28.3281 21.3571 28.3281 20.9688C28.3281 20.5804 28.6429 20.2656 29.0312 20.2656C29.4196 20.2656 29.7344 20.5804 29.7344 20.9688C29.7344 21.3571 29.4196 21.6719 29.0312 21.6719Z" fill="#72C173"/>
<path d="M30.6719 13H19.3281C15.8389 13 13 15.8389 13 19.3281V30.6719C13 34.1611 15.8389 37 19.3281 37H30.6719C34.1611 37 37 34.1611 37 30.6719V19.3281C37 15.8389 34.1611 13 30.6719 13ZM32.7812 28.5625C32.7812 30.8887 30.8887 32.7812 28.5625 32.7812H21.4375C19.1113 32.7812 17.2188 30.8887 17.2188 28.5625V21.4375C17.2188 19.1113 19.1113 17.2188 21.4375 17.2188H28.5625C30.8887 17.2188 32.7812 19.1113 32.7812 21.4375V28.5625Z" fill="#72C173"/>
</g>
<defs>
<clipPath id="clip0_320_1522">
<rect width="24" height="24" fill="white" transform="translate(13 13)"/>
</clipPath>
</defs>
</svg>
