<svg width="50" height="50" viewBox="0 0 50 50" fill="none" xmlns="http://www.w3.org/2000/svg">
<circle cx="25" cy="25" r="24" fill="#224943" stroke="#72C173" stroke-width="2"/>
<g clip-path="url(#clip0_316_449)">
<mask id="path-2-outside-1_316_449" maskUnits="userSpaceOnUse" x="25.3335" y="12.4443" width="12" height="12" fill="black">
<rect fill="white" x="25.3335" y="12.4443" width="12" height="12"/>
<path d="M27.4734 23.3978C27.4386 23.5358 27.5894 23.6467 27.7108 23.5735C28.901 22.8533 30.0659 22.0705 31.1731 21.2465L33.7851 21.3018C35.6645 21.3379 36.1892 20.7321 36.2096 19.069L36.2592 16.0406C36.2879 14.3842 35.847 13.6976 33.8615 13.6199C32.5294 13.5634 31.198 13.5071 29.8631 13.4538C27.7347 13.363 26.4618 13.8963 26.4918 16.3524C26.4985 16.7237 26.3087 18.5108 26.3362 19.0735C26.3781 20.0183 26.8449 20.8282 27.828 21.0819C27.7868 21.8229 27.6839 22.56 27.4734 23.3978ZM33.148 20.0135L33.5119 20.3774L33.1116 20.7778L32.7477 20.4138L33.148 20.0135ZM33.0129 20.9049C33.0106 20.927 33.0157 20.9487 33.0317 20.9663L32.2128 20.949L32.6349 20.5269L33.0129 20.9049ZM31.4514 20.9327L31.6591 20.725L31.8757 20.9417L31.4514 20.9327ZM33.2621 20.9711C33.2643 20.9481 33.2592 20.9251 33.2416 20.9075L33.2247 20.8906L33.625 20.4902L33.9778 20.8429C34.005 20.8704 34.0484 20.8775 34.0858 20.8452C34.0484 20.8826 33.9797 20.9369 33.9788 20.9845C33.9161 20.9842 33.8532 20.9839 33.7918 20.9826L33.2621 20.9711ZM34.5932 19.5221L35.0012 19.9301L34.6523 20.279L34.2443 19.871L34.5932 19.5221ZM34.5389 20.3918L34.0928 20.8378C34.12 20.8065 34.1206 20.7599 34.0906 20.7298L33.7378 20.3771L34.1312 19.9838L34.5389 20.3918ZM34.652 20.5049L35.0044 20.8573C34.751 20.9436 34.4638 20.9743 34.1749 20.9816L34.652 20.5049ZM35.8828 19.3355C35.8802 19.3195 35.8767 19.3029 35.8642 19.2907L35.5866 19.0131L35.8962 18.7035L35.8901 19.0645C35.8888 19.1559 35.8863 19.2463 35.8828 19.3355ZM35.9007 17.0701C35.907 17.0755 35.915 17.0762 35.9224 17.079L35.9131 17.6487C35.9102 17.6334 35.907 17.6174 35.8952 17.6056L35.63 17.3404L35.9007 17.0701ZM35.9118 17.7235C35.909 17.7158 35.9077 17.7078 35.9026 17.7008C35.907 17.6928 35.9109 17.6852 35.9128 17.6762L35.9118 17.7235ZM35.9112 17.7762L35.9022 18.3251C35.8991 18.3111 35.8968 18.2964 35.886 18.2855L35.6527 18.0523C35.6866 18.0175 35.8946 17.8181 35.9112 17.7762ZM26.6551 19.0588C26.6295 18.5207 26.8181 16.747 26.8113 16.3483C26.7839 14.1395 27.8495 13.688 29.85 13.7736C31.1849 13.827 32.5163 13.8832 33.8484 13.9398C35.6489 14.0101 35.9655 14.5526 35.9396 16.0355V16.0358L35.9262 16.8512C35.9205 16.8512 35.9157 16.8563 35.9102 16.8579L35.7281 16.6758C35.6968 16.6445 35.6463 16.6445 35.615 16.6758C35.5837 16.7071 35.5837 16.7576 35.615 16.7886L35.7859 16.9595L35.4974 17.2477C35.4715 17.2733 35.4725 17.3107 35.4891 17.341C35.4725 17.3714 35.4715 17.4085 35.4974 17.4343L35.7709 17.7078L35.539 17.9398L35.522 17.9229C35.4904 17.8916 35.4399 17.8919 35.4089 17.9229C35.3776 17.9542 35.3776 18.0047 35.4089 18.036L35.4258 18.0529L35.2476 18.2312C35.2162 18.2625 35.2162 18.313 35.2476 18.344C35.2786 18.375 35.329 18.3753 35.3607 18.344L35.539 18.1657L35.7722 18.399C35.8032 18.4299 35.8537 18.4303 35.8853 18.399C35.8959 18.3884 35.8978 18.374 35.9013 18.3606L35.8994 18.4744L35.4731 18.9006L35.1996 18.6271C35.1683 18.5958 35.1178 18.5958 35.0865 18.6271C35.0552 18.6584 35.0552 18.7089 35.0865 18.7402L35.36 19.0137L35.0865 19.2875C35.0552 19.3188 35.0552 19.3693 35.0865 19.4003C35.1175 19.4313 35.168 19.4316 35.1996 19.4003L35.4731 19.1268L35.7508 19.4045C35.7818 19.4355 35.8323 19.4358 35.8636 19.4045C35.8751 19.393 35.878 19.3776 35.8808 19.3626C35.8527 19.987 35.7307 20.5253 35.1664 20.7947L34.7644 20.3927L35.1134 20.0438L35.4127 20.3429C35.4437 20.3739 35.4942 20.3742 35.5259 20.3429C35.5572 20.3116 35.5572 20.2611 35.5259 20.2298L35.2268 19.9307L35.5818 19.5757C35.6131 19.5444 35.6131 19.4939 35.5818 19.4626C35.5505 19.4313 35.5 19.4313 35.4687 19.4626L35.1137 19.8176L34.7057 19.4096L34.767 19.3482C34.7983 19.3169 34.7983 19.2664 34.767 19.2355C34.7357 19.2041 34.6852 19.2041 34.6539 19.2355L34.5539 19.3355C34.5456 19.3393 34.5357 19.339 34.529 19.3457C34.5219 19.3527 34.5226 19.3623 34.5187 19.3706L34.1308 19.7585L33.8941 19.5217C33.8628 19.4904 33.8123 19.4904 33.781 19.5217C33.7497 19.5531 33.7497 19.6035 33.781 19.6348L34.0177 19.8716L33.6244 20.2649L33.2605 19.901L33.4043 19.7572C33.4356 19.7259 33.4356 19.6754 33.4043 19.6441C33.3729 19.6128 33.3225 19.6128 33.2912 19.6441L33.126 19.8093C33.1081 19.8109 33.0899 19.816 33.0761 19.8301C33.0624 19.8438 33.0569 19.862 33.0553 19.8799L32.6336 20.3017L32.4994 20.1675C32.4681 20.1362 32.4176 20.1362 32.3863 20.1675C32.355 20.1988 32.355 20.2493 32.3863 20.2803L32.5205 20.4145L32.0466 20.8883L31.7709 20.6126L32.2617 20.1218C32.293 20.0905 32.293 20.04 32.2617 20.0087C32.2304 19.9774 32.1799 19.9774 32.1486 20.0087L31.6578 20.4995L31.5747 20.4164C31.5434 20.3851 31.4929 20.3851 31.4616 20.4164C31.4303 20.4477 31.4303 20.4982 31.4616 20.5295L31.5447 20.6126L31.2983 20.8589L31.1494 20.71C31.1181 20.6787 31.0676 20.6787 31.0363 20.71C31.005 20.7413 31.005 20.7918 31.0363 20.8231L31.1398 20.9267L31.1232 20.9263C31.098 20.9251 31.0526 20.9369 31.0242 20.958C30.0132 21.7124 28.954 22.4322 27.8699 23.1013C28.029 22.3814 28.1121 21.7347 28.1469 21.0679C28.1613 20.9404 28.1498 20.826 28.0236 20.8001C27.1174 20.6138 26.6941 19.9298 26.6551 19.0588Z"/>
</mask>
<path d="M27.4734 23.3978C27.4386 23.5358 27.5894 23.6467 27.7108 23.5735C28.901 22.8533 30.0659 22.0705 31.1731 21.2465L33.7851 21.3018C35.6645 21.3379 36.1892 20.7321 36.2096 19.069L36.2592 16.0406C36.2879 14.3842 35.847 13.6976 33.8615 13.6199C32.5294 13.5634 31.198 13.5071 29.8631 13.4538C27.7347 13.363 26.4618 13.8963 26.4918 16.3524C26.4985 16.7237 26.3087 18.5108 26.3362 19.0735C26.3781 20.0183 26.8449 20.8282 27.828 21.0819C27.7868 21.8229 27.6839 22.56 27.4734 23.3978ZM33.148 20.0135L33.5119 20.3774L33.1116 20.7778L32.7477 20.4138L33.148 20.0135ZM33.0129 20.9049C33.0106 20.927 33.0157 20.9487 33.0317 20.9663L32.2128 20.949L32.6349 20.5269L33.0129 20.9049ZM31.4514 20.9327L31.6591 20.725L31.8757 20.9417L31.4514 20.9327ZM33.2621 20.9711C33.2643 20.9481 33.2592 20.9251 33.2416 20.9075L33.2247 20.8906L33.625 20.4902L33.9778 20.8429C34.005 20.8704 34.0484 20.8775 34.0858 20.8452C34.0484 20.8826 33.9797 20.9369 33.9788 20.9845C33.9161 20.9842 33.8532 20.9839 33.7918 20.9826L33.2621 20.9711ZM34.5932 19.5221L35.0012 19.9301L34.6523 20.279L34.2443 19.871L34.5932 19.5221ZM34.5389 20.3918L34.0928 20.8378C34.12 20.8065 34.1206 20.7599 34.0906 20.7298L33.7378 20.3771L34.1312 19.9838L34.5389 20.3918ZM34.652 20.5049L35.0044 20.8573C34.751 20.9436 34.4638 20.9743 34.1749 20.9816L34.652 20.5049ZM35.8828 19.3355C35.8802 19.3195 35.8767 19.3029 35.8642 19.2907L35.5866 19.0131L35.8962 18.7035L35.8901 19.0645C35.8888 19.1559 35.8863 19.2463 35.8828 19.3355ZM35.9007 17.0701C35.907 17.0755 35.915 17.0762 35.9224 17.079L35.9131 17.6487C35.9102 17.6334 35.907 17.6174 35.8952 17.6056L35.63 17.3404L35.9007 17.0701ZM35.9118 17.7235C35.909 17.7158 35.9077 17.7078 35.9026 17.7008C35.907 17.6928 35.9109 17.6852 35.9128 17.6762L35.9118 17.7235ZM35.9112 17.7762L35.9022 18.3251C35.8991 18.3111 35.8968 18.2964 35.886 18.2855L35.6527 18.0523C35.6866 18.0175 35.8946 17.8181 35.9112 17.7762ZM26.6551 19.0588C26.6295 18.5207 26.8181 16.747 26.8113 16.3483C26.7839 14.1395 27.8495 13.688 29.85 13.7736C31.1849 13.827 32.5163 13.8832 33.8484 13.9398C35.6489 14.0101 35.9655 14.5526 35.9396 16.0355V16.0358L35.9262 16.8512C35.9205 16.8512 35.9157 16.8563 35.9102 16.8579L35.7281 16.6758C35.6968 16.6445 35.6463 16.6445 35.615 16.6758C35.5837 16.7071 35.5837 16.7576 35.615 16.7886L35.7859 16.9595L35.4974 17.2477C35.4715 17.2733 35.4725 17.3107 35.4891 17.341C35.4725 17.3714 35.4715 17.4085 35.4974 17.4343L35.7709 17.7078L35.539 17.9398L35.522 17.9229C35.4904 17.8916 35.4399 17.8919 35.4089 17.9229C35.3776 17.9542 35.3776 18.0047 35.4089 18.036L35.4258 18.0529L35.2476 18.2312C35.2162 18.2625 35.2162 18.313 35.2476 18.344C35.2786 18.375 35.329 18.3753 35.3607 18.344L35.539 18.1657L35.7722 18.399C35.8032 18.4299 35.8537 18.4303 35.8853 18.399C35.8959 18.3884 35.8978 18.374 35.9013 18.3606L35.8994 18.4744L35.4731 18.9006L35.1996 18.6271C35.1683 18.5958 35.1178 18.5958 35.0865 18.6271C35.0552 18.6584 35.0552 18.7089 35.0865 18.7402L35.36 19.0137L35.0865 19.2875C35.0552 19.3188 35.0552 19.3693 35.0865 19.4003C35.1175 19.4313 35.168 19.4316 35.1996 19.4003L35.4731 19.1268L35.7508 19.4045C35.7818 19.4355 35.8323 19.4358 35.8636 19.4045C35.8751 19.393 35.878 19.3776 35.8808 19.3626C35.8527 19.987 35.7307 20.5253 35.1664 20.7947L34.7644 20.3927L35.1134 20.0438L35.4127 20.3429C35.4437 20.3739 35.4942 20.3742 35.5259 20.3429C35.5572 20.3116 35.5572 20.2611 35.5259 20.2298L35.2268 19.9307L35.5818 19.5757C35.6131 19.5444 35.6131 19.4939 35.5818 19.4626C35.5505 19.4313 35.5 19.4313 35.4687 19.4626L35.1137 19.8176L34.7057 19.4096L34.767 19.3482C34.7983 19.3169 34.7983 19.2664 34.767 19.2355C34.7357 19.2041 34.6852 19.2041 34.6539 19.2355L34.5539 19.3355C34.5456 19.3393 34.5357 19.339 34.529 19.3457C34.5219 19.3527 34.5226 19.3623 34.5187 19.3706L34.1308 19.7585L33.8941 19.5217C33.8628 19.4904 33.8123 19.4904 33.781 19.5217C33.7497 19.5531 33.7497 19.6035 33.781 19.6348L34.0177 19.8716L33.6244 20.2649L33.2605 19.901L33.4043 19.7572C33.4356 19.7259 33.4356 19.6754 33.4043 19.6441C33.3729 19.6128 33.3225 19.6128 33.2912 19.6441L33.126 19.8093C33.1081 19.8109 33.0899 19.816 33.0761 19.8301C33.0624 19.8438 33.0569 19.862 33.0553 19.8799L32.6336 20.3017L32.4994 20.1675C32.4681 20.1362 32.4176 20.1362 32.3863 20.1675C32.355 20.1988 32.355 20.2493 32.3863 20.2803L32.5205 20.4145L32.0466 20.8883L31.7709 20.6126L32.2617 20.1218C32.293 20.0905 32.293 20.04 32.2617 20.0087C32.2304 19.9774 32.1799 19.9774 32.1486 20.0087L31.6578 20.4995L31.5747 20.4164C31.5434 20.3851 31.4929 20.3851 31.4616 20.4164C31.4303 20.4477 31.4303 20.4982 31.4616 20.5295L31.5447 20.6126L31.2983 20.8589L31.1494 20.71C31.1181 20.6787 31.0676 20.6787 31.0363 20.71C31.005 20.7413 31.005 20.7918 31.0363 20.8231L31.1398 20.9267L31.1232 20.9263C31.098 20.9251 31.0526 20.9369 31.0242 20.958C30.0132 21.7124 28.954 22.4322 27.8699 23.1013C28.029 22.3814 28.1121 21.7347 28.1469 21.0679C28.1613 20.9404 28.1498 20.826 28.0236 20.8001C27.1174 20.6138 26.6941 19.9298 26.6551 19.0588Z" fill="#72C173"/>
<path d="M27.4734 23.3978C27.4386 23.5358 27.5894 23.6467 27.7108 23.5735C28.901 22.8533 30.0659 22.0705 31.1731 21.2465L33.7851 21.3018C35.6645 21.3379 36.1892 20.7321 36.2096 19.069L36.2592 16.0406C36.2879 14.3842 35.847 13.6976 33.8615 13.6199C32.5294 13.5634 31.198 13.5071 29.8631 13.4538C27.7347 13.363 26.4618 13.8963 26.4918 16.3524C26.4985 16.7237 26.3087 18.5108 26.3362 19.0735C26.3781 20.0183 26.8449 20.8282 27.828 21.0819C27.7868 21.8229 27.6839 22.56 27.4734 23.3978ZM33.148 20.0135L33.5119 20.3774L33.1116 20.7778L32.7477 20.4138L33.148 20.0135ZM33.0129 20.9049C33.0106 20.927 33.0157 20.9487 33.0317 20.9663L32.2128 20.949L32.6349 20.5269L33.0129 20.9049ZM31.4514 20.9327L31.6591 20.725L31.8757 20.9417L31.4514 20.9327ZM33.2621 20.9711C33.2643 20.9481 33.2592 20.9251 33.2416 20.9075L33.2247 20.8906L33.625 20.4902L33.9778 20.8429C34.005 20.8704 34.0484 20.8775 34.0858 20.8452C34.0484 20.8826 33.9797 20.9369 33.9788 20.9845C33.9161 20.9842 33.8532 20.9839 33.7918 20.9826L33.2621 20.9711ZM34.5932 19.5221L35.0012 19.9301L34.6523 20.279L34.2443 19.871L34.5932 19.5221ZM34.5389 20.3918L34.0928 20.8378C34.12 20.8065 34.1206 20.7599 34.0906 20.7298L33.7378 20.3771L34.1312 19.9838L34.5389 20.3918ZM34.652 20.5049L35.0044 20.8573C34.751 20.9436 34.4638 20.9743 34.1749 20.9816L34.652 20.5049ZM35.8828 19.3355C35.8802 19.3195 35.8767 19.3029 35.8642 19.2907L35.5866 19.0131L35.8962 18.7035L35.8901 19.0645C35.8888 19.1559 35.8863 19.2463 35.8828 19.3355ZM35.9007 17.0701C35.907 17.0755 35.915 17.0762 35.9224 17.079L35.9131 17.6487C35.9102 17.6334 35.907 17.6174 35.8952 17.6056L35.63 17.3404L35.9007 17.0701ZM35.9118 17.7235C35.909 17.7158 35.9077 17.7078 35.9026 17.7008C35.907 17.6928 35.9109 17.6852 35.9128 17.6762L35.9118 17.7235ZM35.9112 17.7762L35.9022 18.3251C35.8991 18.3111 35.8968 18.2964 35.886 18.2855L35.6527 18.0523C35.6866 18.0175 35.8946 17.8181 35.9112 17.7762ZM26.6551 19.0588C26.6295 18.5207 26.8181 16.747 26.8113 16.3483C26.7839 14.1395 27.8495 13.688 29.85 13.7736C31.1849 13.827 32.5163 13.8832 33.8484 13.9398C35.6489 14.0101 35.9655 14.5526 35.9396 16.0355V16.0358L35.9262 16.8512C35.9205 16.8512 35.9157 16.8563 35.9102 16.8579L35.7281 16.6758C35.6968 16.6445 35.6463 16.6445 35.615 16.6758C35.5837 16.7071 35.5837 16.7576 35.615 16.7886L35.7859 16.9595L35.4974 17.2477C35.4715 17.2733 35.4725 17.3107 35.4891 17.341C35.4725 17.3714 35.4715 17.4085 35.4974 17.4343L35.7709 17.7078L35.539 17.9398L35.522 17.9229C35.4904 17.8916 35.4399 17.8919 35.4089 17.9229C35.3776 17.9542 35.3776 18.0047 35.4089 18.036L35.4258 18.0529L35.2476 18.2312C35.2162 18.2625 35.2162 18.313 35.2476 18.344C35.2786 18.375 35.329 18.3753 35.3607 18.344L35.539 18.1657L35.7722 18.399C35.8032 18.4299 35.8537 18.4303 35.8853 18.399C35.8959 18.3884 35.8978 18.374 35.9013 18.3606L35.8994 18.4744L35.4731 18.9006L35.1996 18.6271C35.1683 18.5958 35.1178 18.5958 35.0865 18.6271C35.0552 18.6584 35.0552 18.7089 35.0865 18.7402L35.36 19.0137L35.0865 19.2875C35.0552 19.3188 35.0552 19.3693 35.0865 19.4003C35.1175 19.4313 35.168 19.4316 35.1996 19.4003L35.4731 19.1268L35.7508 19.4045C35.7818 19.4355 35.8323 19.4358 35.8636 19.4045C35.8751 19.393 35.878 19.3776 35.8808 19.3626C35.8527 19.987 35.7307 20.5253 35.1664 20.7947L34.7644 20.3927L35.1134 20.0438L35.4127 20.3429C35.4437 20.3739 35.4942 20.3742 35.5259 20.3429C35.5572 20.3116 35.5572 20.2611 35.5259 20.2298L35.2268 19.9307L35.5818 19.5757C35.6131 19.5444 35.6131 19.4939 35.5818 19.4626C35.5505 19.4313 35.5 19.4313 35.4687 19.4626L35.1137 19.8176L34.7057 19.4096L34.767 19.3482C34.7983 19.3169 34.7983 19.2664 34.767 19.2355C34.7357 19.2041 34.6852 19.2041 34.6539 19.2355L34.5539 19.3355C34.5456 19.3393 34.5357 19.339 34.529 19.3457C34.5219 19.3527 34.5226 19.3623 34.5187 19.3706L34.1308 19.7585L33.8941 19.5217C33.8628 19.4904 33.8123 19.4904 33.781 19.5217C33.7497 19.5531 33.7497 19.6035 33.781 19.6348L34.0177 19.8716L33.6244 20.2649L33.2605 19.901L33.4043 19.7572C33.4356 19.7259 33.4356 19.6754 33.4043 19.6441C33.3729 19.6128 33.3225 19.6128 33.2912 19.6441L33.126 19.8093C33.1081 19.8109 33.0899 19.816 33.0761 19.8301C33.0624 19.8438 33.0569 19.862 33.0553 19.8799L32.6336 20.3017L32.4994 20.1675C32.4681 20.1362 32.4176 20.1362 32.3863 20.1675C32.355 20.1988 32.355 20.2493 32.3863 20.2803L32.5205 20.4145L32.0466 20.8883L31.7709 20.6126L32.2617 20.1218C32.293 20.0905 32.293 20.04 32.2617 20.0087C32.2304 19.9774 32.1799 19.9774 32.1486 20.0087L31.6578 20.4995L31.5747 20.4164C31.5434 20.3851 31.4929 20.3851 31.4616 20.4164C31.4303 20.4477 31.4303 20.4982 31.4616 20.5295L31.5447 20.6126L31.2983 20.8589L31.1494 20.71C31.1181 20.6787 31.0676 20.6787 31.0363 20.71C31.005 20.7413 31.005 20.7918 31.0363 20.8231L31.1398 20.9267L31.1232 20.9263C31.098 20.9251 31.0526 20.9369 31.0242 20.958C30.0132 21.7124 28.954 22.4322 27.8699 23.1013C28.029 22.3814 28.1121 21.7347 28.1469 21.0679C28.1613 20.9404 28.1498 20.826 28.0236 20.8001C27.1174 20.6138 26.6941 19.9298 26.6551 19.0588Z" stroke="#72C173" mask="url(#path-2-outside-1_316_449)"/>
<path d="M29.5611 17.3264C29.7055 16.5765 28.6182 16.0493 28.0326 16.5736C27.7169 16.8567 27.6367 17.3373 27.721 17.6456C27.7779 17.8514 27.8961 18.0041 28.0629 18.0868C28.5585 18.3319 29.4458 17.9284 29.5611 17.3264ZM28.2869 17.8258L28.4681 17.6446L28.6278 17.8044C28.5029 17.8395 28.3831 17.8475 28.2869 17.8258ZM28.7013 17.6491C28.7007 17.6497 28.701 17.6507 28.7003 17.6513L28.5812 17.5318L28.7131 17.3999L28.832 17.5187L28.7013 17.6491ZM28.9448 17.6315L28.9595 17.6462C28.9326 17.6651 28.9058 17.6833 28.8761 17.7002L28.9448 17.6315ZM29.2474 17.266C29.2288 17.3631 29.1697 17.459 29.0844 17.5449L29.0579 17.5184L29.1352 17.4411C29.1665 17.4098 29.1665 17.3593 29.1352 17.328C29.0687 17.2615 29.0109 17.3395 28.9451 17.4053L28.8262 17.2865L28.9269 17.1858L28.993 17.252C29.0237 17.2826 29.0745 17.2836 29.1061 17.252C29.1374 17.2206 29.1374 17.1702 29.1061 17.1392L29.04 17.073L29.0502 17.0628C29.0815 17.0315 29.0815 16.981 29.0502 16.95C29.0189 16.9187 28.9684 16.9187 28.9371 16.95L28.9269 16.9602L28.8706 16.904L28.9818 16.7928C29.17 16.9008 29.2819 17.0855 29.2474 17.266ZM28.246 16.8117C28.4157 16.6596 28.6112 16.657 28.825 16.7235L28.7563 16.7922C28.7246 16.764 28.6773 16.764 28.6476 16.7941C28.6176 16.8241 28.6182 16.8714 28.6457 16.9027L28.6118 16.9366C28.5805 16.9679 28.5805 17.0184 28.6118 17.0494C28.6428 17.0804 28.6933 17.0807 28.7249 17.0494L28.7575 17.0168L28.8138 17.073L28.7131 17.1737C28.6476 17.1082 28.5895 17.0302 28.523 17.0967C28.4917 17.128 28.4917 17.1785 28.523 17.2098L28.6 17.2868L28.4681 17.4187L28.3687 17.3194C28.3377 17.2884 28.2872 17.2877 28.2556 17.3194C28.2243 17.3507 28.2243 17.4012 28.2556 17.4325L28.3549 17.5318L28.1405 17.7462C28.092 17.7012 28.052 17.6446 28.0294 17.5612C27.9693 17.3421 28.0338 17.0018 28.246 16.8117Z" fill="#72C173"/>
<path d="M31.1643 18.1605C31.641 18.1605 32.2315 17.8125 32.3248 17.3262C32.3929 16.97 32.1654 16.6016 31.7839 16.4507C31.403 16.2999 31.0522 16.3444 30.7959 16.5741C30.4805 16.8572 30.4003 17.3377 30.4847 17.6461C30.577 17.9812 30.8253 18.1605 31.1643 18.1605ZM31.055 17.8276L31.2375 17.6451L31.396 17.8036C31.2714 17.8387 31.1515 17.848 31.055 17.8276ZM31.6513 17.6489C31.6634 17.6614 31.6797 17.6649 31.696 17.6675C31.6538 17.695 31.6068 17.7176 31.5586 17.74L31.3509 17.5323L31.4429 17.4403L31.6513 17.6489ZM31.009 16.8118C31.1758 16.6623 31.3678 16.6572 31.5794 16.7211C31.5746 16.7243 31.5682 16.7233 31.564 16.7275L31.4781 16.8134L31.4679 16.8032C31.4365 16.7719 31.3861 16.7719 31.3547 16.8032C31.3234 16.8345 31.3234 16.885 31.3547 16.9163L31.365 16.9265L31.31 16.9815C31.2787 17.0128 31.2787 17.0633 31.31 17.0946C31.3257 17.1102 31.3461 17.1179 31.3666 17.1179C31.3873 17.1179 31.4075 17.1102 31.4231 17.0946L31.4781 17.0396L31.7129 17.2745C31.7439 17.3055 31.7944 17.3058 31.826 17.2745C31.8573 17.2432 31.8573 17.1927 31.826 17.1614L31.5912 16.9265L31.6771 16.8406C31.6989 16.8188 31.6998 16.7898 31.6915 16.7623C31.9139 16.8623 32.0484 17.0684 32.0107 17.2662C31.988 17.3847 31.9037 17.5 31.7848 17.5988C31.7867 17.5761 31.7813 17.5534 31.764 17.5358L31.5413 17.3131C31.5439 17.2898 31.5391 17.2665 31.5212 17.2486C31.5033 17.2307 31.4797 17.2259 31.4564 17.2285L31.334 17.1061C31.3027 17.0748 31.2522 17.0748 31.2209 17.1061C31.1896 17.1374 31.1896 17.1879 31.2209 17.2192L31.3292 17.3275L31.2375 17.4192L31.1202 17.3019C31.0889 17.2706 31.0384 17.2706 31.0071 17.3019C30.9758 17.3333 30.9758 17.3837 31.0071 17.4147L31.1244 17.532L30.9071 17.7493C30.8569 17.7042 30.8157 17.6467 30.7924 17.5614C30.7326 17.3422 30.7972 17.0019 31.009 16.8118Z" fill="#72C173"/>
<path d="M34.1523 18.0777C34.5437 17.9298 34.8242 17.6419 34.8846 17.3262C34.9527 16.97 34.7252 16.6016 34.3437 16.4507C33.9628 16.2999 33.612 16.3444 33.3557 16.5741C33.0404 16.8572 32.9602 17.3377 33.0445 17.6461C33.1838 18.1509 33.6637 18.2624 34.1523 18.0777ZM33.65 17.8339L33.781 17.7029L33.8986 17.8205C33.8088 17.84 33.7238 17.8438 33.65 17.8339ZM34.2395 17.4991L34.112 17.3716L34.2216 17.262L34.3491 17.3895L34.2395 17.4991ZM34.1264 17.6122L34.0536 17.685C34.0408 17.6978 34.0369 17.7144 34.0344 17.7311L33.8935 17.5901L33.9989 17.4847L34.1264 17.6122ZM34.5689 17.193C34.5549 17.1962 34.5399 17.1984 34.529 17.2096L34.4622 17.2764L34.3347 17.1489L34.4034 17.0802C34.4347 17.0489 34.4347 16.9984 34.4034 16.9674C34.3721 16.9361 34.3216 16.9361 34.2903 16.9674L34.2216 17.0361L34.121 16.9355L34.2475 16.8092C34.2587 16.7981 34.2609 16.7834 34.2641 16.7693C34.451 16.8585 34.5667 17.0227 34.5689 17.193ZM33.5692 16.8118C33.7302 16.6674 33.9139 16.6581 34.1165 16.714L33.8845 16.9457C33.8532 16.977 33.8532 17.0275 33.8845 17.0588C33.9162 17.0904 33.9666 17.0895 33.9976 17.0588L34.0079 17.0486L34.1085 17.1492L33.9989 17.2588L33.8816 17.1415C33.8503 17.1102 33.7999 17.1102 33.7685 17.1415C33.7372 17.1729 33.7372 17.2233 33.7685 17.2547L33.8858 17.3719L33.7807 17.477L33.6589 17.3553C33.6276 17.324 33.5771 17.324 33.5458 17.3553C33.5145 17.3866 33.5145 17.4371 33.5458 17.4684L33.6676 17.5901L33.4896 17.7681C33.4276 17.7227 33.3794 17.6588 33.3528 17.5614C33.2928 17.3422 33.3573 17.0019 33.5692 16.8118Z" fill="#72C173"/>
<mask id="path-6-outside-2_316_449" maskUnits="userSpaceOnUse" x="13.3157" y="14.731" width="22" height="22" fill="black">
<rect fill="white" x="13.3157" y="14.731" width="22" height="22"/>
<path d="M27.7405 35.3972C27.7715 35.4282 27.8219 35.4286 27.8536 35.3972L27.8734 35.3774C28.8898 35.7363 29.9586 35.9746 31.0312 35.8583C32.4546 35.7033 34.0401 34.7231 34.3158 33.1494C34.6529 31.2298 32.5284 28.2091 31.0177 27.3051C30.1119 26.7629 28.7396 26.5255 27.7155 27.2154C26.6704 27.9193 26.2768 29.3561 25.1939 29.7744C23.1055 30.5786 19.8017 26.9719 20.2647 24.7167C20.4088 24.0132 21.2731 24.0007 21.853 23.4971C22.594 22.8536 23.0279 21.7925 22.9582 20.7937C22.7675 18.0778 19.1736 15.0223 16.6491 15.8773C15.695 16.2006 14.9128 17.0592 14.5572 18.1743C14.2786 19.0485 14.2421 20.0387 14.4421 21.2912C15.4691 27.7221 20.6849 32.3113 26.7362 34.9282C26.7758 34.9454 26.8171 34.9621 26.857 34.979C26.8487 35.0062 26.85 35.0356 26.8714 35.057C26.9024 35.088 26.9528 35.0883 26.9845 35.057L27.0014 35.04C27.2359 35.1381 27.4769 35.2337 27.7238 35.3244C27.7181 35.3503 27.7203 35.3771 27.7405 35.3972ZM27.9481 34.0933L28.4396 34.585L28.0236 35.001L27.5318 34.5093L27.9481 34.0933ZM28.5527 34.6978L29.0821 35.2273L28.9428 35.3666C28.6655 35.2988 28.3929 35.2167 28.1248 35.1257L28.5527 34.6978ZM29.2706 33.9802L29.8001 34.5096L29.1952 35.1145L28.6658 34.585L29.2706 33.9802ZM29.1949 35.3404L29.3003 35.4458C29.2425 35.4346 29.1853 35.4202 29.1278 35.4078L29.1949 35.3404ZM29.4508 35.4736C29.4767 35.4423 29.4774 35.3969 29.448 35.3675L29.3077 35.2273L29.9125 34.6221L30.3666 35.0758L30.0451 35.3972C30.0138 35.4286 30.0138 35.479 30.0451 35.5104C30.0761 35.5413 30.1266 35.5417 30.1582 35.5104L30.4797 35.1889L30.8395 35.5487C30.3752 35.5835 29.9097 35.5535 29.4508 35.4736ZM32.0293 34.3582L31.7453 34.6419L31.3858 34.2824L31.6696 33.9987L32.0293 34.3582ZM31.6325 34.755L30.9519 35.4353L30.5928 35.0761L31.2734 34.3956L31.6325 34.755ZM31.7456 34.8681L32.1175 35.2404C31.7814 35.3848 31.4299 35.4819 31.0855 35.5282L31.7456 34.8681ZM30.4797 34.9633L30.026 34.5096L30.7065 33.8291L31.1603 34.2831L30.4797 34.9633ZM33.4311 34.2904L32.6236 33.4849L32.9604 33.1482L33.3998 33.5875L33.1278 33.8594C33.0965 33.8907 33.0965 33.9412 33.1278 33.9725C33.1435 33.9882 33.1636 33.9958 33.1844 33.9958C33.2052 33.9958 33.2253 33.9882 33.2409 33.9725L33.5129 33.7006L33.5959 33.7837C33.6269 33.8147 33.6774 33.815 33.709 33.7837C33.7404 33.7524 33.7404 33.7019 33.709 33.6706L33.626 33.5875L33.9656 33.2479C33.8698 33.6405 33.6825 33.9901 33.4311 34.2904ZM33.5576 30.8777L33.409 30.7291L33.4566 30.6815C33.4911 30.7463 33.525 30.8118 33.5576 30.8777ZM33.6589 31.2049C33.6745 31.2205 33.6947 31.2282 33.7154 31.2282L33.7183 31.2269C33.7538 31.3113 33.787 31.3966 33.8177 31.4825L33.6768 31.6234L33.424 31.3707L33.6247 31.1703L33.6589 31.2049ZM33.8752 31.6512C33.8998 31.7298 33.9215 31.8087 33.941 31.888L33.7896 31.7365L33.8752 31.6512ZM27.8935 27.4806C28.8025 26.8684 30.0349 27.0895 30.8532 27.5796C31.9082 28.2107 32.7783 29.4664 33.3764 30.5358L33.2962 30.6163L33.2707 30.5907C33.2394 30.5594 33.1889 30.5594 33.1576 30.5907C33.1262 30.6221 33.1262 30.6725 33.1576 30.7039L33.5116 31.0579L33.3109 31.2579L33.1959 31.1429C33.1646 31.1116 33.1141 31.1116 33.0828 31.1429C33.0515 31.1742 33.0515 31.2247 33.0828 31.256L33.1997 31.3729C33.1732 31.4042 33.1726 31.4506 33.2023 31.48C33.2291 31.5068 33.2713 31.5145 33.3093 31.4825L33.564 31.7372L33.2774 32.0241C33.2461 32.0554 33.2461 32.1059 33.2774 32.1372C33.3084 32.1682 33.3589 32.1685 33.3902 32.1372L33.6771 31.8503L33.8899 32.0631C33.9055 32.0787 33.9257 32.0864 33.9464 32.0864C33.9595 32.0864 33.9707 32.0778 33.9826 32.0714C34.0397 32.3676 34.0557 32.6682 34.018 32.9702L33.5129 33.475L33.0735 33.0357L33.4531 32.6561L33.6087 32.8117L33.3668 33.0536C33.3355 33.0849 33.3355 33.1354 33.3668 33.1667C33.3978 33.1977 33.4483 33.198 33.4799 33.1667L33.7218 32.9248L33.8148 33.0178C33.8458 33.0488 33.8963 33.0491 33.9279 33.0178C33.9592 32.9865 33.9592 32.936 33.9279 32.9047L33.8349 32.8117L34.0103 32.6363C34.0417 32.605 34.0417 32.5545 34.0103 32.5232C33.979 32.4916 33.9286 32.4922 33.8972 32.5232L33.7218 32.6986L33.5643 32.5411C33.5908 32.5098 33.5915 32.4634 33.5617 32.434C33.532 32.4043 33.486 32.405 33.4547 32.4318L33.1361 32.1136C33.1048 32.0823 33.0544 32.0823 33.023 32.1136C32.9917 32.1449 32.9917 32.1954 33.023 32.2267L33.3397 32.5433L32.9604 32.9223L32.6438 32.6056C32.6125 32.5743 32.562 32.5743 32.5307 32.6056C32.4994 32.6369 32.4994 32.6874 32.5307 32.7187L32.8473 33.0354L32.5102 33.3721L32.0345 32.8973C32.0316 32.8935 32.0325 32.8881 32.029 32.8846C32.0255 32.881 32.0201 32.882 32.0162 32.8791C31.9817 32.8446 27.2749 28.1429 27.2331 28.1174C27.4315 27.8742 27.644 27.6486 27.8935 27.4806ZM22.6387 20.8164C22.6889 21.535 22.4477 22.2855 22.0112 22.8555L18.0524 18.8705L18.3652 18.5577L18.8598 19.0523C18.8908 19.0833 18.9413 19.0836 18.9726 19.0523C19.0039 19.021 19.0039 18.9705 18.9726 18.9395L18.478 18.4449L18.6409 18.282C18.6722 18.2507 18.6722 18.2002 18.6409 18.1689C18.6096 18.1376 18.5591 18.1376 18.5278 18.1689L18.3649 18.3318L18.0763 18.043C18.0914 18.0401 18.107 18.0372 18.1188 18.0254L18.484 17.6602L18.6773 17.8535C18.7083 17.8845 18.7588 17.8848 18.7905 17.8535C18.8218 17.8222 18.8218 17.7717 18.7905 17.7404L18.5971 17.5471L18.8454 17.2988C18.8767 17.2675 18.8767 17.217 18.8454 17.1857C18.8141 17.1544 18.7636 17.1544 18.7323 17.1857L18.484 17.434L18.2294 17.1793L18.5575 16.8512C18.5888 16.8199 18.5888 16.7694 18.5575 16.7384C18.5262 16.7071 18.4757 16.7071 18.4447 16.7384L18.1166 17.0665L17.8402 16.7901L17.8948 16.7355C17.9262 16.7042 17.9262 16.6537 17.8948 16.6227C17.8635 16.5914 17.8131 16.5914 17.7821 16.6227L17.7274 16.6774L17.5159 16.4658L17.9159 16.0661C17.9348 16.0684 17.954 16.0703 17.9728 16.0725C17.9766 16.0821 17.9766 16.093 17.9846 16.1006L19.1224 17.2387C19.1534 17.2697 19.2039 17.2701 19.2355 17.2387C19.2669 17.2074 19.2669 17.157 19.2355 17.1256L18.2236 16.1137C18.4668 16.1639 18.7023 16.238 18.9253 16.3275L19.5407 16.9429C19.5717 16.9739 19.6222 16.9742 19.6535 16.9429C19.6848 16.9116 19.6848 16.8611 19.6535 16.8301L19.3394 16.516C20.8108 17.2621 22.508 18.945 22.6387 20.8164ZM14.7578 21.241C14.7319 21.0787 14.7109 20.9215 14.693 20.7685L15.1055 21.181L14.8019 21.4845C14.7875 21.403 14.7709 21.3219 14.7578 21.241ZM14.654 19.3881L15.0189 19.7534L14.6434 20.1288C14.6332 19.8697 14.6367 19.6233 14.654 19.3881ZM14.7019 19.2102C14.6933 19.2015 14.6815 19.2009 14.6703 19.1971C14.6722 19.1798 14.6751 19.1629 14.677 19.1456C14.6789 19.1629 14.6837 19.1801 14.6968 19.1932C14.7278 19.2242 14.7783 19.2245 14.8099 19.1932L15.2186 18.7846L15.603 19.169L15.132 19.6402L14.7019 19.2102ZM14.6805 19.1201C14.7121 18.8667 14.761 18.6251 14.8275 18.3938L15.1055 18.6718C15.0716 18.706 14.6917 19.0731 14.6805 19.1201ZM14.9182 18.2586C14.9058 18.2462 14.8895 18.2427 14.8735 18.2401C14.9693 17.9487 15.0984 17.6794 15.2515 17.4337L15.3326 17.5148L15.1294 17.7177C15.0981 17.749 15.0981 17.7995 15.1294 17.8308C15.1611 17.8624 15.2115 17.8615 15.2422 17.8308L15.4454 17.6276L15.7975 17.9797L15.2186 18.5587L14.9182 18.2586ZM15.5585 17.5148L15.9081 17.1653L16.2589 17.5183L15.9106 17.8666L15.5585 17.5148ZM16.1407 16.8199C16.1097 16.7889 16.0592 16.7885 16.0279 16.8199L16.0215 16.8263L15.8819 16.6857C15.9944 16.5888 16.1139 16.5055 16.2369 16.4294L16.4139 16.6064L16.319 16.7013C16.2877 16.7326 16.2877 16.7831 16.319 16.8141C16.35 16.8451 16.4005 16.8454 16.4321 16.8141L16.527 16.7192L16.7817 16.9739L16.4922 17.2637C16.4851 17.2707 16.4855 17.2806 16.4816 17.2892L16.134 16.9394L16.1407 16.9327C16.172 16.9017 16.172 16.8509 16.1407 16.8199ZM17.29 16.4658L16.8948 16.8611L16.6398 16.6064L17.035 16.2112L17.29 16.4658ZM17.9885 17.9551L17.7214 17.688L18.1166 17.2927L18.3713 17.5474L18.006 17.9126C17.9942 17.9241 17.9913 17.9398 17.9885 17.9551ZM17.6082 17.5749L17.3319 17.2985L17.7271 16.9033L18.0035 17.1796L17.6082 17.5749ZM17.2191 17.1854L17.0075 16.9739L17.4028 16.5786L17.6143 16.7901L17.2191 17.1854ZM16.605 17.3765L16.8944 17.087L17.106 17.2985L16.7973 17.6072L16.5791 17.3873C16.5877 17.3835 16.5979 17.3838 16.605 17.3765ZM17.2191 17.4113L17.4955 17.6877L17.444 17.7391C17.4127 17.7704 17.4127 17.8209 17.444 17.8522C17.475 17.8832 17.5255 17.8835 17.5571 17.8522L17.6086 17.8008L18.2524 18.4446L17.9399 18.7571L16.9098 17.7206L17.2191 17.4113ZM17.5868 16.0454C17.6268 16.0454 17.6661 16.0485 17.7057 16.0501L17.4028 16.3527L17.1344 16.0843C17.2858 16.0585 17.4367 16.0454 17.5868 16.0454ZM16.7513 16.1802C16.7928 16.1661 16.8347 16.1556 16.8765 16.1438L16.527 16.4933L16.3791 16.3457C16.4998 16.2812 16.6232 16.2236 16.7513 16.1802ZM15.6522 16.9077L15.7956 17.0522L15.4457 17.4017L15.3397 17.2956C15.4355 17.1563 15.54 17.0269 15.6522 16.9077ZM14.8371 21.6752L15.2186 21.2937L15.3 21.3752C15.331 21.4062 15.3815 21.4065 15.4128 21.3752C15.4442 21.3439 15.4442 21.2934 15.4128 21.2621L15.3314 21.1806L15.8346 20.6774C15.8659 20.6461 15.8659 20.5956 15.8346 20.5646C15.8033 20.5333 15.7528 20.5333 15.7218 20.5646L15.2186 21.0678L14.669 20.5183C14.6639 20.4601 14.6581 20.401 14.6543 20.3441L15.1323 19.8661L15.4704 20.2045C15.5013 20.2355 15.5518 20.2358 15.5831 20.2045C15.6145 20.1732 15.6145 20.1227 15.5831 20.0917L15.2451 19.7534L15.7161 19.2824L15.9017 19.468C15.9327 19.499 15.9832 19.4993 16.0148 19.468C16.0461 19.4367 16.0461 19.3862 16.0148 19.3549L15.8292 19.1693L16.1749 18.8236C16.2062 18.7922 16.2062 18.7418 16.1749 18.7104C16.1436 18.6791 16.0931 18.6791 16.0618 18.7104L15.7161 19.0562L15.3317 18.6718L15.9106 18.0928L16.287 18.4695C16.318 18.5005 16.3685 18.5008 16.3998 18.4695C16.4311 18.4382 16.4311 18.3877 16.3998 18.3564L16.0234 17.9797L16.3714 17.6318L21.8022 23.0984C21.1402 23.7821 20.1462 23.7007 19.9509 24.6528C19.4391 27.1476 22.9646 30.979 25.3083 30.0725C26.0962 29.7683 26.5423 29.027 27.0388 28.364C27.0388 28.364 31.7057 33.0204 31.7431 33.0577L31.4814 33.3194C31.4501 33.3507 31.4501 33.4012 31.4814 33.4325C31.5124 33.4635 31.5628 33.4638 31.5945 33.4325L31.8562 33.1708L32.9534 34.2658L32.4259 34.7934C32.3946 34.8247 32.3946 34.8752 32.4259 34.9065C32.4575 34.9381 32.508 34.9371 32.539 34.9065L33.0665 34.3789L33.2119 34.524C32.9393 34.7873 32.6179 35.0042 32.2731 35.1704L31.8584 34.7557L32.1421 34.4719L32.3124 34.6422C32.3434 34.6732 32.3939 34.6735 32.4255 34.6422C32.4569 34.6109 32.4569 34.5604 32.4255 34.5291L32.2552 34.3588L32.3898 34.2243C32.4211 34.193 32.4211 34.1425 32.3898 34.1112C32.3584 34.0799 32.308 34.0799 32.2766 34.1112L32.1425 34.2454L31.1788 33.2817C31.1475 33.2504 31.097 33.2504 31.0657 33.2817C31.0344 33.313 31.0344 33.3635 31.0657 33.3948L31.5571 33.8862L31.2734 34.17L30.8196 33.7159L30.9174 33.6182C30.9487 33.5869 30.9487 33.5364 30.9174 33.5051C30.8861 33.4737 30.8356 33.4737 30.8043 33.5051L30.7065 33.6028L30.3097 33.206C30.2784 33.1747 30.2279 33.1747 30.1966 33.206C30.1653 33.2373 30.1653 33.2878 30.1966 33.3191L30.5934 33.7159L29.9129 34.3965L29.3834 33.8671L29.5176 33.7329C29.5489 33.7016 29.5489 33.6511 29.5176 33.6198C29.4863 33.5885 29.4358 33.5885 29.4045 33.6198L28.5524 34.4719L28.0609 33.9802L28.3948 33.6463C28.4261 33.615 28.4261 33.5645 28.3948 33.5332C28.3635 33.5019 28.313 33.5019 28.2817 33.5332L27.9402 33.8751C27.9111 33.8623 27.8775 33.8623 27.8539 33.8859C27.8299 33.9099 27.8302 33.9431 27.843 33.9722L27.419 34.3962L26.9842 33.9613C26.9528 33.93 26.9024 33.93 26.8711 33.9613C26.8397 33.9926 26.8397 34.0431 26.8711 34.0744L27.3059 34.5093L27.0864 34.7288C27.012 34.6975 26.9356 34.6665 26.8624 34.6349C21.0945 32.1404 16.0423 27.8352 14.8371 21.6752ZM27.419 34.6224L27.8162 35.0196C27.6219 34.948 27.4324 34.8726 27.2455 34.7959L27.419 34.6224Z"/>
</mask>
<path d="M27.7405 35.3972C27.7715 35.4282 27.8219 35.4286 27.8536 35.3972L27.8734 35.3774C28.8898 35.7363 29.9586 35.9746 31.0312 35.8583C32.4546 35.7033 34.0401 34.7231 34.3158 33.1494C34.6529 31.2298 32.5284 28.2091 31.0177 27.3051C30.1119 26.7629 28.7396 26.5255 27.7155 27.2154C26.6704 27.9193 26.2768 29.3561 25.1939 29.7744C23.1055 30.5786 19.8017 26.9719 20.2647 24.7167C20.4088 24.0132 21.2731 24.0007 21.853 23.4971C22.594 22.8536 23.0279 21.7925 22.9582 20.7937C22.7675 18.0778 19.1736 15.0223 16.6491 15.8773C15.695 16.2006 14.9128 17.0592 14.5572 18.1743C14.2786 19.0485 14.2421 20.0387 14.4421 21.2912C15.4691 27.7221 20.6849 32.3113 26.7362 34.9282C26.7758 34.9454 26.8171 34.9621 26.857 34.979C26.8487 35.0062 26.85 35.0356 26.8714 35.057C26.9024 35.088 26.9528 35.0883 26.9845 35.057L27.0014 35.04C27.2359 35.1381 27.4769 35.2337 27.7238 35.3244C27.7181 35.3503 27.7203 35.3771 27.7405 35.3972ZM27.9481 34.0933L28.4396 34.585L28.0236 35.001L27.5318 34.5093L27.9481 34.0933ZM28.5527 34.6978L29.0821 35.2273L28.9428 35.3666C28.6655 35.2988 28.3929 35.2167 28.1248 35.1257L28.5527 34.6978ZM29.2706 33.9802L29.8001 34.5096L29.1952 35.1145L28.6658 34.585L29.2706 33.9802ZM29.1949 35.3404L29.3003 35.4458C29.2425 35.4346 29.1853 35.4202 29.1278 35.4078L29.1949 35.3404ZM29.4508 35.4736C29.4767 35.4423 29.4774 35.3969 29.448 35.3675L29.3077 35.2273L29.9125 34.6221L30.3666 35.0758L30.0451 35.3972C30.0138 35.4286 30.0138 35.479 30.0451 35.5104C30.0761 35.5413 30.1266 35.5417 30.1582 35.5104L30.4797 35.1889L30.8395 35.5487C30.3752 35.5835 29.9097 35.5535 29.4508 35.4736ZM32.0293 34.3582L31.7453 34.6419L31.3858 34.2824L31.6696 33.9987L32.0293 34.3582ZM31.6325 34.755L30.9519 35.4353L30.5928 35.0761L31.2734 34.3956L31.6325 34.755ZM31.7456 34.8681L32.1175 35.2404C31.7814 35.3848 31.4299 35.4819 31.0855 35.5282L31.7456 34.8681ZM30.4797 34.9633L30.026 34.5096L30.7065 33.8291L31.1603 34.2831L30.4797 34.9633ZM33.4311 34.2904L32.6236 33.4849L32.9604 33.1482L33.3998 33.5875L33.1278 33.8594C33.0965 33.8907 33.0965 33.9412 33.1278 33.9725C33.1435 33.9882 33.1636 33.9958 33.1844 33.9958C33.2052 33.9958 33.2253 33.9882 33.2409 33.9725L33.5129 33.7006L33.5959 33.7837C33.6269 33.8147 33.6774 33.815 33.709 33.7837C33.7404 33.7524 33.7404 33.7019 33.709 33.6706L33.626 33.5875L33.9656 33.2479C33.8698 33.6405 33.6825 33.9901 33.4311 34.2904ZM33.5576 30.8777L33.409 30.7291L33.4566 30.6815C33.4911 30.7463 33.525 30.8118 33.5576 30.8777ZM33.6589 31.2049C33.6745 31.2205 33.6947 31.2282 33.7154 31.2282L33.7183 31.2269C33.7538 31.3113 33.787 31.3966 33.8177 31.4825L33.6768 31.6234L33.424 31.3707L33.6247 31.1703L33.6589 31.2049ZM33.8752 31.6512C33.8998 31.7298 33.9215 31.8087 33.941 31.888L33.7896 31.7365L33.8752 31.6512ZM27.8935 27.4806C28.8025 26.8684 30.0349 27.0895 30.8532 27.5796C31.9082 28.2107 32.7783 29.4664 33.3764 30.5358L33.2962 30.6163L33.2707 30.5907C33.2394 30.5594 33.1889 30.5594 33.1576 30.5907C33.1262 30.6221 33.1262 30.6725 33.1576 30.7039L33.5116 31.0579L33.3109 31.2579L33.1959 31.1429C33.1646 31.1116 33.1141 31.1116 33.0828 31.1429C33.0515 31.1742 33.0515 31.2247 33.0828 31.256L33.1997 31.3729C33.1732 31.4042 33.1726 31.4506 33.2023 31.48C33.2291 31.5068 33.2713 31.5145 33.3093 31.4825L33.564 31.7372L33.2774 32.0241C33.2461 32.0554 33.2461 32.1059 33.2774 32.1372C33.3084 32.1682 33.3589 32.1685 33.3902 32.1372L33.6771 31.8503L33.8899 32.0631C33.9055 32.0787 33.9257 32.0864 33.9464 32.0864C33.9595 32.0864 33.9707 32.0778 33.9826 32.0714C34.0397 32.3676 34.0557 32.6682 34.018 32.9702L33.5129 33.475L33.0735 33.0357L33.4531 32.6561L33.6087 32.8117L33.3668 33.0536C33.3355 33.0849 33.3355 33.1354 33.3668 33.1667C33.3978 33.1977 33.4483 33.198 33.4799 33.1667L33.7218 32.9248L33.8148 33.0178C33.8458 33.0488 33.8963 33.0491 33.9279 33.0178C33.9592 32.9865 33.9592 32.936 33.9279 32.9047L33.8349 32.8117L34.0103 32.6363C34.0417 32.605 34.0417 32.5545 34.0103 32.5232C33.979 32.4916 33.9286 32.4922 33.8972 32.5232L33.7218 32.6986L33.5643 32.5411C33.5908 32.5098 33.5915 32.4634 33.5617 32.434C33.532 32.4043 33.486 32.405 33.4547 32.4318L33.1361 32.1136C33.1048 32.0823 33.0544 32.0823 33.023 32.1136C32.9917 32.1449 32.9917 32.1954 33.023 32.2267L33.3397 32.5433L32.9604 32.9223L32.6438 32.6056C32.6125 32.5743 32.562 32.5743 32.5307 32.6056C32.4994 32.6369 32.4994 32.6874 32.5307 32.7187L32.8473 33.0354L32.5102 33.3721L32.0345 32.8973C32.0316 32.8935 32.0325 32.8881 32.029 32.8846C32.0255 32.881 32.0201 32.882 32.0162 32.8791C31.9817 32.8446 27.2749 28.1429 27.2331 28.1174C27.4315 27.8742 27.644 27.6486 27.8935 27.4806ZM22.6387 20.8164C22.6889 21.535 22.4477 22.2855 22.0112 22.8555L18.0524 18.8705L18.3652 18.5577L18.8598 19.0523C18.8908 19.0833 18.9413 19.0836 18.9726 19.0523C19.0039 19.021 19.0039 18.9705 18.9726 18.9395L18.478 18.4449L18.6409 18.282C18.6722 18.2507 18.6722 18.2002 18.6409 18.1689C18.6096 18.1376 18.5591 18.1376 18.5278 18.1689L18.3649 18.3318L18.0763 18.043C18.0914 18.0401 18.107 18.0372 18.1188 18.0254L18.484 17.6602L18.6773 17.8535C18.7083 17.8845 18.7588 17.8848 18.7905 17.8535C18.8218 17.8222 18.8218 17.7717 18.7905 17.7404L18.5971 17.5471L18.8454 17.2988C18.8767 17.2675 18.8767 17.217 18.8454 17.1857C18.8141 17.1544 18.7636 17.1544 18.7323 17.1857L18.484 17.434L18.2294 17.1793L18.5575 16.8512C18.5888 16.8199 18.5888 16.7694 18.5575 16.7384C18.5262 16.7071 18.4757 16.7071 18.4447 16.7384L18.1166 17.0665L17.8402 16.7901L17.8948 16.7355C17.9262 16.7042 17.9262 16.6537 17.8948 16.6227C17.8635 16.5914 17.8131 16.5914 17.7821 16.6227L17.7274 16.6774L17.5159 16.4658L17.9159 16.0661C17.9348 16.0684 17.954 16.0703 17.9728 16.0725C17.9766 16.0821 17.9766 16.093 17.9846 16.1006L19.1224 17.2387C19.1534 17.2697 19.2039 17.2701 19.2355 17.2387C19.2669 17.2074 19.2669 17.157 19.2355 17.1256L18.2236 16.1137C18.4668 16.1639 18.7023 16.238 18.9253 16.3275L19.5407 16.9429C19.5717 16.9739 19.6222 16.9742 19.6535 16.9429C19.6848 16.9116 19.6848 16.8611 19.6535 16.8301L19.3394 16.516C20.8108 17.2621 22.508 18.945 22.6387 20.8164ZM14.7578 21.241C14.7319 21.0787 14.7109 20.9215 14.693 20.7685L15.1055 21.181L14.8019 21.4845C14.7875 21.403 14.7709 21.3219 14.7578 21.241ZM14.654 19.3881L15.0189 19.7534L14.6434 20.1288C14.6332 19.8697 14.6367 19.6233 14.654 19.3881ZM14.7019 19.2102C14.6933 19.2015 14.6815 19.2009 14.6703 19.1971C14.6722 19.1798 14.6751 19.1629 14.677 19.1456C14.6789 19.1629 14.6837 19.1801 14.6968 19.1932C14.7278 19.2242 14.7783 19.2245 14.8099 19.1932L15.2186 18.7846L15.603 19.169L15.132 19.6402L14.7019 19.2102ZM14.6805 19.1201C14.7121 18.8667 14.761 18.6251 14.8275 18.3938L15.1055 18.6718C15.0716 18.706 14.6917 19.0731 14.6805 19.1201ZM14.9182 18.2586C14.9058 18.2462 14.8895 18.2427 14.8735 18.2401C14.9693 17.9487 15.0984 17.6794 15.2515 17.4337L15.3326 17.5148L15.1294 17.7177C15.0981 17.749 15.0981 17.7995 15.1294 17.8308C15.1611 17.8624 15.2115 17.8615 15.2422 17.8308L15.4454 17.6276L15.7975 17.9797L15.2186 18.5587L14.9182 18.2586ZM15.5585 17.5148L15.9081 17.1653L16.2589 17.5183L15.9106 17.8666L15.5585 17.5148ZM16.1407 16.8199C16.1097 16.7889 16.0592 16.7885 16.0279 16.8199L16.0215 16.8263L15.8819 16.6857C15.9944 16.5888 16.1139 16.5055 16.2369 16.4294L16.4139 16.6064L16.319 16.7013C16.2877 16.7326 16.2877 16.7831 16.319 16.8141C16.35 16.8451 16.4005 16.8454 16.4321 16.8141L16.527 16.7192L16.7817 16.9739L16.4922 17.2637C16.4851 17.2707 16.4855 17.2806 16.4816 17.2892L16.134 16.9394L16.1407 16.9327C16.172 16.9017 16.172 16.8509 16.1407 16.8199ZM17.29 16.4658L16.8948 16.8611L16.6398 16.6064L17.035 16.2112L17.29 16.4658ZM17.9885 17.9551L17.7214 17.688L18.1166 17.2927L18.3713 17.5474L18.006 17.9126C17.9942 17.9241 17.9913 17.9398 17.9885 17.9551ZM17.6082 17.5749L17.3319 17.2985L17.7271 16.9033L18.0035 17.1796L17.6082 17.5749ZM17.2191 17.1854L17.0075 16.9739L17.4028 16.5786L17.6143 16.7901L17.2191 17.1854ZM16.605 17.3765L16.8944 17.087L17.106 17.2985L16.7973 17.6072L16.5791 17.3873C16.5877 17.3835 16.5979 17.3838 16.605 17.3765ZM17.2191 17.4113L17.4955 17.6877L17.444 17.7391C17.4127 17.7704 17.4127 17.8209 17.444 17.8522C17.475 17.8832 17.5255 17.8835 17.5571 17.8522L17.6086 17.8008L18.2524 18.4446L17.9399 18.7571L16.9098 17.7206L17.2191 17.4113ZM17.5868 16.0454C17.6268 16.0454 17.6661 16.0485 17.7057 16.0501L17.4028 16.3527L17.1344 16.0843C17.2858 16.0585 17.4367 16.0454 17.5868 16.0454ZM16.7513 16.1802C16.7928 16.1661 16.8347 16.1556 16.8765 16.1438L16.527 16.4933L16.3791 16.3457C16.4998 16.2812 16.6232 16.2236 16.7513 16.1802ZM15.6522 16.9077L15.7956 17.0522L15.4457 17.4017L15.3397 17.2956C15.4355 17.1563 15.54 17.0269 15.6522 16.9077ZM14.8371 21.6752L15.2186 21.2937L15.3 21.3752C15.331 21.4062 15.3815 21.4065 15.4128 21.3752C15.4442 21.3439 15.4442 21.2934 15.4128 21.2621L15.3314 21.1806L15.8346 20.6774C15.8659 20.6461 15.8659 20.5956 15.8346 20.5646C15.8033 20.5333 15.7528 20.5333 15.7218 20.5646L15.2186 21.0678L14.669 20.5183C14.6639 20.4601 14.6581 20.401 14.6543 20.3441L15.1323 19.8661L15.4704 20.2045C15.5013 20.2355 15.5518 20.2358 15.5831 20.2045C15.6145 20.1732 15.6145 20.1227 15.5831 20.0917L15.2451 19.7534L15.7161 19.2824L15.9017 19.468C15.9327 19.499 15.9832 19.4993 16.0148 19.468C16.0461 19.4367 16.0461 19.3862 16.0148 19.3549L15.8292 19.1693L16.1749 18.8236C16.2062 18.7922 16.2062 18.7418 16.1749 18.7104C16.1436 18.6791 16.0931 18.6791 16.0618 18.7104L15.7161 19.0562L15.3317 18.6718L15.9106 18.0928L16.287 18.4695C16.318 18.5005 16.3685 18.5008 16.3998 18.4695C16.4311 18.4382 16.4311 18.3877 16.3998 18.3564L16.0234 17.9797L16.3714 17.6318L21.8022 23.0984C21.1402 23.7821 20.1462 23.7007 19.9509 24.6528C19.4391 27.1476 22.9646 30.979 25.3083 30.0725C26.0962 29.7683 26.5423 29.027 27.0388 28.364C27.0388 28.364 31.7057 33.0204 31.7431 33.0577L31.4814 33.3194C31.4501 33.3507 31.4501 33.4012 31.4814 33.4325C31.5124 33.4635 31.5628 33.4638 31.5945 33.4325L31.8562 33.1708L32.9534 34.2658L32.4259 34.7934C32.3946 34.8247 32.3946 34.8752 32.4259 34.9065C32.4575 34.9381 32.508 34.9371 32.539 34.9065L33.0665 34.3789L33.2119 34.524C32.9393 34.7873 32.6179 35.0042 32.2731 35.1704L31.8584 34.7557L32.1421 34.4719L32.3124 34.6422C32.3434 34.6732 32.3939 34.6735 32.4255 34.6422C32.4569 34.6109 32.4569 34.5604 32.4255 34.5291L32.2552 34.3588L32.3898 34.2243C32.4211 34.193 32.4211 34.1425 32.3898 34.1112C32.3584 34.0799 32.308 34.0799 32.2766 34.1112L32.1425 34.2454L31.1788 33.2817C31.1475 33.2504 31.097 33.2504 31.0657 33.2817C31.0344 33.313 31.0344 33.3635 31.0657 33.3948L31.5571 33.8862L31.2734 34.17L30.8196 33.7159L30.9174 33.6182C30.9487 33.5869 30.9487 33.5364 30.9174 33.5051C30.8861 33.4737 30.8356 33.4737 30.8043 33.5051L30.7065 33.6028L30.3097 33.206C30.2784 33.1747 30.2279 33.1747 30.1966 33.206C30.1653 33.2373 30.1653 33.2878 30.1966 33.3191L30.5934 33.7159L29.9129 34.3965L29.3834 33.8671L29.5176 33.7329C29.5489 33.7016 29.5489 33.6511 29.5176 33.6198C29.4863 33.5885 29.4358 33.5885 29.4045 33.6198L28.5524 34.4719L28.0609 33.9802L28.3948 33.6463C28.4261 33.615 28.4261 33.5645 28.3948 33.5332C28.3635 33.5019 28.313 33.5019 28.2817 33.5332L27.9402 33.8751C27.9111 33.8623 27.8775 33.8623 27.8539 33.8859C27.8299 33.9099 27.8302 33.9431 27.843 33.9722L27.419 34.3962L26.9842 33.9613C26.9528 33.93 26.9024 33.93 26.8711 33.9613C26.8397 33.9926 26.8397 34.0431 26.8711 34.0744L27.3059 34.5093L27.0864 34.7288C27.012 34.6975 26.9356 34.6665 26.8624 34.6349C21.0945 32.1404 16.0423 27.8352 14.8371 21.6752ZM27.419 34.6224L27.8162 35.0196C27.6219 34.948 27.4324 34.8726 27.2455 34.7959L27.419 34.6224Z" fill="white"/>
<path d="M27.7405 35.3972C27.7715 35.4282 27.8219 35.4286 27.8536 35.3972L27.8734 35.3774C28.8898 35.7363 29.9586 35.9746 31.0312 35.8583C32.4546 35.7033 34.0401 34.7231 34.3158 33.1494C34.6529 31.2298 32.5284 28.2091 31.0177 27.3051C30.1119 26.7629 28.7396 26.5255 27.7155 27.2154C26.6704 27.9193 26.2768 29.3561 25.1939 29.7744C23.1055 30.5786 19.8017 26.9719 20.2647 24.7167C20.4088 24.0132 21.2731 24.0007 21.853 23.4971C22.594 22.8536 23.0279 21.7925 22.9582 20.7937C22.7675 18.0778 19.1736 15.0223 16.6491 15.8773C15.695 16.2006 14.9128 17.0592 14.5572 18.1743C14.2786 19.0485 14.2421 20.0387 14.4421 21.2912C15.4691 27.7221 20.6849 32.3113 26.7362 34.9282C26.7758 34.9454 26.8171 34.9621 26.857 34.979C26.8487 35.0062 26.85 35.0356 26.8714 35.057C26.9024 35.088 26.9528 35.0883 26.9845 35.057L27.0014 35.04C27.2359 35.1381 27.4769 35.2337 27.7238 35.3244C27.7181 35.3503 27.7203 35.3771 27.7405 35.3972ZM27.9481 34.0933L28.4396 34.585L28.0236 35.001L27.5318 34.5093L27.9481 34.0933ZM28.5527 34.6978L29.0821 35.2273L28.9428 35.3666C28.6655 35.2988 28.3929 35.2167 28.1248 35.1257L28.5527 34.6978ZM29.2706 33.9802L29.8001 34.5096L29.1952 35.1145L28.6658 34.585L29.2706 33.9802ZM29.1949 35.3404L29.3003 35.4458C29.2425 35.4346 29.1853 35.4202 29.1278 35.4078L29.1949 35.3404ZM29.4508 35.4736C29.4767 35.4423 29.4774 35.3969 29.448 35.3675L29.3077 35.2273L29.9125 34.6221L30.3666 35.0758L30.0451 35.3972C30.0138 35.4286 30.0138 35.479 30.0451 35.5104C30.0761 35.5413 30.1266 35.5417 30.1582 35.5104L30.4797 35.1889L30.8395 35.5487C30.3752 35.5835 29.9097 35.5535 29.4508 35.4736ZM32.0293 34.3582L31.7453 34.6419L31.3858 34.2824L31.6696 33.9987L32.0293 34.3582ZM31.6325 34.755L30.9519 35.4353L30.5928 35.0761L31.2734 34.3956L31.6325 34.755ZM31.7456 34.8681L32.1175 35.2404C31.7814 35.3848 31.4299 35.4819 31.0855 35.5282L31.7456 34.8681ZM30.4797 34.9633L30.026 34.5096L30.7065 33.8291L31.1603 34.2831L30.4797 34.9633ZM33.4311 34.2904L32.6236 33.4849L32.9604 33.1482L33.3998 33.5875L33.1278 33.8594C33.0965 33.8907 33.0965 33.9412 33.1278 33.9725C33.1435 33.9882 33.1636 33.9958 33.1844 33.9958C33.2052 33.9958 33.2253 33.9882 33.2409 33.9725L33.5129 33.7006L33.5959 33.7837C33.6269 33.8147 33.6774 33.815 33.709 33.7837C33.7404 33.7524 33.7404 33.7019 33.709 33.6706L33.626 33.5875L33.9656 33.2479C33.8698 33.6405 33.6825 33.9901 33.4311 34.2904ZM33.5576 30.8777L33.409 30.7291L33.4566 30.6815C33.4911 30.7463 33.525 30.8118 33.5576 30.8777ZM33.6589 31.2049C33.6745 31.2205 33.6947 31.2282 33.7154 31.2282L33.7183 31.2269C33.7538 31.3113 33.787 31.3966 33.8177 31.4825L33.6768 31.6234L33.424 31.3707L33.6247 31.1703L33.6589 31.2049ZM33.8752 31.6512C33.8998 31.7298 33.9215 31.8087 33.941 31.888L33.7896 31.7365L33.8752 31.6512ZM27.8935 27.4806C28.8025 26.8684 30.0349 27.0895 30.8532 27.5796C31.9082 28.2107 32.7783 29.4664 33.3764 30.5358L33.2962 30.6163L33.2707 30.5907C33.2394 30.5594 33.1889 30.5594 33.1576 30.5907C33.1262 30.6221 33.1262 30.6725 33.1576 30.7039L33.5116 31.0579L33.3109 31.2579L33.1959 31.1429C33.1646 31.1116 33.1141 31.1116 33.0828 31.1429C33.0515 31.1742 33.0515 31.2247 33.0828 31.256L33.1997 31.3729C33.1732 31.4042 33.1726 31.4506 33.2023 31.48C33.2291 31.5068 33.2713 31.5145 33.3093 31.4825L33.564 31.7372L33.2774 32.0241C33.2461 32.0554 33.2461 32.1059 33.2774 32.1372C33.3084 32.1682 33.3589 32.1685 33.3902 32.1372L33.6771 31.8503L33.8899 32.0631C33.9055 32.0787 33.9257 32.0864 33.9464 32.0864C33.9595 32.0864 33.9707 32.0778 33.9826 32.0714C34.0397 32.3676 34.0557 32.6682 34.018 32.9702L33.5129 33.475L33.0735 33.0357L33.4531 32.6561L33.6087 32.8117L33.3668 33.0536C33.3355 33.0849 33.3355 33.1354 33.3668 33.1667C33.3978 33.1977 33.4483 33.198 33.4799 33.1667L33.7218 32.9248L33.8148 33.0178C33.8458 33.0488 33.8963 33.0491 33.9279 33.0178C33.9592 32.9865 33.9592 32.936 33.9279 32.9047L33.8349 32.8117L34.0103 32.6363C34.0417 32.605 34.0417 32.5545 34.0103 32.5232C33.979 32.4916 33.9286 32.4922 33.8972 32.5232L33.7218 32.6986L33.5643 32.5411C33.5908 32.5098 33.5915 32.4634 33.5617 32.434C33.532 32.4043 33.486 32.405 33.4547 32.4318L33.1361 32.1136C33.1048 32.0823 33.0544 32.0823 33.023 32.1136C32.9917 32.1449 32.9917 32.1954 33.023 32.2267L33.3397 32.5433L32.9604 32.9223L32.6438 32.6056C32.6125 32.5743 32.562 32.5743 32.5307 32.6056C32.4994 32.6369 32.4994 32.6874 32.5307 32.7187L32.8473 33.0354L32.5102 33.3721L32.0345 32.8973C32.0316 32.8935 32.0325 32.8881 32.029 32.8846C32.0255 32.881 32.0201 32.882 32.0162 32.8791C31.9817 32.8446 27.2749 28.1429 27.2331 28.1174C27.4315 27.8742 27.644 27.6486 27.8935 27.4806ZM22.6387 20.8164C22.6889 21.535 22.4477 22.2855 22.0112 22.8555L18.0524 18.8705L18.3652 18.5577L18.8598 19.0523C18.8908 19.0833 18.9413 19.0836 18.9726 19.0523C19.0039 19.021 19.0039 18.9705 18.9726 18.9395L18.478 18.4449L18.6409 18.282C18.6722 18.2507 18.6722 18.2002 18.6409 18.1689C18.6096 18.1376 18.5591 18.1376 18.5278 18.1689L18.3649 18.3318L18.0763 18.043C18.0914 18.0401 18.107 18.0372 18.1188 18.0254L18.484 17.6602L18.6773 17.8535C18.7083 17.8845 18.7588 17.8848 18.7905 17.8535C18.8218 17.8222 18.8218 17.7717 18.7905 17.7404L18.5971 17.5471L18.8454 17.2988C18.8767 17.2675 18.8767 17.217 18.8454 17.1857C18.8141 17.1544 18.7636 17.1544 18.7323 17.1857L18.484 17.434L18.2294 17.1793L18.5575 16.8512C18.5888 16.8199 18.5888 16.7694 18.5575 16.7384C18.5262 16.7071 18.4757 16.7071 18.4447 16.7384L18.1166 17.0665L17.8402 16.7901L17.8948 16.7355C17.9262 16.7042 17.9262 16.6537 17.8948 16.6227C17.8635 16.5914 17.8131 16.5914 17.7821 16.6227L17.7274 16.6774L17.5159 16.4658L17.9159 16.0661C17.9348 16.0684 17.954 16.0703 17.9728 16.0725C17.9766 16.0821 17.9766 16.093 17.9846 16.1006L19.1224 17.2387C19.1534 17.2697 19.2039 17.2701 19.2355 17.2387C19.2669 17.2074 19.2669 17.157 19.2355 17.1256L18.2236 16.1137C18.4668 16.1639 18.7023 16.238 18.9253 16.3275L19.5407 16.9429C19.5717 16.9739 19.6222 16.9742 19.6535 16.9429C19.6848 16.9116 19.6848 16.8611 19.6535 16.8301L19.3394 16.516C20.8108 17.2621 22.508 18.945 22.6387 20.8164ZM14.7578 21.241C14.7319 21.0787 14.7109 20.9215 14.693 20.7685L15.1055 21.181L14.8019 21.4845C14.7875 21.403 14.7709 21.3219 14.7578 21.241ZM14.654 19.3881L15.0189 19.7534L14.6434 20.1288C14.6332 19.8697 14.6367 19.6233 14.654 19.3881ZM14.7019 19.2102C14.6933 19.2015 14.6815 19.2009 14.6703 19.1971C14.6722 19.1798 14.6751 19.1629 14.677 19.1456C14.6789 19.1629 14.6837 19.1801 14.6968 19.1932C14.7278 19.2242 14.7783 19.2245 14.8099 19.1932L15.2186 18.7846L15.603 19.169L15.132 19.6402L14.7019 19.2102ZM14.6805 19.1201C14.7121 18.8667 14.761 18.6251 14.8275 18.3938L15.1055 18.6718C15.0716 18.706 14.6917 19.0731 14.6805 19.1201ZM14.9182 18.2586C14.9058 18.2462 14.8895 18.2427 14.8735 18.2401C14.9693 17.9487 15.0984 17.6794 15.2515 17.4337L15.3326 17.5148L15.1294 17.7177C15.0981 17.749 15.0981 17.7995 15.1294 17.8308C15.1611 17.8624 15.2115 17.8615 15.2422 17.8308L15.4454 17.6276L15.7975 17.9797L15.2186 18.5587L14.9182 18.2586ZM15.5585 17.5148L15.9081 17.1653L16.2589 17.5183L15.9106 17.8666L15.5585 17.5148ZM16.1407 16.8199C16.1097 16.7889 16.0592 16.7885 16.0279 16.8199L16.0215 16.8263L15.8819 16.6857C15.9944 16.5888 16.1139 16.5055 16.2369 16.4294L16.4139 16.6064L16.319 16.7013C16.2877 16.7326 16.2877 16.7831 16.319 16.8141C16.35 16.8451 16.4005 16.8454 16.4321 16.8141L16.527 16.7192L16.7817 16.9739L16.4922 17.2637C16.4851 17.2707 16.4855 17.2806 16.4816 17.2892L16.134 16.9394L16.1407 16.9327C16.172 16.9017 16.172 16.8509 16.1407 16.8199ZM17.29 16.4658L16.8948 16.8611L16.6398 16.6064L17.035 16.2112L17.29 16.4658ZM17.9885 17.9551L17.7214 17.688L18.1166 17.2927L18.3713 17.5474L18.006 17.9126C17.9942 17.9241 17.9913 17.9398 17.9885 17.9551ZM17.6082 17.5749L17.3319 17.2985L17.7271 16.9033L18.0035 17.1796L17.6082 17.5749ZM17.2191 17.1854L17.0075 16.9739L17.4028 16.5786L17.6143 16.7901L17.2191 17.1854ZM16.605 17.3765L16.8944 17.087L17.106 17.2985L16.7973 17.6072L16.5791 17.3873C16.5877 17.3835 16.5979 17.3838 16.605 17.3765ZM17.2191 17.4113L17.4955 17.6877L17.444 17.7391C17.4127 17.7704 17.4127 17.8209 17.444 17.8522C17.475 17.8832 17.5255 17.8835 17.5571 17.8522L17.6086 17.8008L18.2524 18.4446L17.9399 18.7571L16.9098 17.7206L17.2191 17.4113ZM17.5868 16.0454C17.6268 16.0454 17.6661 16.0485 17.7057 16.0501L17.4028 16.3527L17.1344 16.0843C17.2858 16.0585 17.4367 16.0454 17.5868 16.0454ZM16.7513 16.1802C16.7928 16.1661 16.8347 16.1556 16.8765 16.1438L16.527 16.4933L16.3791 16.3457C16.4998 16.2812 16.6232 16.2236 16.7513 16.1802ZM15.6522 16.9077L15.7956 17.0522L15.4457 17.4017L15.3397 17.2956C15.4355 17.1563 15.54 17.0269 15.6522 16.9077ZM14.8371 21.6752L15.2186 21.2937L15.3 21.3752C15.331 21.4062 15.3815 21.4065 15.4128 21.3752C15.4442 21.3439 15.4442 21.2934 15.4128 21.2621L15.3314 21.1806L15.8346 20.6774C15.8659 20.6461 15.8659 20.5956 15.8346 20.5646C15.8033 20.5333 15.7528 20.5333 15.7218 20.5646L15.2186 21.0678L14.669 20.5183C14.6639 20.4601 14.6581 20.401 14.6543 20.3441L15.1323 19.8661L15.4704 20.2045C15.5013 20.2355 15.5518 20.2358 15.5831 20.2045C15.6145 20.1732 15.6145 20.1227 15.5831 20.0917L15.2451 19.7534L15.7161 19.2824L15.9017 19.468C15.9327 19.499 15.9832 19.4993 16.0148 19.468C16.0461 19.4367 16.0461 19.3862 16.0148 19.3549L15.8292 19.1693L16.1749 18.8236C16.2062 18.7922 16.2062 18.7418 16.1749 18.7104C16.1436 18.6791 16.0931 18.6791 16.0618 18.7104L15.7161 19.0562L15.3317 18.6718L15.9106 18.0928L16.287 18.4695C16.318 18.5005 16.3685 18.5008 16.3998 18.4695C16.4311 18.4382 16.4311 18.3877 16.3998 18.3564L16.0234 17.9797L16.3714 17.6318L21.8022 23.0984C21.1402 23.7821 20.1462 23.7007 19.9509 24.6528C19.4391 27.1476 22.9646 30.979 25.3083 30.0725C26.0962 29.7683 26.5423 29.027 27.0388 28.364C27.0388 28.364 31.7057 33.0204 31.7431 33.0577L31.4814 33.3194C31.4501 33.3507 31.4501 33.4012 31.4814 33.4325C31.5124 33.4635 31.5628 33.4638 31.5945 33.4325L31.8562 33.1708L32.9534 34.2658L32.4259 34.7934C32.3946 34.8247 32.3946 34.8752 32.4259 34.9065C32.4575 34.9381 32.508 34.9371 32.539 34.9065L33.0665 34.3789L33.2119 34.524C32.9393 34.7873 32.6179 35.0042 32.2731 35.1704L31.8584 34.7557L32.1421 34.4719L32.3124 34.6422C32.3434 34.6732 32.3939 34.6735 32.4255 34.6422C32.4569 34.6109 32.4569 34.5604 32.4255 34.5291L32.2552 34.3588L32.3898 34.2243C32.4211 34.193 32.4211 34.1425 32.3898 34.1112C32.3584 34.0799 32.308 34.0799 32.2766 34.1112L32.1425 34.2454L31.1788 33.2817C31.1475 33.2504 31.097 33.2504 31.0657 33.2817C31.0344 33.313 31.0344 33.3635 31.0657 33.3948L31.5571 33.8862L31.2734 34.17L30.8196 33.7159L30.9174 33.6182C30.9487 33.5869 30.9487 33.5364 30.9174 33.5051C30.8861 33.4737 30.8356 33.4737 30.8043 33.5051L30.7065 33.6028L30.3097 33.206C30.2784 33.1747 30.2279 33.1747 30.1966 33.206C30.1653 33.2373 30.1653 33.2878 30.1966 33.3191L30.5934 33.7159L29.9129 34.3965L29.3834 33.8671L29.5176 33.7329C29.5489 33.7016 29.5489 33.6511 29.5176 33.6198C29.4863 33.5885 29.4358 33.5885 29.4045 33.6198L28.5524 34.4719L28.0609 33.9802L28.3948 33.6463C28.4261 33.615 28.4261 33.5645 28.3948 33.5332C28.3635 33.5019 28.313 33.5019 28.2817 33.5332L27.9402 33.8751C27.9111 33.8623 27.8775 33.8623 27.8539 33.8859C27.8299 33.9099 27.8302 33.9431 27.843 33.9722L27.419 34.3962L26.9842 33.9613C26.9528 33.93 26.9024 33.93 26.8711 33.9613C26.8397 33.9926 26.8397 34.0431 26.8711 34.0744L27.3059 34.5093L27.0864 34.7288C27.012 34.6975 26.9356 34.6665 26.8624 34.6349C21.0945 32.1404 16.0423 27.8352 14.8371 21.6752ZM27.419 34.6224L27.8162 35.0196C27.6219 34.948 27.4324 34.8726 27.2455 34.7959L27.419 34.6224Z" stroke="white" stroke-width="0.6" mask="url(#path-6-outside-2_316_449)"/>
</g>
<defs>
<clipPath id="clip0_316_449">
<rect width="24" height="24" fill="white" transform="translate(13 13)"/>
</clipPath>
</defs>
</svg>
