<svg width="50" height="50" viewBox="0 0 50 50" fill="none" xmlns="http://www.w3.org/2000/svg">
<circle cx="25" cy="25" r="24" fill="#224943" stroke="#72C173" stroke-width="2"/>
<path d="M22.9882 35.5533C22.1059 35.6592 21.5765 35.7651 21.5765 35.9063C21.5765 36.1886 24.1882 36.4357 27.3647 36.4357C30.5765 36.4357 33.1529 36.1886 33.1529 35.9063C33.1529 35.6592 31.4941 35.4827 29.1647 35.4121C31.6706 34.2827 33.7882 32.2004 34.8118 29.6239C36.0118 26.6592 35.8 23.1651 34.1765 20.4121C32.9765 18.3651 31 16.7768 28.7059 16.0004C27.4706 15.471 26.0941 15.1533 24.6471 15.1533C19 15.1533 14.3765 19.7768 14.3765 25.4239C14.3765 30.5416 18.1176 34.7769 22.9882 35.5533ZM24.6471 15.6827C30.0118 15.6827 34.3882 20.0592 34.3882 25.4239C34.3882 30.7886 30.0118 35.1651 24.6471 35.1651C19.2823 35.1651 14.9059 30.7886 14.9059 25.4239C14.9059 20.0592 19.2823 15.6827 24.6471 15.6827Z" fill="white"/>
<path d="M24.6471 34.2122C29.4824 34.2122 33.4354 30.2593 33.4354 25.424C33.4354 20.5887 29.4824 16.6357 24.6471 16.6357C19.8118 16.6357 15.8589 20.5887 15.8589 25.424C15.8589 30.2593 19.8118 34.2122 24.6471 34.2122ZM17.9059 20.6593L18.6118 21.3652C18.7177 21.471 18.8942 21.471 19.0001 21.3652C19.1059 21.2593 19.1059 21.0828 19.0001 20.9769L18.2589 20.2357C19.5648 18.6122 21.4707 17.5181 23.6589 17.2357V17.9063C23.6589 18.0475 23.7648 18.1887 23.9412 18.1887C24.1177 18.1887 24.2236 18.0828 24.2236 17.9063V17.1652C26.3412 17.0593 28.3177 17.7299 29.8706 18.9652L29.4824 19.3534C29.3765 19.4593 29.3765 19.6357 29.4824 19.7416C29.5883 19.8475 29.7648 19.8475 29.8706 19.7416L30.2942 19.3181C31.8118 20.7299 32.8354 22.7063 32.9765 24.8946H32.3765C32.2354 24.8946 32.0942 25.0004 32.0942 25.1769C32.0942 25.3534 32.2001 25.4593 32.3765 25.4593H33.0118C33.0118 27.6828 32.0942 29.7299 30.6471 31.2122C30.6118 31.0357 30.5412 31.0357 30.0824 30.5769C29.9765 30.471 29.8001 30.471 29.6942 30.5769C29.5883 30.6828 29.5883 30.8593 29.6942 30.9652C30.1883 31.424 30.1883 31.4946 30.3295 31.5299C29.0236 32.7299 27.2942 33.5416 25.4236 33.7181C25.4589 33.6122 25.4236 33.8593 25.4236 32.871C25.4236 32.7299 25.3177 32.5887 25.1412 32.5887C24.9648 32.5887 24.8589 32.6946 24.8589 32.871V33.7534C22.7059 33.7887 20.7295 33.0475 19.1765 31.671L19.6354 31.1769C19.7412 31.071 19.7412 30.8946 19.6354 30.7887C19.5295 30.6828 19.353 30.6828 19.2471 30.7887L18.753 31.2828C17.5883 30.1181 16.8118 28.6004 16.4942 26.9416H17.2001C17.3412 26.9416 17.4824 26.8357 17.4824 26.6593C17.4824 26.4828 17.3765 26.3769 17.2001 26.3769H16.4589C16.2118 24.2946 16.7765 22.2828 17.9059 20.6593Z" fill="#72C173"/>
<path d="M23.5176 20.0237L24.0823 19.459L24.1529 24.3649C23.7999 24.506 23.4823 24.8237 23.4117 25.2119C23.3058 25.7413 23.6235 26.306 24.1529 26.5178C24.7529 26.7648 25.5294 26.4472 25.7764 25.7766L29.2352 25.6354C29.0941 25.8119 28.9882 25.9884 28.847 26.0943C28.7411 26.2001 28.7411 26.3766 28.847 26.4825C28.9529 26.5884 29.1294 26.5884 29.2352 26.4825C29.4823 26.2001 29.8352 25.706 30.0823 25.459C30.1882 25.3531 30.1882 25.1766 30.047 25.0707C29.7294 24.7884 29.3411 24.5413 28.9529 24.4001C28.8117 24.3296 28.6705 24.4001 28.5999 24.5413C28.5294 24.6825 28.5999 24.8237 28.7411 24.8943C28.9176 24.9648 29.0588 25.0354 29.1999 25.1413L25.7764 25.2825C25.6705 24.7884 25.2823 24.5413 24.7882 24.506C24.7529 24.4354 24.6823 24.4001 24.647 24.3649C24.6117 23.1296 24.5764 20.659 24.5764 19.459C24.8235 19.6354 25.0352 19.8119 25.247 20.0237C25.3529 20.1296 25.5294 20.1296 25.6352 20.0237C25.7411 19.9178 25.7411 19.7413 25.6352 19.6354C25.2823 19.2825 24.8588 18.9648 24.4352 18.6825C24.3294 18.6119 24.1882 18.6119 24.0823 18.7178L23.0941 19.706C22.9882 19.8119 22.9882 19.9884 23.0941 20.0943C23.2352 20.1296 23.4117 20.1296 23.5176 20.0237ZM25.3176 25.2472C25.4941 25.6707 24.9294 26.2001 24.3999 25.9884C24.1176 25.8825 23.9411 25.5648 23.9764 25.2825C24.0117 25.106 24.1529 24.9296 24.3294 24.859C24.3646 24.9296 24.4705 24.9649 24.5411 24.9649C24.8588 24.9296 25.2117 25.0001 25.3176 25.2472Z" fill="white"/>
<path d="M29.5881 15.5767C29.7293 15.5767 29.8705 15.4708 29.8705 15.3296C29.9058 14.8355 30.0469 14.3767 30.294 13.9532C30.3646 13.812 30.3293 13.6708 30.1881 13.6002C30.0469 13.5296 29.9058 13.5649 29.8352 13.7061C29.5528 14.2002 29.3764 14.7296 29.3411 15.2944C29.3411 15.4708 29.4469 15.5767 29.5881 15.5767Z" fill="#72C173"/>
<path d="M30.894 16.3532C31.0352 16.4238 31.1764 16.3885 31.247 16.2826C31.5646 15.7885 31.9175 15.365 32.3764 14.9767C32.4823 14.8708 32.5175 14.7297 32.4117 14.5885C32.3058 14.4826 32.1646 14.4473 32.0234 14.5532C31.5293 14.9767 31.1411 15.4355 30.7881 15.965C30.7528 16.1061 30.7881 16.2826 30.894 16.3532Z" fill="#72C173"/>
<path d="M32.0235 17.3769C32.0941 17.4828 32.2706 17.5534 32.3765 17.4475L33.7177 16.6004C33.8235 16.5298 33.8941 16.3534 33.7882 16.2475C33.7177 16.1416 33.5412 16.071 33.4353 16.1769L32.0941 17.0239C31.9882 17.0592 31.953 17.2357 32.0235 17.3769Z" fill="#72C173"/>
</svg>
