<svg width="50" height="50" viewBox="0 0 50 50" fill="none" xmlns="http://www.w3.org/2000/svg">
<circle cx="25" cy="25" r="24" fill="#224943" stroke="#72C173" stroke-width="2"/>
<g clip-path="url(#clip0_320_1528)">
<path d="M23.2051 22.124L27.8851 24.9999L23.2051 27.8731V22.124Z" fill="#72C173"/>
<path d="M36.5907 17.2911C36.4844 16.2976 36.0411 15.3705 35.3344 14.6642C34.6278 13.9578 33.7006 13.5148 32.707 13.4088C27.5852 12.8624 22.4198 12.8624 17.2979 13.4088C16.3034 13.5136 15.3749 13.9561 14.6672 14.6626C13.9595 15.3691 13.5153 16.2968 13.4088 17.2911C12.8624 22.413 12.8624 27.5784 13.4088 32.7002C13.5133 33.6952 13.9559 34.6242 14.6627 35.3322C15.3695 36.0402 16.2977 36.4844 17.2925 36.5907C22.4142 37.1398 27.5799 37.1398 32.7016 36.5907C33.6965 36.4858 34.6253 36.0429 35.3331 35.3359C36.0409 34.6289 36.4848 33.7005 36.5907 32.7057C37.1375 27.582 37.1375 22.4148 36.5907 17.2911ZM32.1507 28.6093C31.8507 29.5311 30.8579 30.0916 29.9443 30.2198C26.6581 30.5689 23.3442 30.5689 20.0579 30.2198C19.1443 30.0916 18.1489 29.5379 17.8516 28.6093C17.3839 26.2261 17.3839 23.7748 17.8516 21.3916C18.1516 20.4684 19.1443 19.9093 20.0579 19.7811C23.3442 19.432 26.6581 19.432 29.9443 19.7811C30.8579 19.9093 31.8534 20.4629 32.1507 21.3916C32.6178 23.7744 32.6173 26.2253 32.1493 28.6079L32.1507 28.6093Z" fill="#72C173"/>
</g>
<defs>
<clipPath id="clip0_320_1528">
<rect width="24" height="24" fill="white" transform="translate(13 13)"/>
</clipPath>
</defs>
</svg>
