<svg width="80" height="80" viewBox="0 0 80 80" fill="none" xmlns="http://www.w3.org/2000/svg">
<circle cx="40" cy="40" r="39" fill="#FAFAF5" stroke="#72C173" stroke-width="2"/>
<path d="M25.7163 55.0997C25.7163 55.4682 26.0173 55.7725 26.388 55.7779C30.444 55.8337 33.6259 55.9362 37.4895 56.0063C39.2956 56.4709 45.2859 57.9259 45.79 57.9259C45.8615 57.9259 45.9317 57.9137 45.9985 57.8916C46.2468 57.9033 46.4957 57.8996 46.7418 57.8648C46.9483 57.8354 47.1144 57.6848 47.1826 57.4878C47.353 56.9954 47.5322 56.4782 47.7039 55.9825C50.3094 55.9067 50.1783 55.9164 50.3893 55.7745C50.5694 55.6981 50.6735 55.6167 50.8867 55.4873C51.2414 55.2719 51.4723 54.8996 51.4937 54.4851C51.7669 49.1827 51.8831 43.9441 51.8936 38.6717C52.6849 35.6918 53.4592 32.6771 54.2528 29.714C54.3823 29.2304 54.114 28.913 54.0386 28.696C54.0288 28.4282 53.8697 28.1836 53.6162 28.0909C52.9724 27.8391 52.3646 27.61 51.7686 27.3895C51.763 27.1449 51.7592 26.9024 51.7532 26.6573C51.7419 26.1914 51.4304 25.978 50.9487 25.4164C50.8503 25.2156 50.6652 25.0618 50.4317 25.0323C50.4314 25.0323 50.4311 25.0323 50.4308 25.0323C47.5857 24.6798 44.7934 24.4538 42.0307 24.336C42.0281 24.3354 42.0261 24.3336 42.0234 24.333C38.1475 23.3257 34.2996 22.5886 30.2618 22.0796C29.9076 22.0358 29.5863 22.2584 29.5147 22.5881L28.9899 24.661C28.0981 24.7453 27.2065 24.8382 26.3148 24.948C25.9735 24.9896 25.7163 25.2798 25.7163 25.6234V37.5535L22.2621 51.1602C22.1693 51.5304 22.4041 51.8905 22.7484 51.9767C23.7626 52.2518 24.7498 52.5209 25.7163 52.7862V55.0997ZM41.1119 56.0501C42.4011 56.058 43.7432 56.0675 46.0336 56.0238C45.92 56.3745 45.8066 56.7266 45.6921 57.0721C44.1969 56.7629 42.6935 56.4273 41.1119 56.0501ZM53.1806 28.8118C52.6093 30.6933 52.2965 32.1766 51.8788 34.0958C51.8609 32.1681 51.8288 30.2292 51.7873 28.2798C52.2377 28.4481 52.6996 28.6243 53.1806 28.8118ZM30.2866 22.9193C32.9179 23.2547 35.4658 23.6984 37.9965 24.2414C35.2688 24.2383 32.5641 24.3559 29.865 24.5857L30.2866 22.9193ZM26.5463 25.7558C34.2999 24.8112 42.0372 24.8388 50.1909 25.8391C49.9856 30.2222 50.8972 40.7397 49.8767 55.0753C41.6415 55.431 34.9271 55.0679 26.5463 54.95V25.7558ZM23.1051 51.2137L25.7163 40.9275V51.9253C24.8646 51.6922 23.9988 51.456 23.1051 51.2137Z" fill="#214842"/>
<path d="M45.4617 28.4703L30.0286 28.0294C29.4653 28.0133 29 28.4655 29 29.029V34.529C29 35.0698 29.43 35.5126 29.9706 35.5285L45.0369 35.9717C45.5745 35.9875 46.0283 35.5753 46.0641 35.0386L46.4309 29.5364C46.4686 28.9705 46.0286 28.4865 45.4617 28.4703Z" fill="#72C173"/>
<path d="M30.0901 36.2881C41.3896 36.3888 40.1447 36.3133 41.9612 36.4167C45.7703 36.6352 46.9623 36.4326 46.922 32.6604L46.9198 29.8833C46.9198 28.8815 46.2192 28.066 45.3581 28.066H30.0993C29.2382 28.066 28.5376 28.8815 28.5376 29.8833V34.4702C28.5376 35.4667 29.2339 36.2821 30.0901 36.2881ZM29.3676 29.8833C29.3676 29.3484 29.7027 28.8961 30.0993 28.8961H45.3581C45.7548 28.8961 46.0898 29.3484 46.0898 29.8833L46.092 32.6691C46.1231 35.6435 45.6988 35.7991 42.0088 35.5883C40.1692 35.4826 41.3441 35.5586 30.0958 35.458C29.7011 35.4553 29.3676 35.003 29.3676 34.4702V29.8833Z" fill="#72C173"/>
<path d="M28.4175 40.1357H39.9302C40.1594 40.1357 40.3453 39.9498 40.3453 39.7207C40.3453 39.4915 40.1594 39.3056 39.9302 39.3056H28.4175C28.1883 39.3056 28.0024 39.4915 28.0024 39.7207C28.0024 39.9498 28.1883 40.1357 28.4175 40.1357Z" fill="#214842"/>
<path d="M28.2715 44.9489H43.4754C43.7045 44.9489 43.8904 44.763 43.8904 44.5339C43.8904 44.3048 43.7045 44.1189 43.4754 44.1189H28.2715C28.0423 44.1189 27.8564 44.3048 27.8564 44.5339C27.8564 44.763 28.0423 44.9489 28.2715 44.9489Z" fill="#214842"/>
<path d="M38.2887 49.0073C38.2887 48.7781 38.1028 48.5923 37.8737 48.5923H28.0288C27.7997 48.5923 27.6138 48.7781 27.6138 49.0073C27.6138 49.2364 27.7997 49.4223 28.0288 49.4223H37.8737C38.1028 49.4223 38.2887 49.2364 38.2887 49.0073Z" fill="#214842"/>
<path d="M42.0762 48.9325V51.7728C42.0762 51.9442 42.2149 52.0789 42.3822 52.0789H47.1488C47.3161 52.0789 47.4549 51.9442 47.4549 51.7728V48.9569C47.4549 48.7733 47.2875 48.6346 47.1121 48.6509L42.3863 48.6264C42.2072 48.6182 42.0762 48.7662 42.0762 48.9325Z" fill="#72C173"/>
<path d="M53.5828 26.6664C54.0207 26.6664 53.9718 26.2475 54.8749 24.6048C54.9854 24.4038 54.9122 24.1514 54.7112 24.0412C54.511 23.9299 54.2583 24.0039 54.1476 24.2049C53.5542 25.2832 53.5993 25.3319 53.2159 26.0579C53.0687 26.3375 53.276 26.6664 53.5828 26.6664Z" fill="#214842"/>
<path d="M54.5939 27.5299C54.6739 27.6494 54.8055 27.7142 54.9392 27.7142C55.0187 27.7142 55.0986 27.6915 55.1694 27.6445C56.0686 27.0433 56.3346 26.7753 57.0951 26.2162C57.2799 26.0806 57.3196 25.8207 57.184 25.6359C57.0481 25.4511 56.7884 25.4116 56.6039 25.5472C55.839 26.1085 55.5833 26.3698 54.7085 26.9539C54.5177 27.0814 54.4666 27.3392 54.5939 27.5299Z" fill="#214842"/>
<path d="M57.3435 29.5602C57.551 29.5602 57.7302 29.4051 57.755 29.1938C57.782 28.9663 57.6194 28.7599 57.3919 28.7328C56.6892 28.6502 56.0723 28.6901 55.4195 28.6123C55.1884 28.5886 54.9852 28.748 54.9585 28.976C54.9315 29.2035 55.0941 29.41 55.3216 29.437C56.0243 29.5196 56.6412 29.4797 57.2941 29.5575C57.3108 29.5591 57.3273 29.5602 57.3435 29.5602Z" fill="#214842"/>
</svg>
