<svg width="80" height="81" viewBox="0 0 80 81" fill="none" xmlns="http://www.w3.org/2000/svg">
<circle cx="40" cy="40.5" r="39" fill="white" stroke="#72C173" stroke-width="2"/>
<path d="M52.9526 42.8246C53.3677 42.4095 53.6998 41.9114 53.8658 41.4133C54.1979 40.5001 54.2809 39.5039 54.0318 38.5077C53.5337 36.5982 51.6243 35.1039 49.6318 35.1039C47.6394 35.0209 45.7299 36.5152 45.1488 38.3416C44.6507 39.836 45.0658 41.5794 46.062 42.7416C45.0658 43.3228 44.2356 44.0699 43.5715 44.9831C42.7413 46.2284 42.3262 47.7228 42.3262 49.2171C42.3262 49.4662 42.4922 49.6322 42.7413 49.6322C44.9828 49.5492 47.1413 49.3831 49.3828 49.2171C47.3073 49.0511 45.3148 48.885 43.2394 48.802C43.4054 47.6397 43.8205 46.5605 44.4847 45.7303C45.2318 44.7341 46.3111 43.9869 47.4733 43.6548C47.6394 43.5718 47.7224 43.4888 47.8054 43.4058C48.0545 43.0737 47.9715 42.6586 47.6394 42.4095C46.5601 41.6624 46.062 40.168 46.4771 38.9228C46.8922 37.6775 48.1375 36.7643 49.3828 36.8473C50.7111 36.8473 51.8733 37.7605 52.2884 39.0058C52.7035 40.2511 52.2054 41.7454 51.1262 42.4926C50.9601 42.5756 50.8771 42.7416 50.8771 42.8246C50.7941 43.1567 50.9601 43.5718 51.2922 43.7378C52.4545 44.0699 53.4507 44.8171 54.1979 45.8133C54.862 46.6435 55.2771 47.7228 55.4432 48.885C53.3677 48.968 51.3752 49.1341 49.2998 49.3001C51.5413 49.4662 53.6998 49.6322 55.9413 49.7152C56.1903 49.7152 56.3564 49.5492 56.3564 49.3001C56.4394 47.8888 56.0243 46.3945 55.1941 45.1492C54.779 44.1529 53.9488 43.3228 52.9526 42.8246Z" fill="#72C173"/>
<path d="M40.4996 32.2812C43.0732 32.2812 45.7298 32.1982 48.3034 32.1152C50.877 32.0322 53.5336 31.7831 56.1072 31.451C53.5336 31.119 50.877 30.9529 48.3034 30.7869C45.7298 30.6208 43.0732 30.6208 40.4996 30.6208C37.9261 30.6208 35.2694 30.7039 32.6959 30.7869C30.1223 30.8699 27.4657 31.119 24.8921 31.451C27.4657 31.7831 30.1223 31.9492 32.6959 32.1152C35.2694 32.1982 37.9261 32.2812 40.4996 32.2812Z" fill="#214842"/>
<path d="M36.5978 38.5075C37.9261 38.4245 39.1713 38.1754 40.4996 37.8434C39.1713 37.5113 37.9261 37.3453 36.5978 37.1792C33.8581 36.9302 31.3676 36.9302 28.794 37.1792C27.4657 37.2622 26.2204 37.5113 24.8921 37.8434C26.2204 38.1754 27.4657 38.3415 28.794 38.5075C31.3676 38.7566 33.8581 38.7566 36.5978 38.5075Z" fill="#214842"/>
<path d="M30.8694 44.2358C31.8657 44.2358 32.8619 44.1528 33.8581 44.0698C34.8544 43.9037 35.8506 43.7377 36.8468 43.4056C35.8506 43.0736 34.8544 42.9075 33.8581 42.7415C32.8619 42.6585 31.8657 42.5754 30.8694 42.5754C28.96 42.5754 26.6355 42.8245 24.8921 43.4056C26.6355 44.0698 28.96 44.2358 30.8694 44.2358Z" fill="#214842"/>
<path d="M35.0204 49.632C36.1827 49.549 37.2619 49.3 38.4242 48.9679C37.2619 48.6358 36.1827 48.4698 35.0204 48.3037C32.6128 48.0547 30.4544 48.0547 28.2959 48.3037C27.1336 48.3868 26.0544 48.6358 24.8921 48.9679C26.0544 49.3 27.1336 49.466 28.2959 49.632C30.4544 49.8811 32.6959 49.8811 35.0204 49.632Z" fill="#214842"/>
<path d="M23.3149 55.1944C23.813 55.1944 22.5677 55.1944 40.2508 55.2774L56.6885 55.1944H57.7677C59.5111 55.0283 61.0885 53.617 61.1715 51.2925C61.1715 44.9 61.1715 48.3868 61.0055 32.3642C60.9225 29.6246 61.0885 29.1265 60.7564 28.1302C60.2583 26.7189 58.764 25.6397 57.1036 25.8057C51.6244 25.8887 46.1451 25.9717 40.7489 26.1378C46.2281 26.3038 51.6244 26.3868 57.1036 26.5529C58.5149 26.5529 59.5111 27.3 59.8432 28.3793C60.0923 29.1265 59.9262 29.4585 59.9262 32.2812L59.8432 40.5C59.8432 42.4925 59.7602 47.2246 59.7602 51.2095C59.6772 53.2019 58.3489 53.7 56.6885 53.7L40.3338 53.617L23.896 53.7C23.73 53.7 23.564 53.7 23.481 53.7C22.0696 53.534 21.3225 52.4548 21.3225 51.3755V50.3793C21.1564 34.0246 20.9904 29.4585 21.0734 28.8774C21.2394 27.5491 22.1527 26.5529 24.3111 26.5529C29.7904 26.3868 35.1866 26.3038 40.6659 26.1378C35.2696 25.9717 29.7904 25.8887 24.3111 25.7227C21.8206 25.6397 20.4093 26.968 20.1602 28.7944C20.0772 29.2095 19.9111 39.6698 19.9111 40.0849C19.8281 45.5642 19.8281 47.4736 19.8281 50.2963V51.2925C19.8281 53.2019 21.1564 54.8623 23.3149 55.1944Z" fill="#214842"/>
</svg>
