<svg width="128" height="138" viewBox="0 0 128 138" fill="none" xmlns="http://www.w3.org/2000/svg">
<path d="M121.165 5.93901C121.165 5.93901 118.488 7.42639 118.091 7.92219C117.595 8.41798 114.323 9.60787 114.323 9.60787L110.258 10.897L107.481 11.7894L103.217 13.7726C103.217 13.7726 99.3502 15.8549 98.6561 16.6482C97.962 17.4414 97.3671 18.2347 97.3671 18.2347L94.2931 21.1103C94.2931 21.1103 92.6074 22.796 92.3099 22.796C92.0125 22.8952 90.9217 23.1927 90.9217 23.1927L88.0461 23.0935L86.5587 23.2918L85.3688 22.8952C85.3688 22.8952 84.3772 22.3994 84.1789 22.3002C83.9806 22.3002 80.9067 22.8952 80.9067 22.8952L79.2209 23.391L78.0311 23.9859L76.742 24.68L76.0479 24.9775L75.0563 25.0767C74.9571 25.0767 73.7672 25.275 73.7672 25.275L72.9739 25.5725L70.3958 26.3658L69.8008 26.7624L67.6194 26.8616L66.3303 25.9691L64.6446 25.6716C64.6446 25.6716 63.9505 24.8784 63.8513 24.7792C63.7522 24.68 63.1572 24.2834 63.1572 24.2834L61.769 24.3826L61.0749 24.5809L60.1825 23.7876L59.4883 24.0851L58.6951 24.5809L57.406 24.9775C57.406 24.9775 57.0094 25.1758 56.6127 25.1758C56.2161 25.1758 55.6211 25.0767 55.6211 25.0767L55.522 24.7792C55.522 24.7792 55.522 24.68 55.3236 24.68C55.1253 24.68 55.0262 24.8784 55.0262 24.8784L54.8278 25.0767L54.4312 25.1758L54.2329 25.0767L53.7371 24.68V24.3826L53.638 24.0851L53.8363 23.8868C53.8363 23.8868 54.1338 23.7876 54.2329 23.7876C54.3321 23.7876 54.7287 23.6885 54.8278 23.6885C54.927 23.6885 55.1253 23.5893 55.1253 23.5893L55.3236 23.2918C55.3236 23.2918 55.3236 23.0935 55.4228 22.9943C55.522 22.8952 56.1169 22.8952 56.4144 22.796C56.6127 22.6969 57.8026 22.796 57.8026 22.796L58.1993 22.6969L58.6951 22.2011L58.9925 22.1019L59.0917 22.3002H59.7858L60.1825 22.1019C60.1825 22.1019 60.9757 22.0027 61.174 22.0027C61.3724 22.0027 61.9673 21.9036 62.0665 21.9036C62.1656 21.9036 62.5623 21.9036 62.5623 21.9036C62.5623 21.9036 62.6614 21.6061 62.6614 21.3086C62.6614 21.1103 62.5623 20.912 62.5623 20.912L61.9673 20.8129C61.9673 20.8129 61.4715 20.912 61.3723 20.912C61.2732 21.0112 60.7774 21.2095 60.7774 21.2095L60.3808 21.4078L59.7858 21.3086C59.7858 21.3086 59.6867 21.2095 59.6867 21.1103C59.6867 21.0112 59.7858 20.8129 59.7858 20.8129L59.885 20.6145V20.4162L59.3892 19.8213L59.1909 19.3255C59.1909 19.3255 59.0917 19.2263 59.0917 19.3255C58.9925 19.3255 58.5959 19.7221 58.5959 19.7221V20.1187L58.4967 20.5154L58.2984 20.912L57.7035 21.4078L57.3068 21.6061H56.811L56.2161 21.5069L54.8278 21.2095L54.3321 20.4162L53.5388 20.0196L52.9438 19.5238L52.1506 18.3339L51.3573 17.8381L49.4733 17.6398L48.085 16.7473L46.9943 16.3507L46.3002 15.5574C46.3002 15.5574 45.7052 14.9625 45.4077 14.8633C45.1103 14.7642 44.1187 15.0616 44.1187 15.0616H43.0279L42.1355 14.8633L40.1523 14.5658L40.549 13.3759L38.9624 13.0784L2.27363 14.8633L1.77783 112.535H2.67026L2.86857 112.337L3.0669 111.841L3.36437 111.246L4.15764 111.047L5.24839 111.841L5.64502 112.733L6.93409 113.229L7.33072 113.626H8.61979L9.3139 113.427L9.90886 112.931L10.603 113.13L11.0988 113.031L11.4954 112.337C11.4954 112.337 11.9912 112.039 12.0904 112.039C12.1895 112.039 12.6853 112.237 12.6853 112.237C12.7845 112.337 13.1811 112.931 13.1811 112.931L13.2803 113.824V114.518L14.371 115.014L16.4534 115.51L17.3458 116.501L17.1475 117.989L18.2382 119.773L19.1306 120.864L19.329 122.649C19.329 122.649 19.329 123.343 19.4281 123.442C19.5273 123.641 20.3205 124.136 20.3205 124.136L22.502 124.93L23.4936 125.128H24.4852L25.2785 124.831C25.2785 124.831 25.3777 124.434 25.9726 124.533C26.5676 124.632 26.5676 124.632 26.5676 124.632L27.2617 125.029L27.8566 125.326L29.2449 125.723L29.5423 126.12L31.0297 127.805L31.4263 128.004L31.823 128.797L32.2196 129.888L33.2112 130.086L34.302 130.483L34.7978 130.78L34.9961 130.681C34.9961 130.681 35.1944 130.582 35.2936 130.483C35.3927 130.383 35.4919 130.086 35.591 129.888C35.6902 129.689 35.7893 129.094 35.7893 129.094L35.8885 128.698C35.8885 128.698 36.7809 128.499 37.0784 128.4C37.3759 128.301 39.2599 127.706 39.2599 127.706L40.4498 128.004C40.549 128.103 41.1439 128.698 41.1439 128.698L42.6313 129.094L43.9204 129.689L44.5153 130.086C44.5153 130.086 44.912 130.879 44.912 131.078C44.912 131.276 45.1103 131.573 45.2094 131.573C45.3086 131.573 45.7052 131.474 45.7052 131.474L46.201 131.177C46.201 131.177 46.5977 130.681 46.5977 130.582C46.5977 130.483 46.5977 130.483 46.5977 130.483L47.4901 130.383L48.085 130.879H48.8783L49.6716 130.78C49.7708 130.78 50.0682 130.185 50.0682 130.185L50.1674 129.789L50.564 128.797L52.1506 128.4L52.8447 127.805L53.1422 127.012L54.0346 126.615L55.4228 126.417L56.6127 125.723L57.6043 125.624L57.9018 126.318L57.8026 127.111L57.7035 127.904L57.9018 128.797C57.9018 128.797 58.2984 129.59 58.3976 129.689C58.3976 129.789 58.5959 131.177 58.5959 131.177L58.6951 132.168L59.0917 132.664C59.0917 132.664 60.0833 132.962 60.2816 132.962C60.3807 132.962 61.9673 133.061 61.9673 133.061L62.6614 133.457L63.9505 135.242L64.9421 135.936L65.3387 136.234L65.7353 137.523L66.0328 138.316C66.0328 138.316 67.3219 138.713 67.421 138.713C67.5202 138.713 68.9084 138.713 68.9084 138.713L70.0983 138.019L71.4866 137.622L73.2714 137.82C73.2714 137.82 73.8664 137.126 73.8664 137.027C73.8664 136.928 74.263 136.234 74.263 136.234L74.3622 134.846L74.5605 133.358L74.6596 132.466L75.5521 131.375L76.742 131.474L77.4361 131.276L77.8327 130.681L77.5353 129.789L77.4361 128.797L77.6344 127.607L77.9319 126.516L77.7336 125.624L77.0395 124.93L76.742 124.136L76.9403 123.542C76.9403 123.542 78.2294 122.947 78.3285 122.847C78.4277 122.748 78.9235 122.352 78.9235 122.352L79.0227 120.765L79.3201 119.575L79.5184 119.278L80.7083 116.997L81.5016 116.6L82.0965 115.708L82.394 115.113L83.3856 115.014C83.3856 115.014 83.4848 115.609 83.5839 115.708C83.5839 115.906 83.7823 116.204 83.7823 116.204L84.4764 116.402L85.2696 116.799C85.2696 116.799 85.8646 117.394 85.9638 117.592C86.0629 117.79 86.2612 118.484 86.2612 118.484V119.079L85.8646 119.773C85.8646 119.773 85.6663 119.972 85.6663 120.071C85.6663 120.17 85.6663 120.666 85.6663 120.666L86.0629 120.864L86.6579 120.765L87.352 120.17L87.5503 119.278L87.6495 118.584L88.5419 118.187L89.0377 118.484L89.3352 118.782L89.6326 118.881V118.683C89.6326 118.683 89.6326 118.286 89.6326 118.187C89.6326 117.989 89.5335 117.691 89.4343 117.592C89.4343 117.493 89.3352 116.997 89.4343 116.898C89.5335 116.799 89.9301 116.501 89.9301 116.501V116.204V115.906L89.4343 115.212L89.1368 114.915L88.9385 114.518L88.7402 114.121L88.641 113.824L88.8394 113.229L89.5335 113.031L90.0293 112.832L90.2276 112.634L90.3268 111.642V110.75C90.3268 110.75 90.2276 110.453 90.1284 110.155C90.1284 109.858 90.3268 109.263 90.3268 109.263L90.7234 109.064L91.9133 108.073L92.2108 107.874V106.982L92.1116 106.585L92.3099 105.891L93.7973 105.792L94.4914 105.891L94.7889 106.09C94.9872 106.09 95.3839 105.99 95.3839 105.99V105.296V104.8L95.5822 104.404V104.206V103.511C95.5822 103.511 95.7805 103.115 95.8797 103.016C95.9788 102.916 96.8713 102.222 96.8713 102.222L97.4662 101.627L97.8628 101.33C97.8628 101.33 98.3586 100.636 98.4578 100.636C98.5569 100.636 99.2511 100.735 99.2511 100.735C99.2511 100.735 99.4494 100.933 99.5485 101.032C99.6477 101.231 100.243 101.727 100.243 101.826C100.243 101.925 100.54 102.718 100.54 102.718L100.937 103.214H101.532L102.127 102.817L102.523 102.52L103.217 101.925L104.011 101.627H104.903H105.696C105.696 101.627 105.994 101.33 106.093 101.032C106.192 100.834 106.291 100.041 106.291 100.041L107.184 99.7434L108.374 99.1484L109.464 96.7686C109.464 96.7686 110.159 95.8762 110.159 95.777C110.258 95.6778 111.844 94.3888 111.844 94.3888L113.332 93.298L114.72 93.0997L115.315 92.2073L115.513 91.3149L115.91 89.9266L116.505 89.6291V89.0342L116.108 88.0426L115.811 87.2493L116.505 86.2577L117.199 85.8611L117.298 84.8695V84.1754L117.695 83.6796L117.496 82.7872V81.9939L118.19 81.6964H118.587L118.885 81.4981V80.804L118.984 80.0107L119.281 79.4158L119.38 78.0275L119.777 77.1351L119.38 76.1435L119.579 75.8461L120.074 75.4494L120.372 74.9536L120.769 72.5738L121.463 71.8797L121.859 71.2847L121.958 69.3016C121.958 69.3016 122.355 68.9049 122.355 68.8058C122.355 68.7066 122.851 68.31 122.851 68.31C122.851 68.31 122.95 67.9133 122.95 67.6158C123.049 67.3184 123.248 66.7234 123.248 66.6243C123.248 66.5251 123.347 66.1285 123.347 66.1285L123.148 65.0377V64.3436L122.752 63.4512L122.653 62.9554L123.248 61.9638L123.644 60.7739L123.446 60.0798L123.049 59.3857C123.049 59.3857 122.653 58.5924 122.653 58.4932C122.653 58.3941 122.355 57.6008 122.355 57.6008L121.958 57.105L121.859 56.8075L122.157 55.8159L122.95 54.9235H123.743L124.041 55.0227L124.735 55.1218L125.627 54.7252L126.222 54.4277V2.66675L121.165 5.93901Z" fill="#FAFAF5" stroke="#72C173" stroke-width="2"/>
<path d="M46.7961 77.7C46.7961 78.648 47.0001 79.494 47.4081 80.238C47.8281 80.982 48.3981 81.57 49.1181 82.002C49.8381 82.434 50.6541 82.65 51.5661 82.65C52.4901 82.65 53.3061 82.434 54.0141 82.002C54.7341 81.57 55.2981 80.982 55.7061 80.238C56.1261 79.494 56.3361 78.648 56.3361 77.7C56.3361 76.752 56.1261 75.906 55.7061 75.162C55.2981 74.418 54.7341 73.83 54.0141 73.398C53.3061 72.966 52.4901 72.75 51.5661 72.75C50.6541 72.75 49.8381 72.966 49.1181 73.398C48.3981 73.83 47.8281 74.418 47.4081 75.162C47.0001 75.906 46.7961 76.752 46.7961 77.7ZM45.1761 77.7C45.1761 76.776 45.3321 75.924 45.6441 75.144C45.9681 74.352 46.4181 73.668 46.9941 73.092C47.5701 72.504 48.2481 72.048 49.0281 71.724C49.8081 71.388 50.6541 71.22 51.5661 71.22C52.4901 71.22 53.3361 71.388 54.1041 71.724C54.8841 72.048 55.5621 72.504 56.1381 73.092C56.7141 73.668 57.1581 74.352 57.4701 75.144C57.7941 75.924 57.9561 76.776 57.9561 77.7C57.9561 78.612 57.7941 79.464 57.4701 80.256C57.1581 81.048 56.7141 81.738 56.1381 82.326C55.5621 82.902 54.8841 83.358 54.1041 83.694C53.3361 84.018 52.4901 84.18 51.5661 84.18C50.6541 84.18 49.8081 84.018 49.0281 83.694C48.2481 83.358 47.5701 82.902 46.9941 82.326C46.4181 81.738 45.9681 81.048 45.6441 80.256C45.3321 79.464 45.1761 78.612 45.1761 77.7ZM60.9628 77.88V76.44H69.6028V77.88H60.9628ZM68.5768 71.4H70.1068V84H68.5768V71.4ZM60.1168 71.4H61.6468V84H60.1168V71.4Z" fill="#214842"/>
<path d="M63.0579 19.028H63.4545H63.6529L64.0495 18.6314L63.8512 18.1356L63.752 18.0364L62.7604 17.9373L62.3638 18.1356V18.4331L62.9587 18.8297L63.0579 19.028Z" fill="white"/>
<path d="M59.5876 17.4415C59.6868 17.3424 59.7859 17.144 59.7859 17.144V16.6482L59.4885 16.5491L59.191 16.6482L58.9927 16.9457L59.191 17.5407C59.3893 17.5407 59.5876 17.5407 59.5876 17.4415Z" fill="white"/>
<path d="M59.8848 15.0617C59.7857 15.26 59.6865 15.5575 59.6865 15.5575L59.8848 16.0533L60.0832 16.2516C60.0832 16.2516 60.3806 15.855 60.3806 15.7558C60.3806 15.6566 60.3806 15.1608 60.3806 15.1608C60.3806 15.1608 60.3806 14.9625 60.2815 14.9625C60.0831 14.9625 59.984 14.8634 59.8848 15.0617Z" fill="white"/>
<path d="M59.885 14.4668C59.9842 14.2684 60.0833 13.6735 60.0833 13.6735C60.0833 13.6735 59.5875 13.5743 59.4884 13.6735C59.3892 13.7726 59.3892 13.6735 59.29 13.8718C59.29 14.0701 59.5875 14.8634 59.5875 14.8634C59.5875 14.8634 59.7858 14.7642 59.885 14.4668Z" fill="white"/>
</svg>
