<svg width="141" height="140" viewBox="0 0 141 140" fill="none" xmlns="http://www.w3.org/2000/svg">
<path d="M126.286 70.5829L125.246 59.1618L130.39 52.9159L129.616 44.3502L123.686 42.0191L123.166 36.2974L116.97 31.1111L20.6162 40.0338L19.8307 31.468L3.61133 41.6176L9.59678 107.333L114.458 97.6187L117.036 94.4958L128.366 93.4473L135.834 81.2232L126.286 70.5829Z" fill="#FAFAF5" stroke="#72C173" stroke-width="2"/>
<path d="M60.2007 61.4H61.7307V74H60.2007V61.4ZM61.0467 62.84V61.4H63.6207C64.4367 61.4 65.1627 61.556 65.7987 61.868C66.4467 62.168 66.9567 62.6 67.3287 63.164C67.7127 63.728 67.9047 64.4 67.9047 65.18C67.9047 65.948 67.7127 66.62 67.3287 67.196C66.9567 67.76 66.4467 68.198 65.7987 68.51C65.1627 68.81 64.4367 68.96 63.6207 68.96H61.0467V67.52H63.6207C64.4367 67.52 65.0967 67.322 65.6007 66.926C66.1167 66.53 66.3747 65.948 66.3747 65.18C66.3747 64.4 66.1167 63.818 65.6007 63.434C65.0967 63.038 64.4367 62.84 63.6207 62.84H61.0467ZM70.0024 70.22L70.5424 68.78H76.1224L76.6624 70.22H70.0024ZM73.2964 64.244L71.1724 69.248L71.0284 69.572L69.1564 74H67.4464L73.2964 60.77L79.1464 74H77.4364L75.6004 69.68L75.4564 69.32L73.2964 64.244Z" fill="#214842"/>
</svg>
