<svg width="80" height="80" viewBox="0 0 80 80" fill="none" xmlns="http://www.w3.org/2000/svg">
<circle cx="40" cy="40" r="39" fill="#FAFAF5" stroke="#72C173" stroke-width="2"/>
<path d="M23.4396 27.5139C23.5944 27.3179 23.5609 27.0336 23.3643 26.8794C22.6174 26.2902 21.798 25.7904 20.9304 25.3937C20.7055 25.2889 20.4354 25.389 20.3318 25.6168C20.2276 25.8434 20.3276 26.1118 20.5549 26.2154C21.3565 26.5827 22.1141 27.0448 22.8051 27.5892C22.9987 27.7427 23.2848 27.7118 23.4396 27.5139Z" fill="#214842"/>
<path d="M23.9919 25.8293C24.1301 26.0347 24.4105 26.0914 24.6193 25.9506C24.8265 25.811 24.8807 25.5297 24.7406 25.3231L23.2043 23.0499C23.0654 22.8427 22.7841 22.7885 22.5769 22.9286C22.3702 23.0681 22.3155 23.3489 22.4556 23.5561L23.9919 25.8293Z" fill="#214842"/>
<path d="M25.917 24.8634C26.156 24.8634 26.3561 24.6756 26.3679 24.4337L26.4667 22.4224C26.4791 22.1728 26.2866 21.9609 26.0376 21.9486C25.7857 21.9356 25.5756 22.1281 25.5638 22.3777L25.4649 24.389C25.4522 24.6463 25.6572 24.8634 25.917 24.8634Z" fill="#214842"/>
<path d="M33.4504 41.1085C33.5671 40.2239 33.3625 39.1462 33.4651 38.3638C33.4975 38.1189 33.3274 37.8935 33.0825 37.8576C31.8635 37.6793 30.6298 37.6951 29.4137 37.9053C29.1812 37.9453 29.0188 38.1578 29.0405 38.3932C29.1166 39.1965 29.133 40.372 29.2112 41.2103C29.2362 41.4703 29.4753 41.6521 29.7216 41.6159C30.6802 41.4881 32.0086 41.6383 33.0625 41.4976C33.265 41.4705 33.4239 41.311 33.4504 41.1085ZM30.0765 40.6747C30.0354 40.0255 30.0152 39.3418 29.9747 38.734C30.8234 38.621 31.6822 38.6087 32.5334 38.6993C32.5132 39.3368 32.6031 40.0549 32.5822 40.6376C31.8154 40.6906 30.8872 40.623 30.0765 40.6747Z" fill="#214842"/>
<path d="M37.1012 37.6074C36.8687 37.6475 36.7063 37.86 36.728 38.0954C36.7669 38.5057 36.7892 38.9942 36.8116 39.4822C36.8794 40.9334 36.8695 41.0673 37.0671 41.2239C37.1672 41.3041 37.2957 41.3346 37.4085 41.3181C38.4099 41.1844 39.6586 41.3459 40.7494 41.1997C40.9519 41.1727 41.1108 41.0132 41.1373 40.8107C41.254 39.9261 41.0494 38.8484 41.152 38.066C41.1844 37.8211 41.0143 37.5957 40.7694 37.5598C39.551 37.3808 38.3179 37.3973 37.1012 37.6074Z" fill="#72C173"/>
<path d="M37.4269 44.3223C37.4593 44.0775 37.2892 43.852 37.0443 43.8161C35.8236 43.6372 34.5904 43.6537 33.3761 43.8632C33.1436 43.9033 32.9812 44.1157 33.0029 44.3506C33.0793 45.1671 33.0942 46.3204 33.173 47.1689C33.1981 47.4291 33.437 47.6107 33.6834 47.5744C34.6706 47.4428 35.9531 47.5987 37.0243 47.4555C37.2268 47.4285 37.3857 47.2689 37.4122 47.0665C37.5289 46.1818 37.3243 45.1048 37.4269 44.3223ZM34.0383 46.6332C33.9988 46.0238 33.979 45.3259 33.9365 44.692C34.7853 44.579 35.6429 44.5678 36.4952 44.6579C36.4754 45.2803 36.5645 46.0238 36.544 46.5956C36.1514 46.6232 34.8799 46.5807 34.0383 46.6332Z" fill="#214842"/>
<path d="M41.3665 46.924C41.3918 47.1873 41.6336 47.3653 41.8768 47.3296C42.845 47.2003 44.1495 47.3529 45.2178 47.2113C45.4203 47.1842 45.5792 47.0247 45.6057 46.8222C45.7224 45.9376 45.5178 44.8599 45.6204 44.0775C45.6528 43.8326 45.4827 43.6072 45.2378 43.5713C44.0176 43.3929 42.7839 43.4088 41.569 43.6184C41.3365 43.6584 41.174 43.8709 41.1958 44.1063C41.2719 44.9102 41.2882 46.0852 41.3665 46.924ZM44.6886 44.413C44.6684 45.0505 44.7583 45.7685 44.7375 46.3513C43.9906 46.404 43.0362 46.337 42.2318 46.3884C42.1911 45.7446 42.1701 45.0489 42.1299 44.4471C42.9799 44.3341 43.8369 44.3229 44.6886 44.413Z" fill="#214842"/>
<path d="M45.5109 40.9643C45.611 41.0446 45.7396 41.0751 45.8523 41.0585C46.8731 40.9238 48.0981 41.087 49.1927 40.9402C49.3958 40.9131 49.5547 40.7536 49.5812 40.5511C49.6976 39.6672 49.4934 38.5882 49.5959 37.8064C49.6283 37.5615 49.4582 37.3361 49.2133 37.3002C47.9925 37.1213 46.7594 37.1377 45.5451 37.3473C45.3126 37.3873 45.1501 37.5998 45.1719 37.8352C45.2107 38.2455 45.2331 38.7341 45.2555 39.2226C45.3233 40.6738 45.3133 40.8077 45.5109 40.9643ZM48.6641 38.1419C48.6438 38.7816 48.7339 39.4954 48.713 40.0802C47.9486 40.1328 47.037 40.0657 46.2072 40.1173C46.1682 39.5004 46.1469 38.7901 46.106 38.176C46.9542 38.063 47.8118 38.0518 48.6641 38.1419Z" fill="#214842"/>
<path d="M56.983 49.7629C56.8359 49.561 56.5534 49.5163 56.3515 49.6646C54.9052 50.7206 53.4325 51.8395 52.3354 52.932C51.5838 51.9399 51.3678 51.6585 50.9121 51.0525C50.7626 50.8536 50.48 50.8124 50.2793 50.9625C50.0798 51.1126 50.0392 51.3957 50.1893 51.5952C50.7317 52.3182 51.3264 53.0939 51.9316 53.8985C52.1001 54.1223 52.432 54.1427 52.625 53.9338C53.6933 52.7772 55.3037 51.5493 56.8847 50.3945C57.086 50.2473 57.1302 49.9648 56.983 49.7629Z" fill="#72C173"/>
<path d="M54.882 45.3932C54.5782 28.8549 54.701 29.2671 54.2384 28.1196C54.0132 27.5609 53.4469 26.7343 52.7845 26.5752C51.9581 26.1098 51.4161 26.3624 50.1414 26.319C49.624 24.1092 47.8089 23.2659 46.4763 23.8516C45.5767 24.2454 44.9352 25.3016 44.8682 26.4174L41.576 26.4789C41.1416 24.0949 39.2491 23.1664 37.8655 23.7745C36.9023 24.1962 36.241 25.3775 36.2583 26.5781L33.0471 26.6381C32.6669 24.2045 30.7516 23.1809 29.3153 23.8121C28.3194 24.2481 27.6421 25.4958 27.7086 26.7377C27.1459 26.8116 25.9816 26.5031 25.0208 27.5039C24.808 27.7251 24.6469 27.9813 24.5314 28.256C24.4846 28.3118 24.4464 28.3752 24.431 28.4516C23.232 34.4013 22.4179 40.8884 21.7487 46.5014C21.7345 46.6232 21.7698 46.7463 21.8481 46.8416C23.078 48.3436 24.093 49.0565 24.9136 49.8059C24.9347 49.8251 24.9603 49.8345 24.9837 49.849C25.1474 50.0871 25.4321 50.2488 25.7907 50.2856C28.139 50.5099 30.418 50.6515 32.7324 50.7196C37.5524 51.1214 42.3862 51.3601 47.2162 51.2864C47.127 53.0569 47.7717 54.6449 48.9206 55.8279C50.9164 58.4664 54.6008 58.6554 57.0194 56.9333C58.839 55.6376 59.8627 53.334 59.6905 51.1068C59.4859 48.4621 57.5559 45.9408 54.882 45.3932ZM53.2777 56.7756C50.4565 56.7756 48.149 54.5141 48.1067 51.6788C48.0629 48.8197 50.343 46.471 53.2018 46.4284C55.9768 46.3667 58.409 48.616 58.4534 51.5238C58.4965 54.4007 56.1709 56.7756 53.2777 56.7756ZM53.4991 45.295C51.192 45.3883 48.6532 46.853 47.652 49.304C39.1219 50.0241 32.8086 50.0481 25.8795 49.3856C25.7854 49.3762 25.7383 49.3456 25.7347 49.3456L25.3598 34.1045C42.3899 33.727 44.5462 33.9019 53.1569 33.6898L53.4991 45.295ZM24.7433 45.8164L22.7217 45.9861C23.1931 42.0488 23.7397 37.7216 24.4395 33.4702L24.7433 45.8164ZM46.8389 24.6791C47.6076 24.3436 48.7653 24.8012 49.2082 26.3365L45.7766 26.4005C45.8433 25.6439 46.2662 24.9302 46.8389 24.6791ZM38.2281 24.602C39.0705 24.2351 40.2942 24.8307 40.661 26.496L37.1599 26.5613C37.148 25.7206 37.5955 24.8794 38.2281 24.602ZM29.6779 24.6397C30.539 24.2638 31.8004 24.8921 32.1321 26.6551L28.6105 26.7208C28.5501 25.8409 29.0147 24.9305 29.6779 24.6397ZM26.753 27.6599L32.2005 27.5582C32.165 28.552 31.7648 29.4405 31.1587 30.0898C30.5317 29.8268 29.9713 30.4291 30.073 31.1355C30.151 31.6776 30.5879 32.0634 31.0488 31.997C31.4921 31.9333 31.8555 31.4421 31.7254 30.8232C32.5224 30.0252 33.0692 28.8571 33.1044 27.5414L40.7521 27.3987C40.746 28.4738 40.316 29.4306 39.6536 30.1085C39.5178 30.0412 39.3683 30.0094 39.2148 30.0315C38.7538 30.0978 38.4434 30.5911 38.5214 31.1332C38.5994 31.6753 39.0363 32.0611 39.4972 31.9947C39.9376 31.9314 40.2818 31.4548 40.185 30.8691C41.0585 30.0439 41.6525 28.7926 41.6561 27.3818L49.3589 27.2381C49.4167 28.3433 49.0258 29.3477 48.3661 30.082C48.2224 30.003 48.0608 29.9668 47.8955 29.9906C47.4345 30.0569 47.1241 30.5501 47.2021 31.0923C47.2801 31.6344 47.717 32.0201 48.178 31.9538C48.6322 31.8884 48.9385 31.4081 48.8726 30.8753C49.5715 30.1816 50.0552 29.2256 50.2146 28.1973C50.265 27.874 50.28 27.5457 50.2653 27.2211C50.3325 27.2199 51.6439 27.1937 51.7314 27.1937C52.4119 27.1937 52.9793 27.7429 53.0016 28.428L53.1302 32.7858C45.3888 32.9778 28.8601 32.9415 25.3377 33.2077L25.2403 29.2474C25.2185 28.3845 25.897 27.6721 26.753 27.6599ZM23.0689 46.8639L24.7656 46.7215L24.8098 48.5172C24.2879 48.0724 23.7089 47.5663 23.0689 46.8639Z" fill="#214842"/>
</svg>
