<svg width="80" height="80" viewBox="0 0 80 80" fill="none" xmlns="http://www.w3.org/2000/svg">
<circle cx="40" cy="40" r="39" fill="#FAFAF5" stroke="#72C173" stroke-width="2"/>
<mask id="path-2-outside-1_320_555" maskUnits="userSpaceOnUse" x="41" y="21.6667" width="17" height="17" fill="black">
<rect fill="white" x="41" y="21.6667" width="17" height="17"/>
<path d="M43.7098 37.5969C43.6576 37.8039 43.8838 37.9702 44.0659 37.8605C45.8512 36.7802 47.5987 35.606 49.2594 34.3699L53.1774 34.4528C55.9965 34.507 56.7835 33.5983 56.8142 31.1036L56.8885 26.5611C56.9316 24.0765 56.2702 23.0465 53.292 22.9301C51.2939 22.8452 49.2967 22.7609 47.2943 22.6808C44.1019 22.5447 42.1924 23.3446 42.2375 27.0288C42.2476 27.5858 41.9629 30.2663 42.0041 31.1104C42.0669 32.5276 42.7671 33.7425 44.2418 34.1231C44.18 35.2345 44.0257 36.3402 43.7098 37.5969ZM52.2218 32.5204L52.7677 33.0663L52.1671 33.6668L51.6212 33.1209L52.2218 32.5204ZM52.019 33.8576C52.0157 33.8906 52.0233 33.9232 52.0473 33.9496L50.8189 33.9237L51.4521 33.2906L52.019 33.8576ZM49.6768 33.8993L49.9883 33.5877L50.3133 33.9127L49.6768 33.8993ZM52.3929 33.9568C52.3962 33.9223 52.3886 33.8878 52.3622 33.8614L52.3368 33.836L52.9373 33.2355L53.4665 33.7646C53.5072 33.8058 53.5724 33.8163 53.6284 33.7679C53.5724 33.824 53.4693 33.9055 53.4679 33.9769C53.3739 33.9764 53.2795 33.9759 53.1875 33.974L52.3929 33.9568ZM54.3895 31.7833L55.0016 32.3953L54.4782 32.9187L53.8662 32.3066L54.3895 31.7833ZM54.3081 33.0878L53.639 33.7569C53.6797 33.7099 53.6807 33.64 53.6356 33.5949L53.1065 33.0658L53.6965 32.4758L54.3081 33.0878ZM54.4777 33.2575L55.0064 33.7861C54.6263 33.9156 54.1954 33.9616 53.7622 33.9726L54.4777 33.2575ZM56.3239 31.5034C56.3201 31.4794 56.3148 31.4545 56.2961 31.4363L55.8796 31.0198L56.344 30.5553L56.3349 31.0969C56.333 31.234 56.3292 31.3696 56.3239 31.5034ZM56.3507 28.1053C56.3603 28.1134 56.3723 28.1144 56.3833 28.1187L56.3694 28.9733C56.3651 28.9503 56.3603 28.9263 56.3426 28.9086L55.9448 28.5108L56.3507 28.1053ZM56.3675 29.0854C56.3632 29.0739 56.3613 29.0619 56.3536 29.0514C56.3603 29.0394 56.3661 29.0279 56.3689 29.0145L56.3675 29.0854ZM56.3665 29.1645L56.3531 29.9879C56.3483 29.9668 56.345 29.9448 56.3287 29.9285L55.9788 29.5786C56.0296 29.5263 56.3416 29.2273 56.3665 29.1645ZM42.4824 31.0883C42.4441 30.2812 42.7268 27.6207 42.7168 27.0226C42.6755 23.7094 44.2739 23.0322 47.2747 23.1606C49.2771 23.2406 51.2742 23.325 53.2723 23.4098C55.9731 23.5153 56.448 24.3291 56.4092 26.5534V26.5539L56.3891 27.777C56.3804 27.777 56.3733 27.7847 56.3651 27.7871L56.0919 27.5139C56.045 27.4669 55.9692 27.4669 55.9223 27.5139C55.8753 27.5608 55.8753 27.6366 55.9223 27.683L56.1787 27.9395L55.7459 28.3718C55.7071 28.4101 55.7085 28.4662 55.7334 28.5117C55.7085 28.5572 55.7071 28.6128 55.7459 28.6517L56.1561 29.0619L55.8082 29.4099L55.7828 29.3845C55.7353 29.3375 55.6596 29.338 55.6131 29.3845C55.5662 29.4314 55.5662 29.5072 55.6131 29.5541L55.6385 29.5795L55.3711 29.847C55.3241 29.8939 55.3241 29.9697 55.3711 30.0162C55.4176 30.0627 55.4933 30.0631 55.5408 30.0162L55.8082 29.7487L56.1581 30.0986C56.2046 30.1451 56.2803 30.1456 56.3277 30.0986C56.3435 30.0828 56.3464 30.0612 56.3517 30.0411L56.3488 30.2117L55.7095 30.8511L55.2992 30.4408C55.2522 30.3938 55.1765 30.3938 55.1295 30.4408C55.0826 30.4878 55.0826 30.5635 55.1295 30.6105L55.5398 31.0207L55.1295 31.4315C55.0826 31.4784 55.0826 31.5542 55.1295 31.6007C55.176 31.6471 55.2518 31.6476 55.2992 31.6007L55.7095 31.1904L56.126 31.6069C56.1724 31.6534 56.2482 31.6538 56.2951 31.6069C56.3124 31.5896 56.3167 31.5666 56.321 31.5441C56.2788 32.4806 56.0958 33.2882 55.2494 33.6922L54.6464 33.0893L55.1698 32.5659L55.6189 33.0145C55.6654 33.061 55.7411 33.0615 55.7885 33.0145C55.8355 32.9675 55.8355 32.8918 55.7885 32.8449L55.3399 32.3962L55.8724 31.8638C55.9194 31.8168 55.9194 31.7411 55.8724 31.6941C55.8254 31.6471 55.7497 31.6471 55.7028 31.6941L55.1703 32.2266L54.5582 31.6145L54.6503 31.5225C54.6972 31.4756 54.6972 31.3998 54.6503 31.3533C54.6033 31.3064 54.5276 31.3064 54.4806 31.3533L54.3306 31.5034C54.3181 31.5091 54.3033 31.5086 54.2932 31.5187C54.2827 31.5292 54.2836 31.5436 54.2779 31.5561L53.696 32.1379L53.3409 31.7828C53.2939 31.7358 53.2182 31.7358 53.1712 31.7828C53.1242 31.8297 53.1242 31.9055 53.1712 31.9524L53.5264 32.3076L52.9364 32.8976L52.3905 32.3517L52.6061 32.136C52.6531 32.089 52.6531 32.0133 52.6061 31.9663C52.5592 31.9194 52.4835 31.9194 52.4365 31.9663L52.1887 32.2141C52.1619 32.2165 52.1345 32.2242 52.1139 32.2453C52.0933 32.2659 52.0852 32.2932 52.0828 32.32L51.4501 32.9527L51.2488 32.7514C51.2019 32.7044 51.1261 32.7044 51.0792 32.7514C51.0322 32.7984 51.0322 32.8741 51.0792 32.9206L51.2805 33.1219L50.5697 33.8326L50.1561 33.419L50.8923 32.6829C50.9392 32.6359 50.9392 32.5602 50.8923 32.5132C50.8453 32.4662 50.7696 32.4662 50.7226 32.5132L49.9864 33.2494L49.8618 33.1247C49.8148 33.0778 49.7391 33.0778 49.6922 33.1247C49.6452 33.1717 49.6452 33.2474 49.6922 33.2944L49.8168 33.419L49.4472 33.7885L49.2239 33.5652C49.1769 33.5182 49.1012 33.5182 49.0542 33.5652C49.0073 33.6122 49.0073 33.6879 49.0542 33.7349L49.2095 33.8902L49.1846 33.8897C49.1467 33.8878 49.0787 33.9055 49.036 33.9371C47.5196 35.0687 45.9308 36.1485 44.3046 37.1521C44.5433 36.0723 44.6679 35.1022 44.7201 34.102C44.7417 33.9108 44.7245 33.7392 44.5351 33.7004C43.1759 33.4209 42.5409 32.3948 42.4824 31.0883Z"/>
</mask>
<path d="M43.7098 37.5969C43.6576 37.8039 43.8838 37.9702 44.0659 37.8605C45.8512 36.7802 47.5987 35.606 49.2594 34.3699L53.1774 34.4528C55.9965 34.507 56.7835 33.5983 56.8142 31.1036L56.8885 26.5611C56.9316 24.0765 56.2702 23.0465 53.292 22.9301C51.2939 22.8452 49.2967 22.7609 47.2943 22.6808C44.1019 22.5447 42.1924 23.3446 42.2375 27.0288C42.2476 27.5858 41.9629 30.2663 42.0041 31.1104C42.0669 32.5276 42.7671 33.7425 44.2418 34.1231C44.18 35.2345 44.0257 36.3402 43.7098 37.5969ZM52.2218 32.5204L52.7677 33.0663L52.1671 33.6668L51.6212 33.1209L52.2218 32.5204ZM52.019 33.8576C52.0157 33.8906 52.0233 33.9232 52.0473 33.9496L50.8189 33.9237L51.4521 33.2906L52.019 33.8576ZM49.6768 33.8993L49.9883 33.5877L50.3133 33.9127L49.6768 33.8993ZM52.3929 33.9568C52.3962 33.9223 52.3886 33.8878 52.3622 33.8614L52.3368 33.836L52.9373 33.2355L53.4665 33.7646C53.5072 33.8058 53.5724 33.8163 53.6284 33.7679C53.5724 33.824 53.4693 33.9055 53.4679 33.9769C53.3739 33.9764 53.2795 33.9759 53.1875 33.974L52.3929 33.9568ZM54.3895 31.7833L55.0016 32.3953L54.4782 32.9187L53.8662 32.3066L54.3895 31.7833ZM54.3081 33.0878L53.639 33.7569C53.6797 33.7099 53.6807 33.64 53.6356 33.5949L53.1065 33.0658L53.6965 32.4758L54.3081 33.0878ZM54.4777 33.2575L55.0064 33.7861C54.6263 33.9156 54.1954 33.9616 53.7622 33.9726L54.4777 33.2575ZM56.3239 31.5034C56.3201 31.4794 56.3148 31.4545 56.2961 31.4363L55.8796 31.0198L56.344 30.5553L56.3349 31.0969C56.333 31.234 56.3292 31.3696 56.3239 31.5034ZM56.3507 28.1053C56.3603 28.1134 56.3723 28.1144 56.3833 28.1187L56.3694 28.9733C56.3651 28.9503 56.3603 28.9263 56.3426 28.9086L55.9448 28.5108L56.3507 28.1053ZM56.3675 29.0854C56.3632 29.0739 56.3613 29.0619 56.3536 29.0514C56.3603 29.0394 56.3661 29.0279 56.3689 29.0145L56.3675 29.0854ZM56.3665 29.1645L56.3531 29.9879C56.3483 29.9668 56.345 29.9448 56.3287 29.9285L55.9788 29.5786C56.0296 29.5263 56.3416 29.2273 56.3665 29.1645ZM42.4824 31.0883C42.4441 30.2812 42.7268 27.6207 42.7168 27.0226C42.6755 23.7094 44.2739 23.0322 47.2747 23.1606C49.2771 23.2406 51.2742 23.325 53.2723 23.4098C55.9731 23.5153 56.448 24.3291 56.4092 26.5534V26.5539L56.3891 27.777C56.3804 27.777 56.3733 27.7847 56.3651 27.7871L56.0919 27.5139C56.045 27.4669 55.9692 27.4669 55.9223 27.5139C55.8753 27.5608 55.8753 27.6366 55.9223 27.683L56.1787 27.9395L55.7459 28.3718C55.7071 28.4101 55.7085 28.4662 55.7334 28.5117C55.7085 28.5572 55.7071 28.6128 55.7459 28.6517L56.1561 29.0619L55.8082 29.4099L55.7828 29.3845C55.7353 29.3375 55.6596 29.338 55.6131 29.3845C55.5662 29.4314 55.5662 29.5072 55.6131 29.5541L55.6385 29.5795L55.3711 29.847C55.3241 29.8939 55.3241 29.9697 55.3711 30.0162C55.4176 30.0627 55.4933 30.0631 55.5408 30.0162L55.8082 29.7487L56.1581 30.0986C56.2046 30.1451 56.2803 30.1456 56.3277 30.0986C56.3435 30.0828 56.3464 30.0612 56.3517 30.0411L56.3488 30.2117L55.7095 30.8511L55.2992 30.4408C55.2522 30.3938 55.1765 30.3938 55.1295 30.4408C55.0826 30.4878 55.0826 30.5635 55.1295 30.6105L55.5398 31.0207L55.1295 31.4315C55.0826 31.4784 55.0826 31.5542 55.1295 31.6007C55.176 31.6471 55.2518 31.6476 55.2992 31.6007L55.7095 31.1904L56.126 31.6069C56.1724 31.6534 56.2482 31.6538 56.2951 31.6069C56.3124 31.5896 56.3167 31.5666 56.321 31.5441C56.2788 32.4806 56.0958 33.2882 55.2494 33.6922L54.6464 33.0893L55.1698 32.5659L55.6189 33.0145C55.6654 33.061 55.7411 33.0615 55.7885 33.0145C55.8355 32.9675 55.8355 32.8918 55.7885 32.8449L55.3399 32.3962L55.8724 31.8638C55.9194 31.8168 55.9194 31.7411 55.8724 31.6941C55.8254 31.6471 55.7497 31.6471 55.7028 31.6941L55.1703 32.2266L54.5582 31.6145L54.6503 31.5225C54.6972 31.4756 54.6972 31.3998 54.6503 31.3533C54.6033 31.3064 54.5276 31.3064 54.4806 31.3533L54.3306 31.5034C54.3181 31.5091 54.3033 31.5086 54.2932 31.5187C54.2827 31.5292 54.2836 31.5436 54.2779 31.5561L53.696 32.1379L53.3409 31.7828C53.2939 31.7358 53.2182 31.7358 53.1712 31.7828C53.1242 31.8297 53.1242 31.9055 53.1712 31.9524L53.5264 32.3076L52.9364 32.8976L52.3905 32.3517L52.6061 32.136C52.6531 32.089 52.6531 32.0133 52.6061 31.9663C52.5592 31.9194 52.4835 31.9194 52.4365 31.9663L52.1887 32.2141C52.1619 32.2165 52.1345 32.2242 52.1139 32.2453C52.0933 32.2659 52.0852 32.2932 52.0828 32.32L51.4501 32.9527L51.2488 32.7514C51.2019 32.7044 51.1261 32.7044 51.0792 32.7514C51.0322 32.7984 51.0322 32.8741 51.0792 32.9206L51.2805 33.1219L50.5697 33.8326L50.1561 33.419L50.8923 32.6829C50.9392 32.6359 50.9392 32.5602 50.8923 32.5132C50.8453 32.4662 50.7696 32.4662 50.7226 32.5132L49.9864 33.2494L49.8618 33.1247C49.8148 33.0778 49.7391 33.0778 49.6922 33.1247C49.6452 33.1717 49.6452 33.2474 49.6922 33.2944L49.8168 33.419L49.4472 33.7885L49.2239 33.5652C49.1769 33.5182 49.1012 33.5182 49.0542 33.5652C49.0073 33.6122 49.0073 33.6879 49.0542 33.7349L49.2095 33.8902L49.1846 33.8897C49.1467 33.8878 49.0787 33.9055 49.036 33.9371C47.5196 35.0687 45.9308 36.1485 44.3046 37.1521C44.5433 36.0723 44.6679 35.1022 44.7201 34.102C44.7417 33.9108 44.7245 33.7392 44.5351 33.7004C43.1759 33.4209 42.5409 32.3948 42.4824 31.0883Z" fill="#72C173"/>
<path d="M43.7098 37.5969C43.6576 37.8039 43.8838 37.9702 44.0659 37.8605C45.8512 36.7802 47.5987 35.606 49.2594 34.3699L53.1774 34.4528C55.9965 34.507 56.7835 33.5983 56.8142 31.1036L56.8885 26.5611C56.9316 24.0765 56.2702 23.0465 53.292 22.9301C51.2939 22.8452 49.2967 22.7609 47.2943 22.6808C44.1019 22.5447 42.1924 23.3446 42.2375 27.0288C42.2476 27.5858 41.9629 30.2663 42.0041 31.1104C42.0669 32.5276 42.7671 33.7425 44.2418 34.1231C44.18 35.2345 44.0257 36.3402 43.7098 37.5969ZM52.2218 32.5204L52.7677 33.0663L52.1671 33.6668L51.6212 33.1209L52.2218 32.5204ZM52.019 33.8576C52.0157 33.8906 52.0233 33.9232 52.0473 33.9496L50.8189 33.9237L51.4521 33.2906L52.019 33.8576ZM49.6768 33.8993L49.9883 33.5877L50.3133 33.9127L49.6768 33.8993ZM52.3929 33.9568C52.3962 33.9223 52.3886 33.8878 52.3622 33.8614L52.3368 33.836L52.9373 33.2355L53.4665 33.7646C53.5072 33.8058 53.5724 33.8163 53.6284 33.7679C53.5724 33.824 53.4693 33.9055 53.4679 33.9769C53.3739 33.9764 53.2795 33.9759 53.1875 33.974L52.3929 33.9568ZM54.3895 31.7833L55.0016 32.3953L54.4782 32.9187L53.8662 32.3066L54.3895 31.7833ZM54.3081 33.0878L53.639 33.7569C53.6797 33.7099 53.6807 33.64 53.6356 33.5949L53.1065 33.0658L53.6965 32.4758L54.3081 33.0878ZM54.4777 33.2575L55.0064 33.7861C54.6263 33.9156 54.1954 33.9616 53.7622 33.9726L54.4777 33.2575ZM56.3239 31.5034C56.3201 31.4794 56.3148 31.4545 56.2961 31.4363L55.8796 31.0198L56.344 30.5553L56.3349 31.0969C56.333 31.234 56.3292 31.3696 56.3239 31.5034ZM56.3507 28.1053C56.3603 28.1134 56.3723 28.1144 56.3833 28.1187L56.3694 28.9733C56.3651 28.9503 56.3603 28.9263 56.3426 28.9086L55.9448 28.5108L56.3507 28.1053ZM56.3675 29.0854C56.3632 29.0739 56.3613 29.0619 56.3536 29.0514C56.3603 29.0394 56.3661 29.0279 56.3689 29.0145L56.3675 29.0854ZM56.3665 29.1645L56.3531 29.9879C56.3483 29.9668 56.345 29.9448 56.3287 29.9285L55.9788 29.5786C56.0296 29.5263 56.3416 29.2273 56.3665 29.1645ZM42.4824 31.0883C42.4441 30.2812 42.7268 27.6207 42.7168 27.0226C42.6755 23.7094 44.2739 23.0322 47.2747 23.1606C49.2771 23.2406 51.2742 23.325 53.2723 23.4098C55.9731 23.5153 56.448 24.3291 56.4092 26.5534V26.5539L56.3891 27.777C56.3804 27.777 56.3733 27.7847 56.3651 27.7871L56.0919 27.5139C56.045 27.4669 55.9692 27.4669 55.9223 27.5139C55.8753 27.5608 55.8753 27.6366 55.9223 27.683L56.1787 27.9395L55.7459 28.3718C55.7071 28.4101 55.7085 28.4662 55.7334 28.5117C55.7085 28.5572 55.7071 28.6128 55.7459 28.6517L56.1561 29.0619L55.8082 29.4099L55.7828 29.3845C55.7353 29.3375 55.6596 29.338 55.6131 29.3845C55.5662 29.4314 55.5662 29.5072 55.6131 29.5541L55.6385 29.5795L55.3711 29.847C55.3241 29.8939 55.3241 29.9697 55.3711 30.0162C55.4176 30.0627 55.4933 30.0631 55.5408 30.0162L55.8082 29.7487L56.1581 30.0986C56.2046 30.1451 56.2803 30.1456 56.3277 30.0986C56.3435 30.0828 56.3464 30.0612 56.3517 30.0411L56.3488 30.2117L55.7095 30.8511L55.2992 30.4408C55.2522 30.3938 55.1765 30.3938 55.1295 30.4408C55.0826 30.4878 55.0826 30.5635 55.1295 30.6105L55.5398 31.0207L55.1295 31.4315C55.0826 31.4784 55.0826 31.5542 55.1295 31.6007C55.176 31.6471 55.2518 31.6476 55.2992 31.6007L55.7095 31.1904L56.126 31.6069C56.1724 31.6534 56.2482 31.6538 56.2951 31.6069C56.3124 31.5896 56.3167 31.5666 56.321 31.5441C56.2788 32.4806 56.0958 33.2882 55.2494 33.6922L54.6464 33.0893L55.1698 32.5659L55.6189 33.0145C55.6654 33.061 55.7411 33.0615 55.7885 33.0145C55.8355 32.9675 55.8355 32.8918 55.7885 32.8449L55.3399 32.3962L55.8724 31.8638C55.9194 31.8168 55.9194 31.7411 55.8724 31.6941C55.8254 31.6471 55.7497 31.6471 55.7028 31.6941L55.1703 32.2266L54.5582 31.6145L54.6503 31.5225C54.6972 31.4756 54.6972 31.3998 54.6503 31.3533C54.6033 31.3064 54.5276 31.3064 54.4806 31.3533L54.3306 31.5034C54.3181 31.5091 54.3033 31.5086 54.2932 31.5187C54.2827 31.5292 54.2836 31.5436 54.2779 31.5561L53.696 32.1379L53.3409 31.7828C53.2939 31.7358 53.2182 31.7358 53.1712 31.7828C53.1242 31.8297 53.1242 31.9055 53.1712 31.9524L53.5264 32.3076L52.9364 32.8976L52.3905 32.3517L52.6061 32.136C52.6531 32.089 52.6531 32.0133 52.6061 31.9663C52.5592 31.9194 52.4835 31.9194 52.4365 31.9663L52.1887 32.2141C52.1619 32.2165 52.1345 32.2242 52.1139 32.2453C52.0933 32.2659 52.0852 32.2932 52.0828 32.32L51.4501 32.9527L51.2488 32.7514C51.2019 32.7044 51.1261 32.7044 51.0792 32.7514C51.0322 32.7984 51.0322 32.8741 51.0792 32.9206L51.2805 33.1219L50.5697 33.8326L50.1561 33.419L50.8923 32.6829C50.9392 32.6359 50.9392 32.5602 50.8923 32.5132C50.8453 32.4662 50.7696 32.4662 50.7226 32.5132L49.9864 33.2494L49.8618 33.1247C49.8148 33.0778 49.7391 33.0778 49.6922 33.1247C49.6452 33.1717 49.6452 33.2474 49.6922 33.2944L49.8168 33.419L49.4472 33.7885L49.2239 33.5652C49.1769 33.5182 49.1012 33.5182 49.0542 33.5652C49.0073 33.6122 49.0073 33.6879 49.0542 33.7349L49.2095 33.8902L49.1846 33.8897C49.1467 33.8878 49.0787 33.9055 49.036 33.9371C47.5196 35.0687 45.9308 36.1485 44.3046 37.1521C44.5433 36.0723 44.6679 35.1022 44.7201 34.102C44.7417 33.9108 44.7245 33.7392 44.5351 33.7004C43.1759 33.4209 42.5409 32.3948 42.4824 31.0883Z" stroke="#72C173" mask="url(#path-2-outside-1_320_555)"/>
<path d="M46.8413 28.4897C47.058 27.3648 45.427 26.574 44.5485 27.3605C44.0749 27.7851 43.9546 28.506 44.0812 28.9685C44.1665 29.2771 44.3438 29.5062 44.594 29.6304C45.3374 29.998 46.6683 29.3926 46.8413 28.4897ZM44.93 29.2388L45.2017 28.967L45.4414 29.2067C45.254 29.2594 45.0742 29.2714 44.93 29.2388ZM45.5516 28.9737C45.5506 28.9747 45.5511 28.9761 45.5501 28.9771L45.3714 28.7978L45.5693 28.5999L45.7476 28.7782L45.5516 28.9737ZM45.9168 28.9474L45.9388 28.9694C45.8986 28.9977 45.8583 29.025 45.8138 29.0504L45.9168 28.9474ZM46.3707 28.3991C46.3429 28.5448 46.2542 28.6886 46.1262 28.8175L46.0865 28.7777L46.2024 28.6617C46.2494 28.6148 46.2494 28.539 46.2024 28.4921C46.1028 28.3924 46.016 28.5093 45.9173 28.6081L45.739 28.4298L45.89 28.2788L45.9892 28.378C46.0352 28.424 46.1114 28.4254 46.1588 28.378C46.2058 28.331 46.2058 28.2553 46.1588 28.2088L46.0596 28.1096L46.075 28.0943C46.1219 28.0473 46.1219 27.9716 46.075 27.9251C46.028 27.8781 45.9523 27.8781 45.9053 27.9251L45.89 27.9404L45.8056 27.8561L45.9724 27.6893C46.2547 27.8513 46.4224 28.1283 46.3707 28.3991ZM44.8686 27.7176C45.1231 27.4894 45.4164 27.4856 45.7371 27.5853L45.634 27.6883C45.5866 27.6461 45.5156 27.6461 45.4711 27.6912C45.426 27.7363 45.427 27.8072 45.4682 27.8542L45.4174 27.905C45.3704 27.9519 45.3704 28.0277 45.4174 28.0741C45.4639 28.1206 45.5396 28.1211 45.5871 28.0741L45.6359 28.0253L45.7203 28.1096L45.5693 28.2606C45.4711 28.1623 45.3838 28.0454 45.2842 28.1451C45.2372 28.192 45.2372 28.2678 45.2842 28.3147L45.3997 28.4302L45.2017 28.6282L45.0527 28.4791C45.0062 28.4326 44.9304 28.4317 44.883 28.4791C44.836 28.5261 44.836 28.6018 44.883 28.6488L45.0321 28.7978L44.7105 29.1194C44.6376 29.0519 44.5777 28.967 44.5437 28.8419C44.4536 28.5132 44.5504 28.0027 44.8686 27.7176Z" fill="#72C173"/>
<path d="M49.2461 29.7406C49.9612 29.7406 50.8469 29.2186 50.9868 28.4892C51.0889 27.9548 50.7477 27.4022 50.1754 27.176C49.6041 26.9497 49.0779 27.0164 48.6935 27.361C48.2205 27.7856 48.1002 28.5064 48.2267 28.9689C48.3652 29.4717 48.7376 29.7406 49.2461 29.7406ZM49.0822 29.2412L49.3559 28.9675L49.5936 29.2052C49.4067 29.2579 49.2269 29.2718 49.0822 29.2412ZM49.9765 28.9732C49.9947 28.9919 50.0192 28.9972 50.0436 29.001C49.9804 29.0423 49.9099 29.0763 49.8375 29.1098L49.526 28.7983L49.664 28.6603L49.9765 28.9732ZM49.0132 27.7175C49.2634 27.4932 49.5514 27.4856 49.8687 27.5814C49.8615 27.5862 49.8519 27.5848 49.8457 27.591L49.7168 27.7199L49.7014 27.7046C49.6544 27.6576 49.5787 27.6576 49.5318 27.7046C49.4848 27.7516 49.4848 27.8273 49.5318 27.8743L49.5471 27.8896L49.4647 27.972C49.4177 28.019 49.4177 28.0947 49.4647 28.1417C49.4881 28.1652 49.5188 28.1767 49.5495 28.1767C49.5806 28.1767 49.6108 28.1652 49.6343 28.1417L49.7168 28.0593L50.069 28.4115C50.1155 28.458 50.1912 28.4585 50.2387 28.4115C50.2857 28.3646 50.2857 28.2888 50.2387 28.2419L49.8864 27.8896L50.0153 27.7607C50.0479 27.7281 50.0494 27.6845 50.0369 27.6433C50.3705 27.7933 50.5723 28.1024 50.5157 28.3991C50.4817 28.5769 50.3551 28.7499 50.1769 28.898C50.1797 28.864 50.1716 28.8299 50.1457 28.8036L49.8116 28.4695C49.8155 28.4345 49.8083 28.3995 49.7815 28.3727C49.7546 28.3459 49.7191 28.3387 49.6842 28.3425L49.5006 28.159C49.4536 28.112 49.3779 28.112 49.3309 28.159C49.284 28.2059 49.284 28.2816 49.3309 28.3286L49.4934 28.4911L49.3559 28.6286L49.18 28.4527C49.133 28.4058 49.0573 28.4058 49.0103 28.4527C48.9633 28.4997 48.9633 28.5754 49.0103 28.6219L49.1862 28.7978L48.8603 29.1237C48.785 29.0562 48.7232 28.9699 48.6882 28.8419C48.5986 28.5131 48.6954 28.0027 49.0132 27.7175Z" fill="#72C173"/>
<path d="M53.7282 29.6164C54.3153 29.3945 54.7361 28.9627 54.8267 28.4892C54.9288 27.9548 54.5875 27.4022 54.0153 27.176C53.444 26.9497 52.9177 27.0164 52.5333 27.361C52.0603 27.7856 51.94 28.5064 52.0665 28.9689C52.2755 29.7262 52.9954 29.8935 53.7282 29.6164ZM52.9748 29.2507L53.1713 29.0542L53.3476 29.2306C53.213 29.2598 53.0855 29.2656 52.9748 29.2507ZM53.859 28.7485L53.6678 28.5572L53.8322 28.3928L54.0234 28.5841L53.859 28.7485ZM53.6894 28.9181L53.5801 29.0274C53.5609 29.0466 53.5552 29.0715 53.5513 29.0964L53.34 28.8851L53.4981 28.7269L53.6894 28.9181ZM54.3532 28.2893C54.3321 28.2941 54.3095 28.2975 54.2932 28.3142L54.1931 28.4144L54.0018 28.2232L54.1049 28.1201C54.1519 28.0732 54.1519 27.9974 54.1049 27.9509C54.0579 27.904 53.9822 27.904 53.9352 27.9509L53.8322 28.054L53.6812 27.903L53.871 27.7137C53.8878 27.6969 53.8911 27.6749 53.8959 27.6538C54.1763 27.7875 54.3498 28.0339 54.3532 28.2893ZM52.8535 27.7175C53.0951 27.5009 53.3706 27.487 53.6745 27.5709L53.3265 27.9184C53.2796 27.9653 53.2796 28.0411 53.3265 28.088C53.374 28.1355 53.4497 28.134 53.4962 28.088L53.5115 28.0727L53.6625 28.2237L53.4981 28.388L53.3222 28.2122C53.2753 28.1652 53.1995 28.1652 53.1526 28.2122C53.1056 28.2591 53.1056 28.3348 53.1526 28.3818L53.3285 28.5577L53.1708 28.7154L52.9882 28.5328C52.9412 28.4858 52.8655 28.4858 52.8185 28.5328C52.7715 28.5798 52.7715 28.6555 52.8185 28.7025L53.0011 28.8851L52.7342 29.152C52.6412 29.084 52.5688 28.9881 52.529 28.8419C52.4389 28.5131 52.5357 28.0027 52.8535 27.7175Z" fill="#72C173"/>
<mask id="path-6-outside-2_320_555" maskUnits="userSpaceOnUse" x="22.9731" y="25.0969" width="32" height="32" fill="black">
<rect fill="white" x="22.9731" y="25.0969" width="32" height="32"/>
<path d="M44.1103 55.5963C44.1568 55.6428 44.2325 55.6433 44.28 55.5963L44.3097 55.5666C45.8343 56.1048 47.4375 56.4624 49.0464 56.2879C51.1816 56.0555 53.5597 54.585 53.9733 52.2246C54.479 49.3451 51.2923 44.814 49.0263 43.4582C47.6675 42.6448 45.609 42.2887 44.0729 43.3235C42.5052 44.3793 41.9148 46.5346 40.2905 47.162C37.1579 48.3683 32.2022 42.9583 32.8967 39.5755C33.1129 38.5202 34.4093 38.5015 35.2792 37.7461C36.3906 36.7809 37.0415 35.1892 36.937 33.691C36.6509 29.6171 31.26 25.0338 27.4732 26.3164C26.0421 26.8014 24.8688 28.0892 24.3354 29.7619C23.9175 31.0732 23.8628 32.5585 24.1629 34.4372C25.7032 44.0836 33.5269 50.9675 42.604 54.8927C42.6634 54.9186 42.7252 54.9435 42.7851 54.9689C42.7727 55.0097 42.7746 55.0538 42.8067 55.0859C42.8532 55.1324 42.9289 55.1329 42.9764 55.0859L43.0018 55.0605C43.3535 55.2076 43.7149 55.3509 44.0854 55.487C44.0768 55.5259 44.0801 55.5661 44.1103 55.5963ZM44.4219 53.6404L45.159 54.378L44.535 55.002L43.7974 54.2644L44.4219 53.6404ZM45.3286 54.5472L46.1228 55.3413L45.9138 55.5503C45.4978 55.4487 45.089 55.3255 44.6869 55.1889L45.3286 54.5472ZM46.4056 53.4707L47.1997 54.2649L46.2925 55.1722L45.4983 54.378L46.4056 53.4707ZM46.292 55.511L46.4501 55.6692C46.3634 55.6524 46.2776 55.6308 46.1913 55.6121L46.292 55.511ZM46.6759 55.7109C46.7147 55.6639 46.7157 55.5958 46.6716 55.5517L46.4612 55.3413L47.3684 54.4336L48.0495 55.1142L47.5673 55.5963C47.5204 55.6433 47.5204 55.719 47.5673 55.766C47.6138 55.8125 47.6896 55.8129 47.737 55.766L48.2192 55.2838L48.7588 55.8235C48.0624 55.8757 47.3641 55.8307 46.6759 55.7109ZM50.5436 54.0377L50.1176 54.4633L49.5784 53.9241L50.004 53.4985L50.5436 54.0377ZM49.9484 54.633L48.9275 55.6533L48.3888 55.1146L49.4097 54.0938L49.9484 54.633ZM50.1181 54.8026L50.6759 55.361C50.1717 55.5776 49.6445 55.7233 49.1279 55.7928L50.1181 54.8026ZM48.2192 54.9455L47.5386 54.2649L48.5594 53.244L49.24 53.9251L48.2192 54.9455ZM52.6462 53.9361L51.4351 52.7278L51.9403 52.2227L52.5993 52.8817L52.1914 53.2896C52.1444 53.3365 52.1444 53.4122 52.1914 53.4592C52.2149 53.4827 52.2451 53.4942 52.2762 53.4942C52.3074 53.4942 52.3376 53.4827 52.3611 53.4592L52.7689 53.0514L52.8935 53.176C52.94 53.2225 53.0158 53.2229 53.0632 53.176C53.1102 53.129 53.1102 53.0533 53.0632 53.0063L52.9386 52.8817L53.4481 52.3722C53.3043 52.9613 53.0234 53.4856 52.6462 53.9361ZM52.836 48.8169L52.6132 48.5941L52.6846 48.5227C52.7363 48.62 52.7871 48.7182 52.836 48.8169ZM52.988 49.3077C53.0114 49.3312 53.0416 49.3427 53.0728 49.3427L53.0771 49.3408C53.1303 49.4673 53.1801 49.5953 53.2262 49.7242L53.0148 49.9356L52.6357 49.5565L52.9367 49.256L52.988 49.3077ZM53.3124 49.9773C53.3493 50.0952 53.3819 50.2136 53.4112 50.3324L53.184 50.1052L53.3124 49.9773ZM44.3399 43.7213C45.7034 42.803 47.552 43.1346 48.7794 43.8699C50.362 44.8164 51.6671 46.7 52.5643 48.3041L52.444 48.4249L52.4056 48.3866C52.3587 48.3396 52.2829 48.3396 52.236 48.3866C52.189 48.4335 52.189 48.5093 52.236 48.5562L52.767 49.0873L52.466 49.3873L52.2935 49.2147C52.2465 49.1678 52.1708 49.1678 52.1238 49.2147C52.0769 49.2617 52.0769 49.3374 52.1238 49.3844L52.2992 49.5598C52.2595 49.6068 52.2585 49.6763 52.3031 49.7204C52.3433 49.7606 52.4066 49.7721 52.4636 49.7242L52.8456 50.1062L52.4157 50.5366C52.3687 50.5836 52.3687 50.6593 52.4157 50.7063C52.4622 50.7527 52.5379 50.7532 52.5849 50.7063L53.0153 50.2759L53.3345 50.5951C53.358 50.6185 53.3882 50.6301 53.4193 50.6301C53.439 50.6301 53.4557 50.6171 53.4735 50.6075C53.5593 51.0518 53.5832 51.5028 53.5267 51.9557L52.7689 52.713L52.1099 52.054L52.6793 51.4846L52.9127 51.718L52.5499 52.0808C52.5029 52.1278 52.5029 52.2035 52.5499 52.2505C52.5964 52.297 52.6721 52.2975 52.7196 52.2505L53.0824 51.8877L53.2218 52.0271C53.2683 52.0736 53.3441 52.0741 53.3915 52.0271C53.4385 51.9802 53.4385 51.9044 53.3915 51.8575L53.252 51.718L53.5152 51.4549C53.5621 51.4079 53.5621 51.3322 53.5152 51.2852C53.4682 51.2378 53.3925 51.2387 53.3455 51.2852L53.0824 51.5483L52.8461 51.3121C52.8859 51.2651 52.8868 51.1956 52.8423 51.1515C52.7977 51.1069 52.7287 51.1079 52.6817 51.1481L52.2039 50.6708C52.1569 50.6238 52.0812 50.6238 52.0342 50.6708C51.9872 50.7178 51.9872 50.7935 52.0342 50.8405L52.5092 51.3154L51.9403 51.8838L51.4653 51.4089C51.4183 51.3619 51.3426 51.3619 51.2956 51.4089C51.2487 51.4558 51.2487 51.5316 51.2956 51.5785L51.7706 52.0535L51.265 52.5587L50.5513 51.8465C50.547 51.8407 50.5484 51.8326 50.5432 51.8273C50.5379 51.822 50.5297 51.8234 50.524 51.8191C50.4722 51.7674 43.412 44.7148 43.3492 44.6765C43.6469 44.3118 43.9656 43.9734 44.3399 43.7213ZM36.4577 33.725C36.533 34.8029 36.1711 35.9287 35.5164 36.7838L29.5782 30.8062L30.0474 30.337L30.7893 31.0789C30.8358 31.1254 30.9115 31.1259 30.9585 31.0789C31.0055 31.032 31.0055 30.9562 30.9585 30.9098L30.2166 30.1678L30.461 29.9234C30.508 29.8764 30.508 29.8007 30.461 29.7537C30.414 29.7068 30.3383 29.7068 30.2914 29.7537L30.0469 29.9982L29.6141 29.5649C29.6367 29.5606 29.6601 29.5563 29.6779 29.5385L30.2257 28.9907L30.5157 29.2807C30.5621 29.3272 30.6379 29.3277 30.6853 29.2807C30.7323 29.2337 30.7323 29.158 30.6853 29.111L30.3954 28.8211L30.7678 28.4487C30.8147 28.4017 30.8147 28.326 30.7678 28.279C30.7208 28.232 30.6451 28.232 30.5981 28.279L30.2257 28.6514L29.8437 28.2694L30.3359 27.7772C30.3829 27.7302 30.3829 27.6545 30.3359 27.608C30.289 27.561 30.2132 27.561 30.1667 27.608L29.6745 28.1002L29.26 27.6857L29.3419 27.6037C29.3889 27.5567 29.3889 27.481 29.3419 27.4345C29.2949 27.3876 29.2192 27.3876 29.1727 27.4345L29.0908 27.5165L28.7735 27.1992L29.3735 26.5996C29.4018 26.603 29.4306 26.6059 29.4589 26.6092C29.4646 26.6236 29.4646 26.6399 29.4766 26.6514L31.1833 28.3586C31.2298 28.4051 31.3055 28.4055 31.353 28.3586C31.3999 28.3116 31.3999 28.2359 31.353 28.1889L29.8351 26.671C30.1998 26.7463 30.553 26.8575 30.8876 26.9917L31.8107 27.9148C31.8572 27.9612 31.9329 27.9617 31.9798 27.9148C32.0268 27.8678 32.0268 27.7921 31.9798 27.7456L31.5087 27.2744C33.7158 28.3936 36.2617 30.9179 36.4577 33.725ZM24.6364 34.362C24.5976 34.1185 24.5659 33.8827 24.5391 33.6531L25.1578 34.2719L24.7025 34.7272C24.6809 34.605 24.656 34.4832 24.6364 34.362ZM24.4806 31.5827L25.0279 32.1305L24.4648 32.6936C24.4495 32.3049 24.4547 31.9354 24.4806 31.5827ZM24.5525 31.3157C24.5396 31.3028 24.5218 31.3018 24.5051 31.296C24.5079 31.2702 24.5122 31.2448 24.5151 31.2189C24.518 31.2448 24.5252 31.2706 24.5448 31.2903C24.5913 31.3368 24.6671 31.3373 24.7145 31.2903L25.3275 30.6773L25.9041 31.2539L25.1976 31.9608L24.5525 31.3157ZM24.5204 31.1805C24.5678 30.8005 24.6412 30.4381 24.7409 30.0911L25.1578 30.5081C25.107 30.5594 24.5372 31.1101 24.5204 31.1805ZM24.877 29.8884C24.8583 29.8697 24.8338 29.8645 24.8099 29.8606C24.9537 29.4235 25.1473 29.0195 25.3769 28.6509L25.4986 28.7727L25.1938 29.077C25.1468 29.124 25.1468 29.1997 25.1938 29.2467C25.2412 29.2941 25.3169 29.2927 25.363 29.2467L25.6678 28.9418L26.1959 29.47L25.3275 30.3385L24.877 29.8884ZM25.8374 28.7727L26.3618 28.2483L26.888 28.7779L26.3656 29.3003L25.8374 28.7727ZM26.7107 27.7302C26.6642 27.6837 26.5885 27.6833 26.5415 27.7302L26.5319 27.7398L26.3225 27.5289C26.4912 27.3837 26.6704 27.2586 26.8549 27.1446L27.1205 27.4101L26.9781 27.5524C26.9312 27.5994 26.9312 27.6751 26.9781 27.7216C27.0246 27.7681 27.1003 27.7686 27.1478 27.7216L27.2901 27.5793L27.6721 27.9612L27.2379 28.3959C27.2273 28.4065 27.2278 28.4214 27.2221 28.4343L26.7006 27.9095L26.7107 27.8994C26.7577 27.8529 26.7577 27.7767 26.7107 27.7302ZM28.4346 27.1992L27.8418 27.7921L27.4593 27.4101L28.0522 26.8172L28.4346 27.1992ZM29.4823 29.4331L29.0817 29.0324L29.6745 28.4396L30.0565 28.8215L29.5087 29.3694C29.491 29.3866 29.4867 29.4101 29.4823 29.4331ZM28.912 28.8628L28.4974 28.4482L29.0903 27.8553L29.5049 28.2699L28.912 28.8628ZM28.3282 28.2785L28.011 27.9612L28.6038 27.3684L28.9211 27.6857L28.3282 28.2785ZM27.4071 28.5651L27.8413 28.1309L28.1586 28.4482L27.6956 28.9112L27.3683 28.5814C27.3812 28.5757 27.3965 28.5762 27.4071 28.5651ZM28.3282 28.6174L28.7428 29.0319L28.6657 29.1091C28.6187 29.1561 28.6187 29.2318 28.6657 29.2788C28.7121 29.3253 28.7879 29.3257 28.8353 29.2788L28.9125 29.2016L29.8782 30.1674L29.4095 30.6361L27.8643 29.0813L28.3282 28.6174ZM28.8799 26.5685C28.9398 26.5685 28.9987 26.5733 29.0582 26.5757L28.6038 27.0295L28.2012 26.6269C28.4284 26.5881 28.6546 26.5685 28.8799 26.5685ZM27.6266 26.7707C27.6889 26.7496 27.7517 26.7338 27.8145 26.7161L27.2901 27.2404L27.0682 27.019C27.2494 26.9222 27.4344 26.8359 27.6266 26.7707ZM25.9779 27.862L26.1931 28.0787L25.6683 28.603L25.5091 28.4439C25.6529 28.2349 25.8096 28.0408 25.9779 27.862ZM24.7552 35.0133L25.3275 34.4411L25.4497 34.5633C25.4962 34.6098 25.5719 34.6102 25.6189 34.5633C25.6659 34.5163 25.6659 34.4406 25.6189 34.3936L25.4967 34.2714L26.2515 33.5165C26.2985 33.4696 26.2985 33.3938 26.2515 33.3474C26.2046 33.3004 26.1288 33.3004 26.0824 33.3474L25.3275 34.1022L24.5031 33.2779C24.4955 33.1906 24.4868 33.102 24.4811 33.0167L25.1981 32.2997L25.7052 32.8072C25.7517 32.8537 25.8274 32.8542 25.8743 32.8072C25.9213 32.7602 25.9213 32.6845 25.8743 32.638L25.3673 32.1305L26.0737 31.424L26.3522 31.7025C26.3987 31.749 26.4744 31.7494 26.5218 31.7025C26.5688 31.6555 26.5688 31.5798 26.5218 31.5328L26.2434 31.2544L26.762 30.7358C26.8089 30.6888 26.8089 30.6131 26.762 30.5661C26.715 30.5191 26.6393 30.5191 26.5923 30.5661L26.0737 31.0847L25.4972 30.5081L26.3656 29.6397L26.9302 30.2047C26.9767 30.2512 27.0524 30.2517 27.0994 30.2047C27.1463 30.1578 27.1463 30.082 27.0994 30.0351L26.5348 29.47L27.0567 28.9481L35.203 37.148C34.2099 38.1737 32.7189 38.0514 32.4261 39.4797C31.6583 43.2219 36.9466 48.9689 40.4621 47.6092C41.644 47.1529 42.313 46.041 43.0578 45.0465C43.0578 45.0465 50.0581 52.031 50.1142 52.0871L49.7217 52.4796C49.6747 52.5265 49.6747 52.6023 49.7217 52.6492C49.7682 52.6957 49.8439 52.6962 49.8914 52.6492L50.2839 52.2567L51.9297 53.8992L51.1384 54.6905C51.0915 54.7374 51.0915 54.8132 51.1384 54.8601C51.1859 54.9076 51.2616 54.9062 51.3081 54.8601L52.0994 54.0689L52.3174 54.2864C51.9086 54.6814 51.4265 55.0068 50.9093 55.256L50.2872 54.6339L50.7128 54.2083L50.9683 54.4638C51.0148 54.5103 51.0905 54.5107 51.138 54.4638C51.1849 54.4168 51.1849 54.3411 51.138 54.2941L50.8825 54.0387L51.0843 53.8369C51.1312 53.7899 51.1312 53.7142 51.0843 53.6672C51.0373 53.6203 50.9616 53.6203 50.9146 53.6672L50.7133 53.8685L49.2678 52.423C49.2208 52.3761 49.1451 52.3761 49.0982 52.423C49.0512 52.47 49.0512 52.5457 49.0982 52.5927L49.8353 53.3298L49.4097 53.7554L48.7291 53.0744L48.8758 52.9277C48.9227 52.8807 48.9227 52.805 48.8758 52.758C48.8288 52.7111 48.7531 52.7111 48.7061 52.758L48.5594 52.9047L47.9642 52.3094C47.9172 52.2625 47.8415 52.2625 47.7945 52.3094C47.7476 52.3564 47.7476 52.4321 47.7945 52.4791L48.3898 53.0744L47.3689 54.0952L46.5748 53.3011L46.7761 53.0998C46.823 53.0528 46.823 52.9771 46.7761 52.9301C46.7291 52.8831 46.6534 52.8831 46.6064 52.9301L45.3282 54.2083L44.591 53.4707L45.0919 52.9699C45.1389 52.9229 45.1389 52.8472 45.0919 52.8002C45.0449 52.7532 44.9692 52.7532 44.9222 52.8002L44.4099 53.313C44.3663 53.2939 44.3159 53.2939 44.2805 53.3293C44.2445 53.3653 44.245 53.4151 44.2642 53.4587L43.6282 54.0947L42.9759 53.4424C42.9289 53.3955 42.8532 53.3955 42.8062 53.4424C42.7592 53.4894 42.7592 53.5651 42.8062 53.6121L43.4585 54.2644L43.1292 54.5937C43.0176 54.5467 42.903 54.5002 42.7933 54.4528C34.1414 50.711 26.5631 44.2533 24.7552 35.0133ZM43.6282 54.4341L44.2239 55.0298C43.9325 54.9224 43.6483 54.8093 43.3679 54.6943L43.6282 54.4341Z"/>
</mask>
<path d="M44.1103 55.5963C44.1568 55.6428 44.2325 55.6433 44.28 55.5963L44.3097 55.5666C45.8343 56.1048 47.4375 56.4624 49.0464 56.2879C51.1816 56.0555 53.5597 54.585 53.9733 52.2246C54.479 49.3451 51.2923 44.814 49.0263 43.4582C47.6675 42.6448 45.609 42.2887 44.0729 43.3235C42.5052 44.3793 41.9148 46.5346 40.2905 47.162C37.1579 48.3683 32.2022 42.9583 32.8967 39.5755C33.1129 38.5202 34.4093 38.5015 35.2792 37.7461C36.3906 36.7809 37.0415 35.1892 36.937 33.691C36.6509 29.6171 31.26 25.0338 27.4732 26.3164C26.0421 26.8014 24.8688 28.0892 24.3354 29.7619C23.9175 31.0732 23.8628 32.5585 24.1629 34.4372C25.7032 44.0836 33.5269 50.9675 42.604 54.8927C42.6634 54.9186 42.7252 54.9435 42.7851 54.9689C42.7727 55.0097 42.7746 55.0538 42.8067 55.0859C42.8532 55.1324 42.9289 55.1329 42.9764 55.0859L43.0018 55.0605C43.3535 55.2076 43.7149 55.3509 44.0854 55.487C44.0768 55.5259 44.0801 55.5661 44.1103 55.5963ZM44.4219 53.6404L45.159 54.378L44.535 55.002L43.7974 54.2644L44.4219 53.6404ZM45.3286 54.5472L46.1228 55.3413L45.9138 55.5503C45.4978 55.4487 45.089 55.3255 44.6869 55.1889L45.3286 54.5472ZM46.4056 53.4707L47.1997 54.2649L46.2925 55.1722L45.4983 54.378L46.4056 53.4707ZM46.292 55.511L46.4501 55.6692C46.3634 55.6524 46.2776 55.6308 46.1913 55.6121L46.292 55.511ZM46.6759 55.7109C46.7147 55.6639 46.7157 55.5958 46.6716 55.5517L46.4612 55.3413L47.3684 54.4336L48.0495 55.1142L47.5673 55.5963C47.5204 55.6433 47.5204 55.719 47.5673 55.766C47.6138 55.8125 47.6896 55.8129 47.737 55.766L48.2192 55.2838L48.7588 55.8235C48.0624 55.8757 47.3641 55.8307 46.6759 55.7109ZM50.5436 54.0377L50.1176 54.4633L49.5784 53.9241L50.004 53.4985L50.5436 54.0377ZM49.9484 54.633L48.9275 55.6533L48.3888 55.1146L49.4097 54.0938L49.9484 54.633ZM50.1181 54.8026L50.6759 55.361C50.1717 55.5776 49.6445 55.7233 49.1279 55.7928L50.1181 54.8026ZM48.2192 54.9455L47.5386 54.2649L48.5594 53.244L49.24 53.9251L48.2192 54.9455ZM52.6462 53.9361L51.4351 52.7278L51.9403 52.2227L52.5993 52.8817L52.1914 53.2896C52.1444 53.3365 52.1444 53.4122 52.1914 53.4592C52.2149 53.4827 52.2451 53.4942 52.2762 53.4942C52.3074 53.4942 52.3376 53.4827 52.3611 53.4592L52.7689 53.0514L52.8935 53.176C52.94 53.2225 53.0158 53.2229 53.0632 53.176C53.1102 53.129 53.1102 53.0533 53.0632 53.0063L52.9386 52.8817L53.4481 52.3722C53.3043 52.9613 53.0234 53.4856 52.6462 53.9361ZM52.836 48.8169L52.6132 48.5941L52.6846 48.5227C52.7363 48.62 52.7871 48.7182 52.836 48.8169ZM52.988 49.3077C53.0114 49.3312 53.0416 49.3427 53.0728 49.3427L53.0771 49.3408C53.1303 49.4673 53.1801 49.5953 53.2262 49.7242L53.0148 49.9356L52.6357 49.5565L52.9367 49.256L52.988 49.3077ZM53.3124 49.9773C53.3493 50.0952 53.3819 50.2136 53.4112 50.3324L53.184 50.1052L53.3124 49.9773ZM44.3399 43.7213C45.7034 42.803 47.552 43.1346 48.7794 43.8699C50.362 44.8164 51.6671 46.7 52.5643 48.3041L52.444 48.4249L52.4056 48.3866C52.3587 48.3396 52.2829 48.3396 52.236 48.3866C52.189 48.4335 52.189 48.5093 52.236 48.5562L52.767 49.0873L52.466 49.3873L52.2935 49.2147C52.2465 49.1678 52.1708 49.1678 52.1238 49.2147C52.0769 49.2617 52.0769 49.3374 52.1238 49.3844L52.2992 49.5598C52.2595 49.6068 52.2585 49.6763 52.3031 49.7204C52.3433 49.7606 52.4066 49.7721 52.4636 49.7242L52.8456 50.1062L52.4157 50.5366C52.3687 50.5836 52.3687 50.6593 52.4157 50.7063C52.4622 50.7527 52.5379 50.7532 52.5849 50.7063L53.0153 50.2759L53.3345 50.5951C53.358 50.6185 53.3882 50.6301 53.4193 50.6301C53.439 50.6301 53.4557 50.6171 53.4735 50.6075C53.5593 51.0518 53.5832 51.5028 53.5267 51.9557L52.7689 52.713L52.1099 52.054L52.6793 51.4846L52.9127 51.718L52.5499 52.0808C52.5029 52.1278 52.5029 52.2035 52.5499 52.2505C52.5964 52.297 52.6721 52.2975 52.7196 52.2505L53.0824 51.8877L53.2218 52.0271C53.2683 52.0736 53.3441 52.0741 53.3915 52.0271C53.4385 51.9802 53.4385 51.9044 53.3915 51.8575L53.252 51.718L53.5152 51.4549C53.5621 51.4079 53.5621 51.3322 53.5152 51.2852C53.4682 51.2378 53.3925 51.2387 53.3455 51.2852L53.0824 51.5483L52.8461 51.3121C52.8859 51.2651 52.8868 51.1956 52.8423 51.1515C52.7977 51.1069 52.7287 51.1079 52.6817 51.1481L52.2039 50.6708C52.1569 50.6238 52.0812 50.6238 52.0342 50.6708C51.9872 50.7178 51.9872 50.7935 52.0342 50.8405L52.5092 51.3154L51.9403 51.8838L51.4653 51.4089C51.4183 51.3619 51.3426 51.3619 51.2956 51.4089C51.2487 51.4558 51.2487 51.5316 51.2956 51.5785L51.7706 52.0535L51.265 52.5587L50.5513 51.8465C50.547 51.8407 50.5484 51.8326 50.5432 51.8273C50.5379 51.822 50.5297 51.8234 50.524 51.8191C50.4722 51.7674 43.412 44.7148 43.3492 44.6765C43.6469 44.3118 43.9656 43.9734 44.3399 43.7213ZM36.4577 33.725C36.533 34.8029 36.1711 35.9287 35.5164 36.7838L29.5782 30.8062L30.0474 30.337L30.7893 31.0789C30.8358 31.1254 30.9115 31.1259 30.9585 31.0789C31.0055 31.032 31.0055 30.9562 30.9585 30.9098L30.2166 30.1678L30.461 29.9234C30.508 29.8764 30.508 29.8007 30.461 29.7537C30.414 29.7068 30.3383 29.7068 30.2914 29.7537L30.0469 29.9982L29.6141 29.5649C29.6367 29.5606 29.6601 29.5563 29.6779 29.5385L30.2257 28.9907L30.5157 29.2807C30.5621 29.3272 30.6379 29.3277 30.6853 29.2807C30.7323 29.2337 30.7323 29.158 30.6853 29.111L30.3954 28.8211L30.7678 28.4487C30.8147 28.4017 30.8147 28.326 30.7678 28.279C30.7208 28.232 30.6451 28.232 30.5981 28.279L30.2257 28.6514L29.8437 28.2694L30.3359 27.7772C30.3829 27.7302 30.3829 27.6545 30.3359 27.608C30.289 27.561 30.2132 27.561 30.1667 27.608L29.6745 28.1002L29.26 27.6857L29.3419 27.6037C29.3889 27.5567 29.3889 27.481 29.3419 27.4345C29.2949 27.3876 29.2192 27.3876 29.1727 27.4345L29.0908 27.5165L28.7735 27.1992L29.3735 26.5996C29.4018 26.603 29.4306 26.6059 29.4589 26.6092C29.4646 26.6236 29.4646 26.6399 29.4766 26.6514L31.1833 28.3586C31.2298 28.4051 31.3055 28.4055 31.353 28.3586C31.3999 28.3116 31.3999 28.2359 31.353 28.1889L29.8351 26.671C30.1998 26.7463 30.553 26.8575 30.8876 26.9917L31.8107 27.9148C31.8572 27.9612 31.9329 27.9617 31.9798 27.9148C32.0268 27.8678 32.0268 27.7921 31.9798 27.7456L31.5087 27.2744C33.7158 28.3936 36.2617 30.9179 36.4577 33.725ZM24.6364 34.362C24.5976 34.1185 24.5659 33.8827 24.5391 33.6531L25.1578 34.2719L24.7025 34.7272C24.6809 34.605 24.656 34.4832 24.6364 34.362ZM24.4806 31.5827L25.0279 32.1305L24.4648 32.6936C24.4495 32.3049 24.4547 31.9354 24.4806 31.5827ZM24.5525 31.3157C24.5396 31.3028 24.5218 31.3018 24.5051 31.296C24.5079 31.2702 24.5122 31.2448 24.5151 31.2189C24.518 31.2448 24.5252 31.2706 24.5448 31.2903C24.5913 31.3368 24.6671 31.3373 24.7145 31.2903L25.3275 30.6773L25.9041 31.2539L25.1976 31.9608L24.5525 31.3157ZM24.5204 31.1805C24.5678 30.8005 24.6412 30.4381 24.7409 30.0911L25.1578 30.5081C25.107 30.5594 24.5372 31.1101 24.5204 31.1805ZM24.877 29.8884C24.8583 29.8697 24.8338 29.8645 24.8099 29.8606C24.9537 29.4235 25.1473 29.0195 25.3769 28.6509L25.4986 28.7727L25.1938 29.077C25.1468 29.124 25.1468 29.1997 25.1938 29.2467C25.2412 29.2941 25.3169 29.2927 25.363 29.2467L25.6678 28.9418L26.1959 29.47L25.3275 30.3385L24.877 29.8884ZM25.8374 28.7727L26.3618 28.2483L26.888 28.7779L26.3656 29.3003L25.8374 28.7727ZM26.7107 27.7302C26.6642 27.6837 26.5885 27.6833 26.5415 27.7302L26.5319 27.7398L26.3225 27.5289C26.4912 27.3837 26.6704 27.2586 26.8549 27.1446L27.1205 27.4101L26.9781 27.5524C26.9312 27.5994 26.9312 27.6751 26.9781 27.7216C27.0246 27.7681 27.1003 27.7686 27.1478 27.7216L27.2901 27.5793L27.6721 27.9612L27.2379 28.3959C27.2273 28.4065 27.2278 28.4214 27.2221 28.4343L26.7006 27.9095L26.7107 27.8994C26.7577 27.8529 26.7577 27.7767 26.7107 27.7302ZM28.4346 27.1992L27.8418 27.7921L27.4593 27.4101L28.0522 26.8172L28.4346 27.1992ZM29.4823 29.4331L29.0817 29.0324L29.6745 28.4396L30.0565 28.8215L29.5087 29.3694C29.491 29.3866 29.4867 29.4101 29.4823 29.4331ZM28.912 28.8628L28.4974 28.4482L29.0903 27.8553L29.5049 28.2699L28.912 28.8628ZM28.3282 28.2785L28.011 27.9612L28.6038 27.3684L28.9211 27.6857L28.3282 28.2785ZM27.4071 28.5651L27.8413 28.1309L28.1586 28.4482L27.6956 28.9112L27.3683 28.5814C27.3812 28.5757 27.3965 28.5762 27.4071 28.5651ZM28.3282 28.6174L28.7428 29.0319L28.6657 29.1091C28.6187 29.1561 28.6187 29.2318 28.6657 29.2788C28.7121 29.3253 28.7879 29.3257 28.8353 29.2788L28.9125 29.2016L29.8782 30.1674L29.4095 30.6361L27.8643 29.0813L28.3282 28.6174ZM28.8799 26.5685C28.9398 26.5685 28.9987 26.5733 29.0582 26.5757L28.6038 27.0295L28.2012 26.6269C28.4284 26.5881 28.6546 26.5685 28.8799 26.5685ZM27.6266 26.7707C27.6889 26.7496 27.7517 26.7338 27.8145 26.7161L27.2901 27.2404L27.0682 27.019C27.2494 26.9222 27.4344 26.8359 27.6266 26.7707ZM25.9779 27.862L26.1931 28.0787L25.6683 28.603L25.5091 28.4439C25.6529 28.2349 25.8096 28.0408 25.9779 27.862ZM24.7552 35.0133L25.3275 34.4411L25.4497 34.5633C25.4962 34.6098 25.5719 34.6102 25.6189 34.5633C25.6659 34.5163 25.6659 34.4406 25.6189 34.3936L25.4967 34.2714L26.2515 33.5165C26.2985 33.4696 26.2985 33.3938 26.2515 33.3474C26.2046 33.3004 26.1288 33.3004 26.0824 33.3474L25.3275 34.1022L24.5031 33.2779C24.4955 33.1906 24.4868 33.102 24.4811 33.0167L25.1981 32.2997L25.7052 32.8072C25.7517 32.8537 25.8274 32.8542 25.8743 32.8072C25.9213 32.7602 25.9213 32.6845 25.8743 32.638L25.3673 32.1305L26.0737 31.424L26.3522 31.7025C26.3987 31.749 26.4744 31.7494 26.5218 31.7025C26.5688 31.6555 26.5688 31.5798 26.5218 31.5328L26.2434 31.2544L26.762 30.7358C26.8089 30.6888 26.8089 30.6131 26.762 30.5661C26.715 30.5191 26.6393 30.5191 26.5923 30.5661L26.0737 31.0847L25.4972 30.5081L26.3656 29.6397L26.9302 30.2047C26.9767 30.2512 27.0524 30.2517 27.0994 30.2047C27.1463 30.1578 27.1463 30.082 27.0994 30.0351L26.5348 29.47L27.0567 28.9481L35.203 37.148C34.2099 38.1737 32.7189 38.0514 32.4261 39.4797C31.6583 43.2219 36.9466 48.9689 40.4621 47.6092C41.644 47.1529 42.313 46.041 43.0578 45.0465C43.0578 45.0465 50.0581 52.031 50.1142 52.0871L49.7217 52.4796C49.6747 52.5265 49.6747 52.6023 49.7217 52.6492C49.7682 52.6957 49.8439 52.6962 49.8914 52.6492L50.2839 52.2567L51.9297 53.8992L51.1384 54.6905C51.0915 54.7374 51.0915 54.8132 51.1384 54.8601C51.1859 54.9076 51.2616 54.9062 51.3081 54.8601L52.0994 54.0689L52.3174 54.2864C51.9086 54.6814 51.4265 55.0068 50.9093 55.256L50.2872 54.6339L50.7128 54.2083L50.9683 54.4638C51.0148 54.5103 51.0905 54.5107 51.138 54.4638C51.1849 54.4168 51.1849 54.3411 51.138 54.2941L50.8825 54.0387L51.0843 53.8369C51.1312 53.7899 51.1312 53.7142 51.0843 53.6672C51.0373 53.6203 50.9616 53.6203 50.9146 53.6672L50.7133 53.8685L49.2678 52.423C49.2208 52.3761 49.1451 52.3761 49.0982 52.423C49.0512 52.47 49.0512 52.5457 49.0982 52.5927L49.8353 53.3298L49.4097 53.7554L48.7291 53.0744L48.8758 52.9277C48.9227 52.8807 48.9227 52.805 48.8758 52.758C48.8288 52.7111 48.7531 52.7111 48.7061 52.758L48.5594 52.9047L47.9642 52.3094C47.9172 52.2625 47.8415 52.2625 47.7945 52.3094C47.7476 52.3564 47.7476 52.4321 47.7945 52.4791L48.3898 53.0744L47.3689 54.0952L46.5748 53.3011L46.7761 53.0998C46.823 53.0528 46.823 52.9771 46.7761 52.9301C46.7291 52.8831 46.6534 52.8831 46.6064 52.9301L45.3282 54.2083L44.591 53.4707L45.0919 52.9699C45.1389 52.9229 45.1389 52.8472 45.0919 52.8002C45.0449 52.7532 44.9692 52.7532 44.9222 52.8002L44.4099 53.313C44.3663 53.2939 44.3159 53.2939 44.2805 53.3293C44.2445 53.3653 44.245 53.4151 44.2642 53.4587L43.6282 54.0947L42.9759 53.4424C42.9289 53.3955 42.8532 53.3955 42.8062 53.4424C42.7592 53.4894 42.7592 53.5651 42.8062 53.6121L43.4585 54.2644L43.1292 54.5937C43.0176 54.5467 42.903 54.5002 42.7933 54.4528C34.1414 50.711 26.5631 44.2533 24.7552 35.0133ZM43.6282 54.4341L44.2239 55.0298C43.9325 54.9224 43.6483 54.8093 43.3679 54.6943L43.6282 54.4341Z" fill="#214842"/>
<path d="M44.1103 55.5963C44.1568 55.6428 44.2325 55.6433 44.28 55.5963L44.3097 55.5666C45.8343 56.1048 47.4375 56.4624 49.0464 56.2879C51.1816 56.0555 53.5597 54.585 53.9733 52.2246C54.479 49.3451 51.2923 44.814 49.0263 43.4582C47.6675 42.6448 45.609 42.2887 44.0729 43.3235C42.5052 44.3793 41.9148 46.5346 40.2905 47.162C37.1579 48.3683 32.2022 42.9583 32.8967 39.5755C33.1129 38.5202 34.4093 38.5015 35.2792 37.7461C36.3906 36.7809 37.0415 35.1892 36.937 33.691C36.6509 29.6171 31.26 25.0338 27.4732 26.3164C26.0421 26.8014 24.8688 28.0892 24.3354 29.7619C23.9175 31.0732 23.8628 32.5585 24.1629 34.4372C25.7032 44.0836 33.5269 50.9675 42.604 54.8927C42.6634 54.9186 42.7252 54.9435 42.7851 54.9689C42.7727 55.0097 42.7746 55.0538 42.8067 55.0859C42.8532 55.1324 42.9289 55.1329 42.9764 55.0859L43.0018 55.0605C43.3535 55.2076 43.7149 55.3509 44.0854 55.487C44.0768 55.5259 44.0801 55.5661 44.1103 55.5963ZM44.4219 53.6404L45.159 54.378L44.535 55.002L43.7974 54.2644L44.4219 53.6404ZM45.3286 54.5472L46.1228 55.3413L45.9138 55.5503C45.4978 55.4487 45.089 55.3255 44.6869 55.1889L45.3286 54.5472ZM46.4056 53.4707L47.1997 54.2649L46.2925 55.1722L45.4983 54.378L46.4056 53.4707ZM46.292 55.511L46.4501 55.6692C46.3634 55.6524 46.2776 55.6308 46.1913 55.6121L46.292 55.511ZM46.6759 55.7109C46.7147 55.6639 46.7157 55.5958 46.6716 55.5517L46.4612 55.3413L47.3684 54.4336L48.0495 55.1142L47.5673 55.5963C47.5204 55.6433 47.5204 55.719 47.5673 55.766C47.6138 55.8125 47.6896 55.8129 47.737 55.766L48.2192 55.2838L48.7588 55.8235C48.0624 55.8757 47.3641 55.8307 46.6759 55.7109ZM50.5436 54.0377L50.1176 54.4633L49.5784 53.9241L50.004 53.4985L50.5436 54.0377ZM49.9484 54.633L48.9275 55.6533L48.3888 55.1146L49.4097 54.0938L49.9484 54.633ZM50.1181 54.8026L50.6759 55.361C50.1717 55.5776 49.6445 55.7233 49.1279 55.7928L50.1181 54.8026ZM48.2192 54.9455L47.5386 54.2649L48.5594 53.244L49.24 53.9251L48.2192 54.9455ZM52.6462 53.9361L51.4351 52.7278L51.9403 52.2227L52.5993 52.8817L52.1914 53.2896C52.1444 53.3365 52.1444 53.4122 52.1914 53.4592C52.2149 53.4827 52.2451 53.4942 52.2762 53.4942C52.3074 53.4942 52.3376 53.4827 52.3611 53.4592L52.7689 53.0514L52.8935 53.176C52.94 53.2225 53.0158 53.2229 53.0632 53.176C53.1102 53.129 53.1102 53.0533 53.0632 53.0063L52.9386 52.8817L53.4481 52.3722C53.3043 52.9613 53.0234 53.4856 52.6462 53.9361ZM52.836 48.8169L52.6132 48.5941L52.6846 48.5227C52.7363 48.62 52.7871 48.7182 52.836 48.8169ZM52.988 49.3077C53.0114 49.3312 53.0416 49.3427 53.0728 49.3427L53.0771 49.3408C53.1303 49.4673 53.1801 49.5953 53.2262 49.7242L53.0148 49.9356L52.6357 49.5565L52.9367 49.256L52.988 49.3077ZM53.3124 49.9773C53.3493 50.0952 53.3819 50.2136 53.4112 50.3324L53.184 50.1052L53.3124 49.9773ZM44.3399 43.7213C45.7034 42.803 47.552 43.1346 48.7794 43.8699C50.362 44.8164 51.6671 46.7 52.5643 48.3041L52.444 48.4249L52.4056 48.3866C52.3587 48.3396 52.2829 48.3396 52.236 48.3866C52.189 48.4335 52.189 48.5093 52.236 48.5562L52.767 49.0873L52.466 49.3873L52.2935 49.2147C52.2465 49.1678 52.1708 49.1678 52.1238 49.2147C52.0769 49.2617 52.0769 49.3374 52.1238 49.3844L52.2992 49.5598C52.2595 49.6068 52.2585 49.6763 52.3031 49.7204C52.3433 49.7606 52.4066 49.7721 52.4636 49.7242L52.8456 50.1062L52.4157 50.5366C52.3687 50.5836 52.3687 50.6593 52.4157 50.7063C52.4622 50.7527 52.5379 50.7532 52.5849 50.7063L53.0153 50.2759L53.3345 50.5951C53.358 50.6185 53.3882 50.6301 53.4193 50.6301C53.439 50.6301 53.4557 50.6171 53.4735 50.6075C53.5593 51.0518 53.5832 51.5028 53.5267 51.9557L52.7689 52.713L52.1099 52.054L52.6793 51.4846L52.9127 51.718L52.5499 52.0808C52.5029 52.1278 52.5029 52.2035 52.5499 52.2505C52.5964 52.297 52.6721 52.2975 52.7196 52.2505L53.0824 51.8877L53.2218 52.0271C53.2683 52.0736 53.3441 52.0741 53.3915 52.0271C53.4385 51.9802 53.4385 51.9044 53.3915 51.8575L53.252 51.718L53.5152 51.4549C53.5621 51.4079 53.5621 51.3322 53.5152 51.2852C53.4682 51.2378 53.3925 51.2387 53.3455 51.2852L53.0824 51.5483L52.8461 51.3121C52.8859 51.2651 52.8868 51.1956 52.8423 51.1515C52.7977 51.1069 52.7287 51.1079 52.6817 51.1481L52.2039 50.6708C52.1569 50.6238 52.0812 50.6238 52.0342 50.6708C51.9872 50.7178 51.9872 50.7935 52.0342 50.8405L52.5092 51.3154L51.9403 51.8838L51.4653 51.4089C51.4183 51.3619 51.3426 51.3619 51.2956 51.4089C51.2487 51.4558 51.2487 51.5316 51.2956 51.5785L51.7706 52.0535L51.265 52.5587L50.5513 51.8465C50.547 51.8407 50.5484 51.8326 50.5432 51.8273C50.5379 51.822 50.5297 51.8234 50.524 51.8191C50.4722 51.7674 43.412 44.7148 43.3492 44.6765C43.6469 44.3118 43.9656 43.9734 44.3399 43.7213ZM36.4577 33.725C36.533 34.8029 36.1711 35.9287 35.5164 36.7838L29.5782 30.8062L30.0474 30.337L30.7893 31.0789C30.8358 31.1254 30.9115 31.1259 30.9585 31.0789C31.0055 31.032 31.0055 30.9562 30.9585 30.9098L30.2166 30.1678L30.461 29.9234C30.508 29.8764 30.508 29.8007 30.461 29.7537C30.414 29.7068 30.3383 29.7068 30.2914 29.7537L30.0469 29.9982L29.6141 29.5649C29.6367 29.5606 29.6601 29.5563 29.6779 29.5385L30.2257 28.9907L30.5157 29.2807C30.5621 29.3272 30.6379 29.3277 30.6853 29.2807C30.7323 29.2337 30.7323 29.158 30.6853 29.111L30.3954 28.8211L30.7678 28.4487C30.8147 28.4017 30.8147 28.326 30.7678 28.279C30.7208 28.232 30.6451 28.232 30.5981 28.279L30.2257 28.6514L29.8437 28.2694L30.3359 27.7772C30.3829 27.7302 30.3829 27.6545 30.3359 27.608C30.289 27.561 30.2132 27.561 30.1667 27.608L29.6745 28.1002L29.26 27.6857L29.3419 27.6037C29.3889 27.5567 29.3889 27.481 29.3419 27.4345C29.2949 27.3876 29.2192 27.3876 29.1727 27.4345L29.0908 27.5165L28.7735 27.1992L29.3735 26.5996C29.4018 26.603 29.4306 26.6059 29.4589 26.6092C29.4646 26.6236 29.4646 26.6399 29.4766 26.6514L31.1833 28.3586C31.2298 28.4051 31.3055 28.4055 31.353 28.3586C31.3999 28.3116 31.3999 28.2359 31.353 28.1889L29.8351 26.671C30.1998 26.7463 30.553 26.8575 30.8876 26.9917L31.8107 27.9148C31.8572 27.9612 31.9329 27.9617 31.9798 27.9148C32.0268 27.8678 32.0268 27.7921 31.9798 27.7456L31.5087 27.2744C33.7158 28.3936 36.2617 30.9179 36.4577 33.725ZM24.6364 34.362C24.5976 34.1185 24.5659 33.8827 24.5391 33.6531L25.1578 34.2719L24.7025 34.7272C24.6809 34.605 24.656 34.4832 24.6364 34.362ZM24.4806 31.5827L25.0279 32.1305L24.4648 32.6936C24.4495 32.3049 24.4547 31.9354 24.4806 31.5827ZM24.5525 31.3157C24.5396 31.3028 24.5218 31.3018 24.5051 31.296C24.5079 31.2702 24.5122 31.2448 24.5151 31.2189C24.518 31.2448 24.5252 31.2706 24.5448 31.2903C24.5913 31.3368 24.6671 31.3373 24.7145 31.2903L25.3275 30.6773L25.9041 31.2539L25.1976 31.9608L24.5525 31.3157ZM24.5204 31.1805C24.5678 30.8005 24.6412 30.4381 24.7409 30.0911L25.1578 30.5081C25.107 30.5594 24.5372 31.1101 24.5204 31.1805ZM24.877 29.8884C24.8583 29.8697 24.8338 29.8645 24.8099 29.8606C24.9537 29.4235 25.1473 29.0195 25.3769 28.6509L25.4986 28.7727L25.1938 29.077C25.1468 29.124 25.1468 29.1997 25.1938 29.2467C25.2412 29.2941 25.3169 29.2927 25.363 29.2467L25.6678 28.9418L26.1959 29.47L25.3275 30.3385L24.877 29.8884ZM25.8374 28.7727L26.3618 28.2483L26.888 28.7779L26.3656 29.3003L25.8374 28.7727ZM26.7107 27.7302C26.6642 27.6837 26.5885 27.6833 26.5415 27.7302L26.5319 27.7398L26.3225 27.5289C26.4912 27.3837 26.6704 27.2586 26.8549 27.1446L27.1205 27.4101L26.9781 27.5524C26.9312 27.5994 26.9312 27.6751 26.9781 27.7216C27.0246 27.7681 27.1003 27.7686 27.1478 27.7216L27.2901 27.5793L27.6721 27.9612L27.2379 28.3959C27.2273 28.4065 27.2278 28.4214 27.2221 28.4343L26.7006 27.9095L26.7107 27.8994C26.7577 27.8529 26.7577 27.7767 26.7107 27.7302ZM28.4346 27.1992L27.8418 27.7921L27.4593 27.4101L28.0522 26.8172L28.4346 27.1992ZM29.4823 29.4331L29.0817 29.0324L29.6745 28.4396L30.0565 28.8215L29.5087 29.3694C29.491 29.3866 29.4867 29.4101 29.4823 29.4331ZM28.912 28.8628L28.4974 28.4482L29.0903 27.8553L29.5049 28.2699L28.912 28.8628ZM28.3282 28.2785L28.011 27.9612L28.6038 27.3684L28.9211 27.6857L28.3282 28.2785ZM27.4071 28.5651L27.8413 28.1309L28.1586 28.4482L27.6956 28.9112L27.3683 28.5814C27.3812 28.5757 27.3965 28.5762 27.4071 28.5651ZM28.3282 28.6174L28.7428 29.0319L28.6657 29.1091C28.6187 29.1561 28.6187 29.2318 28.6657 29.2788C28.7121 29.3253 28.7879 29.3257 28.8353 29.2788L28.9125 29.2016L29.8782 30.1674L29.4095 30.6361L27.8643 29.0813L28.3282 28.6174ZM28.8799 26.5685C28.9398 26.5685 28.9987 26.5733 29.0582 26.5757L28.6038 27.0295L28.2012 26.6269C28.4284 26.5881 28.6546 26.5685 28.8799 26.5685ZM27.6266 26.7707C27.6889 26.7496 27.7517 26.7338 27.8145 26.7161L27.2901 27.2404L27.0682 27.019C27.2494 26.9222 27.4344 26.8359 27.6266 26.7707ZM25.9779 27.862L26.1931 28.0787L25.6683 28.603L25.5091 28.4439C25.6529 28.2349 25.8096 28.0408 25.9779 27.862ZM24.7552 35.0133L25.3275 34.4411L25.4497 34.5633C25.4962 34.6098 25.5719 34.6102 25.6189 34.5633C25.6659 34.5163 25.6659 34.4406 25.6189 34.3936L25.4967 34.2714L26.2515 33.5165C26.2985 33.4696 26.2985 33.3938 26.2515 33.3474C26.2046 33.3004 26.1288 33.3004 26.0824 33.3474L25.3275 34.1022L24.5031 33.2779C24.4955 33.1906 24.4868 33.102 24.4811 33.0167L25.1981 32.2997L25.7052 32.8072C25.7517 32.8537 25.8274 32.8542 25.8743 32.8072C25.9213 32.7602 25.9213 32.6845 25.8743 32.638L25.3673 32.1305L26.0737 31.424L26.3522 31.7025C26.3987 31.749 26.4744 31.7494 26.5218 31.7025C26.5688 31.6555 26.5688 31.5798 26.5218 31.5328L26.2434 31.2544L26.762 30.7358C26.8089 30.6888 26.8089 30.6131 26.762 30.5661C26.715 30.5191 26.6393 30.5191 26.5923 30.5661L26.0737 31.0847L25.4972 30.5081L26.3656 29.6397L26.9302 30.2047C26.9767 30.2512 27.0524 30.2517 27.0994 30.2047C27.1463 30.1578 27.1463 30.082 27.0994 30.0351L26.5348 29.47L27.0567 28.9481L35.203 37.148C34.2099 38.1737 32.7189 38.0514 32.4261 39.4797C31.6583 43.2219 36.9466 48.9689 40.4621 47.6092C41.644 47.1529 42.313 46.041 43.0578 45.0465C43.0578 45.0465 50.0581 52.031 50.1142 52.0871L49.7217 52.4796C49.6747 52.5265 49.6747 52.6023 49.7217 52.6492C49.7682 52.6957 49.8439 52.6962 49.8914 52.6492L50.2839 52.2567L51.9297 53.8992L51.1384 54.6905C51.0915 54.7374 51.0915 54.8132 51.1384 54.8601C51.1859 54.9076 51.2616 54.9062 51.3081 54.8601L52.0994 54.0689L52.3174 54.2864C51.9086 54.6814 51.4265 55.0068 50.9093 55.256L50.2872 54.6339L50.7128 54.2083L50.9683 54.4638C51.0148 54.5103 51.0905 54.5107 51.138 54.4638C51.1849 54.4168 51.1849 54.3411 51.138 54.2941L50.8825 54.0387L51.0843 53.8369C51.1312 53.7899 51.1312 53.7142 51.0843 53.6672C51.0373 53.6203 50.9616 53.6203 50.9146 53.6672L50.7133 53.8685L49.2678 52.423C49.2208 52.3761 49.1451 52.3761 49.0982 52.423C49.0512 52.47 49.0512 52.5457 49.0982 52.5927L49.8353 53.3298L49.4097 53.7554L48.7291 53.0744L48.8758 52.9277C48.9227 52.8807 48.9227 52.805 48.8758 52.758C48.8288 52.7111 48.7531 52.7111 48.7061 52.758L48.5594 52.9047L47.9642 52.3094C47.9172 52.2625 47.8415 52.2625 47.7945 52.3094C47.7476 52.3564 47.7476 52.4321 47.7945 52.4791L48.3898 53.0744L47.3689 54.0952L46.5748 53.3011L46.7761 53.0998C46.823 53.0528 46.823 52.9771 46.7761 52.9301C46.7291 52.8831 46.6534 52.8831 46.6064 52.9301L45.3282 54.2083L44.591 53.4707L45.0919 52.9699C45.1389 52.9229 45.1389 52.8472 45.0919 52.8002C45.0449 52.7532 44.9692 52.7532 44.9222 52.8002L44.4099 53.313C44.3663 53.2939 44.3159 53.2939 44.2805 53.3293C44.2445 53.3653 44.245 53.4151 44.2642 53.4587L43.6282 54.0947L42.9759 53.4424C42.9289 53.3955 42.8532 53.3955 42.8062 53.4424C42.7592 53.4894 42.7592 53.5651 42.8062 53.6121L43.4585 54.2644L43.1292 54.5937C43.0176 54.5467 42.903 54.5002 42.7933 54.4528C34.1414 50.711 26.5631 44.2533 24.7552 35.0133ZM43.6282 54.4341L44.2239 55.0298C43.9325 54.9224 43.6483 54.8093 43.3679 54.6943L43.6282 54.4341Z" stroke="#214842" mask="url(#path-6-outside-2_320_555)"/>
</svg>
