<svg width="141" height="140" viewBox="0 0 141 140" fill="none" xmlns="http://www.w3.org/2000/svg">
<path d="M123.951 41.0865H119.987L116.034 45.05H104.152L96.2345 49.0248L92.2814 56.9631H88.317V41.0865H60.6002V9.33325H56.6471V25.2099L52.6827 41.0865L40.8008 52.9996H28.9303V64.9014H17.0484V76.8145L13.0953 80.778V84.7528H5.1665V96.666L28.9303 124.444H36.8477L68.5176 112.543V108.568L84.3526 84.7528V80.778H88.317L92.2814 84.7528L96.2345 80.778V72.8397H104.152L116.034 60.9379L119.987 49.0248H123.951L129.887 58.9505L135.833 52.9996V45.05L123.951 41.0865Z" fill="#FAFAF5" stroke="#72C173" stroke-width="2"/>
<path d="M54.528 82.67L57.804 73.4H59.514L54.564 86.63L50.784 76.838L47.004 86.63L42.054 73.4H43.764L47.112 82.67L50.784 72.77L54.528 82.67ZM66.1832 83.156L70.3232 73.4H72.0332L66.1832 86.63L60.3332 73.4H62.0432L66.1832 83.156Z" fill="#214842"/>
</svg>
