<svg width="310" height="60" viewBox="0 0 310 60" fill="none" xmlns="http://www.w3.org/2000/svg">
<path d="M57.0078 35.2463V25.6308H52.4446C52.4772 25.5333 52.5098 25.4683 52.5424 25.3709C52.6727 25.046 52.8031 24.7537 52.9335 24.4288L55.2803 18.7764L58.3768 11.2723L51.7927 16.0476L46.8383 19.6535L46.0887 20.2057C45.4368 20.6605 44.8175 21.1153 44.133 21.6351C43.4811 22.1224 42.927 22.6096 42.3729 23.0969V11.0125H36.3103L34.5828 6.13969L32.399 0L30.2151 6.13969L28.4876 11.0125H22.425V23.0969C21.8709 22.6096 21.3168 22.1548 20.6649 21.6351C20.013 21.1153 19.3937 20.693 18.7744 20.2382C18.5137 20.0433 18.2203 19.8484 17.9596 19.6535L13.0052 16.0152L6.45371 11.2074L9.51759 18.7114L11.8318 24.3963L12.1903 25.2409C12.2229 25.3384 12.2881 25.4683 12.3207 25.5658H7.75749V35.1814L0 35.4088L7.07301 39.4369L7.79009 39.8268V45.4142H19.3937C19.5241 45.4467 19.6219 45.4792 19.7523 45.5116L16.4928 48.4678L10.3977 54.0227L18.5137 52.3985L22.4576 51.5864V60H42.3729V51.8462L46.7079 52.7233L54.824 54.3801L48.6962 48.8901L45.0782 45.5766C45.176 45.5441 45.2738 45.5116 45.4042 45.4792H57.0404V39.8917L57.7575 39.5019L64.8305 35.4737L57.0078 35.2463ZM51.5971 40.3465L50.6193 40.8988C50.2607 41.0937 49.9348 41.2886 49.5763 41.451C49.2177 41.6134 48.8592 41.8083 48.5006 41.9708C48.1421 42.1332 47.7836 42.2956 47.3924 42.4256C45.8931 42.9778 44.3611 43.4651 42.7966 43.6925C42.4055 43.7574 42.0143 43.8224 41.6232 43.8549C41.2321 43.9199 40.8409 43.9524 40.4498 43.9524C40.189 43.9524 39.8957 43.9848 39.6349 43.9848C39.9283 44.1473 40.189 44.3422 40.4824 44.5371C40.7106 44.6995 40.9061 44.8619 41.1017 45.0244L41.6884 45.5116L42.7314 46.4537L47.1643 50.5144L41.2647 49.3124L39.8631 49.02L39.1134 48.8576C38.8527 48.7926 38.5919 48.7277 38.3637 48.6302C37.3533 48.3054 36.4081 47.8506 35.528 47.2658C34.811 46.7786 34.1591 46.2263 33.5724 45.6091V54.2177H33.2138H31.5515H31.193V45.3817C30.9648 45.6416 30.704 45.9015 30.4433 46.1289C30.0847 46.4537 29.661 46.7786 29.2373 47.0384C28.3898 47.5907 27.4772 48.0455 26.4993 48.3703C26.2712 48.4678 26.0104 48.5328 25.7497 48.5977L25.0326 48.7602L23.6962 49.02L22.3924 49.2799L17.9922 50.157L22.2947 46.2588L22.3924 46.1613L23.3051 45.3492L23.8592 44.8619C24.0548 44.6995 24.2503 44.5371 24.4785 44.4071C24.6741 44.2447 24.9022 44.1148 25.0978 43.9848C24.837 43.9848 24.5763 43.9524 24.3155 43.9524C23.9244 43.9199 23.5332 43.8874 23.1421 43.8224C22.751 43.7575 22.3598 43.725 21.9687 43.66C21.5776 43.595 21.1864 43.53 20.7953 43.4326C20.4042 43.3351 20.013 43.2377 19.6545 43.1402C18.9048 42.9128 18.1226 42.6854 17.3729 42.3931C16.9817 42.2631 16.6232 42.1007 16.2647 41.9383C15.9061 41.7759 15.5476 41.6134 15.189 41.4185C14.8305 41.2561 14.472 41.0287 14.146 40.8663L13.1682 40.314L8.18123 37.4878L13.9179 37.3254L15.0587 37.2929C15.4498 37.2929 15.8409 37.2604 16.2647 37.2929C16.6558 37.2929 17.0469 37.3254 17.4707 37.3579C17.8618 37.3904 18.2529 37.4229 18.6767 37.4553C20.2412 37.6827 21.8383 37.9751 23.3377 38.4624C23.8592 38.6248 24.3481 38.8197 24.837 39.0146C24.2177 38.5273 23.5984 38.0076 23.0117 37.4553C22.588 37.098 22.1969 36.6757 21.8057 36.2859C21.4146 35.896 21.0561 35.4737 20.6649 35.0514C20.3064 34.6291 19.9478 34.2068 19.5893 33.752C19.2634 33.2972 18.9048 32.8749 18.5789 32.3877C18.2529 31.9329 17.927 31.4781 17.6336 30.9908C17.3403 30.5035 17.0469 30.0487 16.7536 29.5615C16.4602 29.0742 16.1995 28.5869 15.9713 28.0671C15.7106 27.5799 15.4824 27.0601 15.2542 26.5403C15.1239 26.2805 15.0261 26.0206 14.9283 25.7607C14.6023 25.0135 14.309 24.2664 14.0156 23.5192L11.7014 17.8343L16.6558 21.4727C17.5359 22.1224 18.3833 22.7071 19.296 23.4218C20.176 24.104 21.0561 24.8511 21.8709 25.6308C23.4681 27.19 25 28.8793 26.2712 30.7309C26.5645 31.1532 26.8253 31.5755 27.0861 31.9978C27.3468 32.4201 27.6076 32.8424 27.8683 33.2972C27.7053 32.5501 27.575 31.8029 27.4772 31.0558C27.3794 30.3086 27.2816 29.529 27.249 28.7818C27.1838 27.4499 27.1512 26.0855 27.2816 24.7212C27.3142 24.039 27.4446 23.3893 27.5098 22.7071C27.6402 22.0249 27.7053 21.3752 27.8683 20.693C27.9335 20.3682 27.9987 20.0108 28.0965 19.686L28.3898 18.6789C28.4876 18.3541 28.5854 18.0292 28.6832 17.7044C28.781 17.3795 28.9113 17.0547 29.0091 16.7298L30.3455 12.9616L31.03 11.0125L32.4967 6.88684L33.9635 11.0125L34.648 12.9616L35.9844 16.7298C36.1799 17.3795 36.4407 18.0292 36.6036 18.7114L36.897 19.7185C36.9948 20.0433 37.0274 20.4007 37.1252 20.7255C37.1903 21.0504 37.2555 21.4077 37.3207 21.7325C37.3859 22.0574 37.4185 22.4147 37.4837 22.7396C37.5163 23.0644 37.5815 23.4218 37.6141 23.7466C37.6467 24.0715 37.6793 24.4288 37.7119 24.7537C37.8422 26.118 37.8096 27.4499 37.7445 28.8143C37.6467 30.3411 37.4511 31.8354 37.1252 33.3297C37.6141 32.4526 38.1682 31.608 38.7223 30.7959C39.0482 30.3411 39.3742 29.8863 39.7001 29.4315C40.0587 29.0092 40.4172 28.5544 40.7757 28.1321C41.4928 27.2875 42.3077 26.4754 43.09 25.6957L43.1226 25.6632C43.9374 24.8836 44.7849 24.1689 45.6649 23.4867C46.5776 22.7721 47.425 22.1873 48.3051 21.5376L53.2594 17.9318L50.9126 23.5842C50.6193 24.2664 50.3585 24.9486 50.0652 25.6308C49.9348 25.9556 49.8044 26.2805 49.674 26.6053C49.2177 27.6448 48.7288 28.6519 48.1421 29.6264C47.0013 31.5755 45.7301 33.4272 44.2308 35.1164C43.4811 35.9285 42.7314 36.7731 41.884 37.5203C41.2973 38.0726 40.678 38.5923 40.0587 39.0796C40.5476 38.8847 41.0691 38.6898 41.558 38.5273C41.9492 38.3974 42.3077 38.2999 42.6988 38.17C43.09 38.0726 43.4811 37.9751 43.8722 37.9101C44.6545 37.7477 45.4368 37.6178 46.219 37.5203C46.6102 37.4553 47.0013 37.4228 47.425 37.4228C47.8162 37.3904 48.2073 37.3904 48.631 37.3579C49.0222 37.3579 49.4133 37.3579 49.837 37.3579L50.9778 37.3904L56.7145 37.5528L51.5971 40.3465Z" fill="white"/>
<path d="M96.8743 44.5427H90.2392C89.1008 42.7863 88.1575 41.3877 87.3769 40.3469C86.6288 39.3061 85.6856 38.1027 84.5472 36.7366H83.8642V41.9732C83.8642 42.2659 83.9292 42.5261 84.0268 42.7213C84.1244 42.9164 84.3521 43.079 84.6448 43.2417C84.8074 43.3067 85.0351 43.3718 85.3604 43.4368C85.6856 43.5019 85.9783 43.5669 86.206 43.5669V44.5102H77.0339V43.5995C77.2616 43.5669 77.5868 43.5344 77.9771 43.5019C78.3674 43.4694 78.6276 43.4043 78.7902 43.3393C79.1155 43.2092 79.3106 43.0465 79.4082 42.8514C79.5058 42.6562 79.5708 42.396 79.5708 42.1033V29.9063C79.5708 29.6136 79.5383 29.3859 79.4407 29.1907C79.3432 28.9956 79.148 28.833 78.7902 28.6703C78.53 28.5728 78.2373 28.4752 77.8795 28.4101C77.5218 28.3451 77.2616 28.28 77.0339 28.2475V27.3043H86.7264C88.9056 27.3043 90.5319 27.6295 91.6703 28.3125C92.8087 28.9956 93.3616 30.0039 93.3616 31.4025C93.3616 32.6059 93.0038 33.5817 92.3208 34.3297C91.6377 35.0778 90.5644 35.6307 89.1333 36.0536C89.6862 36.7691 90.3367 37.5823 91.0523 38.5255C91.8004 39.4687 92.5485 40.4445 93.3616 41.4203C93.6218 41.7455 93.947 42.1358 94.4024 42.5912C94.8252 43.0465 95.2155 43.3392 95.5408 43.4368C95.7359 43.5019 95.9636 43.5344 96.2563 43.5669C96.5491 43.5994 96.7442 43.632 96.8743 43.632V44.5427ZM88.5804 31.6952C88.5804 30.5568 88.2551 29.7111 87.6046 29.1582C86.9541 28.6378 86.0434 28.3451 84.84 28.3451H83.8642V35.5982H84.7749C85.9783 35.5982 86.889 35.273 87.5396 34.655C88.2551 34.037 88.5804 33.0612 88.5804 31.6952Z" fill="white"/>
<path d="M110.145 41.648C109.852 42.1033 109.527 42.5587 109.104 42.949C108.714 43.3718 108.258 43.6971 107.738 43.9898C107.185 44.315 106.632 44.5427 106.079 44.7053C105.526 44.868 104.876 44.933 104.16 44.933C102.957 44.933 101.916 44.7704 101.038 44.4126C100.159 44.0874 99.4438 43.5995 98.8584 43.0465C98.2729 42.4611 97.8501 41.7781 97.5899 40.9975C97.2972 40.2168 97.1671 39.3712 97.1671 38.428C97.1671 37.6148 97.3297 36.8017 97.6224 36.0536C97.9151 35.3055 98.3705 34.6225 98.9234 34.037C99.4764 33.4516 100.159 32.9962 101.005 32.6384C101.851 32.2807 102.794 32.118 103.835 32.118C104.973 32.118 105.916 32.2481 106.632 32.5409C107.347 32.8336 107.965 33.1914 108.453 33.6793C108.909 34.1346 109.266 34.6875 109.462 35.3055C109.689 35.9235 109.787 36.6065 109.787 37.2896V38.0702H101.558C101.558 39.729 101.883 40.9975 102.534 41.8756C103.184 42.7538 104.193 43.1767 105.591 43.1767C106.339 43.1767 107.055 42.9815 107.64 42.5587C108.258 42.1358 108.779 41.6154 109.201 40.9649L110.145 41.648ZM105.494 36.9968C105.494 36.509 105.461 36.0211 105.428 35.5007C105.396 34.9803 105.298 34.5574 105.168 34.2322C105.038 33.8419 104.843 33.5492 104.615 33.354C104.388 33.1588 104.062 33.0613 103.705 33.0613C103.087 33.0613 102.566 33.3865 102.208 34.0045C101.851 34.6225 101.623 35.6308 101.59 37.0294L105.494 36.9968Z" fill="white"/>
<path d="M119.024 44.5427H111.348V43.6645C111.576 43.6645 111.771 43.632 111.966 43.5994C112.161 43.5669 112.356 43.5344 112.486 43.4693C112.747 43.3718 112.942 43.2417 113.007 43.0465C113.104 42.8514 113.137 42.6237 113.137 42.331V28.8329C113.137 28.5077 113.072 28.2475 112.942 27.9873C112.812 27.7271 112.649 27.5319 112.421 27.3693C112.259 27.2717 111.999 27.1742 111.673 27.0766C111.348 26.979 111.055 26.914 110.795 26.914V26.0358L116.942 25.7105L117.138 25.9057V42.2009C117.138 42.4936 117.203 42.7538 117.3 42.9164C117.398 43.1116 117.593 43.2417 117.821 43.3392C117.983 43.4043 118.146 43.4693 118.341 43.5344C118.536 43.5994 118.731 43.632 118.992 43.6645V44.5427H119.024Z" fill="white"/>
<path d="M133.53 41.648C133.238 42.1033 132.912 42.5587 132.49 42.949C132.099 43.3718 131.644 43.6971 131.124 43.9898C130.571 44.315 130.018 44.5427 129.465 44.7053C128.912 44.868 128.261 44.933 127.546 44.933C126.342 44.933 125.301 44.7704 124.423 44.4126C123.545 44.0874 122.83 43.5995 122.244 43.0465C121.659 42.4611 121.236 41.7781 120.976 40.9975C120.683 40.2168 120.553 39.3712 120.553 38.428C120.553 37.6148 120.715 36.8017 121.008 36.0536C121.301 35.3055 121.756 34.6225 122.309 34.037C122.862 33.4516 123.545 32.9962 124.391 32.6384C125.236 32.2807 126.18 32.118 127.22 32.118C128.359 32.118 129.302 32.2481 130.018 32.5409C130.733 32.8336 131.351 33.1914 131.839 33.6793C132.294 34.1346 132.652 34.6875 132.847 35.3055C133.075 35.9235 133.173 36.6065 133.173 37.2896V38.0702H124.944C124.944 39.729 125.269 40.9975 125.919 41.8756C126.57 42.7538 127.578 43.1767 128.977 43.1767C129.725 43.1767 130.44 42.9815 131.026 42.5587C131.644 42.1358 132.164 41.6154 132.587 40.9649L133.53 41.648ZM128.847 36.9968C128.847 36.509 128.814 36.0211 128.782 35.5007C128.749 34.9803 128.652 34.5574 128.522 34.2322C128.391 33.8419 128.196 33.5492 127.969 33.354C127.741 33.1588 127.416 33.0613 127.058 33.0613C126.44 33.0613 125.919 33.3865 125.562 34.0045C125.204 34.6225 124.976 35.6308 124.944 37.0294L128.847 36.9968Z" fill="white"/>
<path d="M149.37 44.2824C149.012 44.445 148.59 44.5751 148.102 44.7052C147.614 44.8353 147.093 44.9004 146.573 44.9004C145.565 44.9004 144.849 44.7377 144.361 44.445C143.906 44.1523 143.581 43.7295 143.386 43.1765H143.321C143.028 43.4693 142.768 43.6969 142.507 43.8921C142.247 44.0872 141.987 44.2499 141.694 44.38C141.304 44.5426 140.946 44.7052 140.588 44.7703C140.231 44.8678 139.743 44.9004 139.092 44.9004C138.149 44.9004 137.336 44.6076 136.685 44.0547C136.002 43.5018 135.677 42.7537 135.677 41.843C135.677 41.3226 135.742 40.8672 135.905 40.5094C136.035 40.1517 136.263 39.8264 136.523 39.5337C136.75 39.2735 137.043 39.0458 137.368 38.8832C137.694 38.7206 138.051 38.5579 138.409 38.3953C139.157 38.1351 140.035 37.8424 141.044 37.5496C142.085 37.2569 142.833 36.9967 143.288 36.769V35.5981C143.288 35.403 143.255 35.1428 143.255 34.785C143.255 34.4272 143.158 34.167 143.06 33.9393C142.963 33.6791 142.768 33.4514 142.54 33.2888C142.312 33.1262 141.987 33.0286 141.564 33.0286C141.206 33.0286 140.914 33.0937 140.653 33.1912C140.426 33.2888 140.231 33.3864 140.068 33.5165C140.101 33.6791 140.166 33.9393 140.263 34.2646C140.393 34.5898 140.426 34.9151 140.426 35.2403C140.426 35.3704 140.393 35.5656 140.328 35.7607C140.263 35.9559 140.166 36.1185 140.003 36.2486C139.808 36.4113 139.613 36.5414 139.385 36.6389C139.157 36.7365 138.799 36.769 138.312 36.769C137.629 36.769 137.108 36.6064 136.75 36.2812C136.393 35.9559 136.23 35.5331 136.23 34.9801C136.23 34.5248 136.425 34.102 136.783 33.7442C137.141 33.3864 137.596 33.0937 138.116 32.8335C138.637 32.6058 139.222 32.4106 139.873 32.2805C140.556 32.1504 141.141 32.0854 141.727 32.0854C142.507 32.0854 143.223 32.1179 143.906 32.2155C144.556 32.3131 145.142 32.5082 145.695 32.8009C146.183 33.0937 146.606 33.484 146.898 34.0369C147.191 34.5898 147.354 35.2729 147.354 36.1511C147.354 37.0618 147.321 38.1676 147.289 39.4036C147.256 40.6721 147.224 41.4852 147.224 41.8755C147.224 42.2333 147.289 42.526 147.386 42.7537C147.484 42.9814 147.679 43.1115 147.907 43.2416C148.037 43.3066 148.264 43.3391 148.557 43.3717C148.85 43.3717 149.11 43.4042 149.37 43.4042V44.2824ZM143.321 37.9399C142.865 38.1026 142.41 38.2652 141.954 38.4604C141.499 38.6555 141.141 38.8832 140.849 39.0783C140.556 39.306 140.296 39.5987 140.133 39.9565C139.97 40.3143 139.873 40.7371 139.873 41.1925C139.873 41.843 140.003 42.2983 140.296 42.5585C140.588 42.8513 140.946 42.9814 141.369 42.9814C141.824 42.9814 142.182 42.8838 142.475 42.7212C142.768 42.5585 143.028 42.2983 143.255 42.0381L143.321 37.9399Z" fill="white"/>
<path d="M162.576 27.7596C162.576 27.9547 162.543 28.1824 162.478 28.4426C162.413 28.6703 162.315 28.898 162.153 29.0606C161.99 29.2558 161.795 29.4184 161.567 29.516C161.34 29.6135 161.047 29.6786 160.624 29.6786C159.974 29.6786 159.486 29.4509 159.128 28.9956C158.77 28.5402 158.38 27.7921 157.957 26.7513C157.632 26.8814 157.371 27.2392 157.176 27.8247C156.981 28.4101 156.884 29.6461 156.884 31.5325V32.5083H160.234V33.8418H156.884V42.2334C156.884 42.5586 156.949 42.7863 157.111 42.9815C157.241 43.1441 157.437 43.2742 157.697 43.3718C157.892 43.4368 158.152 43.5019 158.477 43.5669C158.803 43.632 159.063 43.6645 159.323 43.697V44.5752H151.094V43.697C151.322 43.697 151.517 43.6645 151.712 43.632C151.907 43.5994 152.102 43.5669 152.232 43.5019C152.493 43.4043 152.688 43.2742 152.753 43.079C152.85 42.8839 152.883 42.6562 152.883 42.3635V33.8418H150.411V32.5083H152.883C152.883 31.6301 153.013 30.7845 153.273 29.9713C153.533 29.1582 153.924 28.4426 154.444 27.7921C154.965 27.1741 155.615 26.6537 156.461 26.2634C157.306 25.8731 158.282 25.678 159.421 25.678C160.429 25.678 161.209 25.8731 161.762 26.2634C162.315 26.6212 162.576 27.1416 162.576 27.7596Z" fill="white"/>
<path d="M176.594 45.0305C175.553 45.0305 174.545 44.9004 173.634 44.6402C172.723 44.38 171.943 44.0547 171.325 43.697L170.479 44.5426H169.438L169.276 38.2978H170.317C170.544 38.8832 170.837 39.5337 171.227 40.1842C171.585 40.8347 172.008 41.4202 172.496 41.9406C172.984 42.4935 173.537 42.9164 174.154 43.2741C174.772 43.5994 175.488 43.7945 176.301 43.7945C177.407 43.7945 178.253 43.5343 178.838 42.9814C179.424 42.4285 179.716 41.7454 179.716 40.9323C179.716 40.2493 179.456 39.6964 178.968 39.241C178.48 38.7857 177.7 38.3953 176.659 38.0376C175.976 37.8099 175.358 37.6147 174.772 37.4196C174.187 37.2244 173.667 37.0293 173.146 36.8341C171.975 36.3788 171.13 35.6957 170.544 34.8501C169.991 33.9719 169.699 33.0287 169.699 31.9553C169.699 31.2723 169.829 30.6218 170.121 30.0038C170.414 29.3858 170.837 28.8329 171.39 28.3125C171.91 27.8571 172.626 27.4668 173.439 27.1741C174.285 26.8814 175.195 26.7513 176.171 26.7513C177.114 26.7513 178.025 26.8814 178.871 27.1416C179.716 27.4018 180.367 27.662 180.855 27.9547L181.603 27.2392H182.676L182.774 33.1262H181.765C181.538 32.4757 181.245 31.8577 180.92 31.1747C180.595 30.5242 180.237 29.9713 179.879 29.5159C179.489 29.0281 179.033 28.6703 178.513 28.3775C177.992 28.0848 177.374 27.9547 176.691 27.9547C175.813 27.9547 175.098 28.2149 174.545 28.7028C173.992 29.1907 173.699 29.8087 173.699 30.5567C173.699 31.2398 173.927 31.8252 174.415 32.2481C174.903 32.7034 175.651 33.0612 176.691 33.419C177.277 33.6141 177.895 33.8418 178.545 34.037C179.163 34.2321 179.716 34.4273 180.204 34.6224C181.375 35.0778 182.286 35.6957 182.904 36.5089C183.522 37.322 183.815 38.2978 183.815 39.5012C183.815 40.2493 183.652 40.9648 183.294 41.6804C182.936 42.3634 182.481 42.9489 181.896 43.4368C181.245 43.9572 180.497 44.3475 179.651 44.6077C178.708 44.8679 177.732 45.0305 176.594 45.0305Z" fill="white"/>
<path d="M199.98 38.6231C199.98 40.3469 199.394 41.8105 198.256 43.0465C197.117 44.2825 195.654 44.9004 193.897 44.9004C193.117 44.9004 192.499 44.8354 192.011 44.6728C191.523 44.5101 191.133 44.315 190.808 44.0873H190.71V47.5025C190.71 47.7952 190.775 48.0229 190.905 48.2506C191.035 48.4782 191.198 48.6083 191.426 48.7059C191.653 48.8035 191.946 48.8685 192.369 48.9336C192.759 48.9986 193.117 49.0637 193.377 49.0637V49.9744H184.563V49.0637C184.758 49.0312 185.018 49.0312 185.343 48.9661C185.669 48.9336 185.896 48.8685 186.026 48.836C186.287 48.7384 186.449 48.6083 186.547 48.3807C186.644 48.153 186.677 47.9253 186.677 47.6326V35.1754C186.644 34.9152 186.579 34.6875 186.482 34.4598C186.384 34.2647 186.221 34.0695 185.994 33.9394C185.831 33.8418 185.603 33.7443 185.343 33.6792C185.083 33.6142 184.823 33.5491 184.563 33.5491V32.6709L190.515 32.3457L190.71 32.5083V33.8744L190.808 33.9069C191.328 33.354 191.946 32.9311 192.596 32.6384C193.247 32.3457 193.897 32.183 194.548 32.183C196.239 32.183 197.54 32.7685 198.516 33.9719C199.492 35.1103 199.98 36.6715 199.98 38.6231ZM195.621 38.6556C195.621 38.0376 195.589 37.4521 195.491 36.8992C195.394 36.3463 195.231 35.8584 195.003 35.403C194.776 34.9802 194.483 34.6224 194.125 34.3622C193.767 34.102 193.312 33.9719 192.792 33.9719C192.271 33.9719 191.848 34.0695 191.523 34.2321C191.198 34.4273 190.938 34.655 190.71 34.9477V41.8431C190.742 42.0057 190.84 42.2008 191.003 42.461C191.133 42.7213 191.263 42.9164 191.426 43.079C191.621 43.3067 191.848 43.4693 192.109 43.5669C192.369 43.6645 192.661 43.7295 192.954 43.7295C193.767 43.7295 194.385 43.3067 194.873 42.4285C195.361 41.6154 195.621 40.3469 195.621 38.6556Z" fill="white"/>
<path d="M214.551 41.648C214.258 42.1033 213.933 42.5587 213.51 42.949C213.12 43.3718 212.665 43.6971 212.144 43.9898C211.591 44.315 211.038 44.5427 210.485 44.7053C209.932 44.868 209.282 44.933 208.566 44.933C207.363 44.933 206.322 44.7704 205.444 44.4126C204.566 44.0874 203.85 43.5995 203.265 43.0465C202.679 42.4611 202.256 41.7781 201.996 40.9975C201.703 40.2168 201.573 39.3712 201.573 38.428C201.573 37.6148 201.736 36.8017 202.029 36.0536C202.321 35.3055 202.777 34.6225 203.33 34.037C203.883 33.4516 204.566 32.9962 205.411 32.6384C206.257 32.2807 207.2 32.118 208.241 32.118C209.379 32.118 210.323 32.2481 211.038 32.5409C211.754 32.8336 212.372 33.1914 212.86 33.6793C213.315 34.1346 213.673 34.6875 213.868 35.3055C214.096 35.9235 214.193 36.6065 214.193 37.2896V38.0702H205.964C205.964 39.729 206.29 40.9975 206.94 41.8756C207.591 42.7538 208.599 43.1767 209.997 43.1767C210.746 43.1767 211.461 42.9815 212.047 42.5587C212.665 42.1358 213.185 41.6154 213.608 40.9649L214.551 41.648ZM209.9 36.9968C209.9 36.509 209.867 36.0211 209.835 35.5007C209.802 34.9803 209.705 34.5574 209.575 34.2322C209.444 33.8419 209.249 33.5492 209.022 33.354C208.794 33.1588 208.469 33.0613 208.111 33.0613C207.493 33.0613 206.973 33.3865 206.615 34.0045C206.257 34.6225 206.029 35.6308 205.997 37.0294L209.9 36.9968Z" fill="white"/>
<path d="M222.91 44.933C221.772 44.933 220.796 44.7704 219.918 44.4451C219.039 44.1199 218.324 43.6645 217.771 43.1116C217.218 42.5261 216.795 41.8431 216.502 41.0625C216.242 40.2819 216.08 39.4037 216.08 38.493C216.08 37.6473 216.242 36.8342 216.6 36.0861C216.925 35.338 217.381 34.655 217.966 34.0696C218.552 33.4841 219.3 32.9962 220.178 32.6384C221.056 32.2807 222.032 32.118 223.105 32.118C224.601 32.118 225.772 32.4108 226.65 32.9637C227.529 33.5166 227.951 34.2972 227.951 35.2405C227.951 35.8259 227.789 36.2813 227.496 36.6391C227.171 36.9968 226.65 37.1595 225.902 37.1595C225.284 37.1595 224.796 37.0294 224.374 36.7366C223.951 36.4439 223.756 36.0536 223.756 35.5982C223.756 35.2079 223.821 34.8176 223.951 34.4273C224.081 34.037 224.146 33.7443 224.178 33.5492C224.081 33.4191 223.983 33.289 223.853 33.2239C223.723 33.1589 223.495 33.0938 223.203 33.0938C222.845 33.0938 222.52 33.1914 222.194 33.354C221.902 33.5166 221.609 33.8094 221.349 34.2647C221.089 34.6875 220.893 35.2079 220.731 35.891C220.568 36.574 220.503 37.3871 220.503 38.3629C220.503 39.794 220.828 40.9649 221.511 41.8756C222.194 42.7538 223.008 43.2092 223.951 43.2092C224.861 43.2092 225.577 43.014 226.097 42.5912C226.618 42.2009 227.106 41.6154 227.529 40.8674L228.439 41.4853C228.179 41.9732 227.886 42.4286 227.529 42.8514C227.171 43.2742 226.748 43.632 226.26 43.9573C225.74 44.2825 225.219 44.5427 224.699 44.7053C224.178 44.868 223.626 44.933 222.91 44.933Z" fill="white"/>
<path d="M237.676 44.5427H229.968V43.6645C230.163 43.6645 230.391 43.632 230.586 43.5994C230.781 43.5669 230.976 43.5344 231.106 43.4693C231.366 43.3718 231.562 43.2417 231.659 43.0465C231.757 42.8513 231.822 42.6237 231.822 42.3309V35.2404C231.822 34.9477 231.757 34.72 231.627 34.4923C231.497 34.2647 231.334 34.102 231.139 33.9719C231.009 33.8744 230.781 33.7768 230.488 33.6792C230.196 33.5816 229.935 33.5491 229.675 33.5166V32.6384L235.66 32.3131L235.855 32.5083V42.2009C235.855 42.4936 235.92 42.7213 236.05 42.9164C236.18 43.1116 236.343 43.2742 236.571 43.3718C236.733 43.4368 236.896 43.5019 237.091 43.5669C237.286 43.632 237.481 43.6645 237.709 43.697V44.5427H237.676ZM235.888 27.9222C235.888 28.5402 235.66 29.0606 235.172 29.516C234.684 29.9388 234.131 30.1665 233.481 30.1665C232.83 30.1665 232.245 29.9388 231.789 29.516C231.301 29.0931 231.074 28.5402 231.074 27.9222C231.074 27.3042 231.301 26.7838 231.789 26.3285C232.277 25.8731 232.83 25.678 233.481 25.678C234.131 25.678 234.717 25.9057 235.172 26.3285C235.66 26.7838 235.888 27.3042 235.888 27.9222Z" fill="white"/>
<path d="M253.972 44.2824C253.614 44.445 253.191 44.5751 252.703 44.7052C252.215 44.8353 251.695 44.9004 251.174 44.9004C250.166 44.9004 249.451 44.7377 248.963 44.445C248.507 44.1523 248.182 43.7295 247.987 43.1765H247.922C247.629 43.4693 247.369 43.6969 247.109 43.8921C246.849 44.0872 246.588 44.2499 246.296 44.38C245.905 44.5426 245.548 44.7052 245.19 44.7703C244.832 44.8678 244.344 44.9004 243.694 44.9004C242.75 44.9004 241.937 44.6076 241.287 44.0547C240.604 43.5018 240.278 42.7537 240.278 41.843C240.278 41.3226 240.343 40.8672 240.506 40.5094C240.636 40.1517 240.864 39.8264 241.124 39.5337C241.352 39.2735 241.644 39.0458 241.97 38.8832C242.295 38.7206 242.653 38.5579 243.011 38.3953C243.759 38.1351 244.637 37.8424 245.645 37.5496C246.686 37.2569 247.434 36.9967 247.889 36.769V35.5981C247.889 35.403 247.857 35.1428 247.857 34.785C247.857 34.4272 247.759 34.167 247.662 33.9393C247.564 33.6791 247.369 33.4514 247.141 33.2888C246.914 33.1262 246.588 33.0286 246.166 33.0286C245.808 33.0286 245.515 33.0937 245.255 33.1912C245.027 33.2888 244.832 33.3864 244.669 33.5165C244.702 33.6791 244.767 33.9393 244.865 34.2646C244.995 34.5898 245.027 34.9151 245.027 35.2403C245.027 35.3704 244.995 35.5656 244.93 35.7607C244.865 35.9559 244.767 36.1185 244.604 36.2486C244.409 36.4113 244.214 36.5414 243.986 36.6389C243.759 36.7365 243.401 36.769 242.913 36.769C242.23 36.769 241.71 36.6064 241.352 36.2812C240.994 35.9559 240.831 35.5331 240.831 34.9801C240.831 34.5248 241.027 34.102 241.384 33.7442C241.742 33.3864 242.197 33.0937 242.718 32.8335C243.238 32.6058 243.824 32.4106 244.474 32.2805C245.157 32.1504 245.743 32.0854 246.328 32.0854C247.109 32.0854 247.824 32.1179 248.507 32.2155C249.158 32.3131 249.743 32.5082 250.296 32.8009C250.784 33.0937 251.207 33.484 251.5 34.0369C251.792 34.5898 251.955 35.2729 251.955 36.1511C251.955 37.0618 251.922 38.1676 251.89 39.4036C251.857 40.6721 251.825 41.4852 251.825 41.8755C251.825 42.2333 251.89 42.526 251.988 42.7537C252.085 42.9814 252.28 43.1115 252.508 43.2416C252.638 43.3066 252.866 43.3391 253.158 43.3717C253.451 43.3717 253.711 43.4042 253.972 43.4042V44.2824ZM247.922 37.9399C247.467 38.1026 247.011 38.2652 246.556 38.4604C246.1 38.6555 245.743 38.8832 245.45 39.0783C245.157 39.306 244.897 39.5987 244.734 39.9565C244.572 40.3143 244.474 40.7371 244.474 41.1925C244.474 41.843 244.604 42.2983 244.897 42.5585C245.19 42.8513 245.548 42.9814 245.97 42.9814C246.426 42.9814 246.783 42.8838 247.076 42.7212C247.369 42.5585 247.629 42.2983 247.857 42.0381L247.922 37.9399Z" fill="white"/>
<path d="M263.111 44.5427H255.435V43.6645C255.663 43.6645 255.858 43.632 256.053 43.5994C256.248 43.5669 256.444 43.5344 256.574 43.4693C256.834 43.3718 257.029 43.2417 257.094 43.0465C257.192 42.8514 257.224 42.6237 257.224 42.331V28.8329C257.224 28.5077 257.159 28.2475 257.029 27.9873C256.899 27.7271 256.736 27.5319 256.509 27.3693C256.346 27.2717 256.086 27.1742 255.761 27.0766C255.435 26.979 255.143 26.914 254.882 26.914V26.0358L261.03 25.7105L261.225 25.9057V42.2009C261.225 42.4936 261.29 42.7538 261.387 42.9164C261.485 43.1116 261.68 43.2417 261.908 43.3392C262.07 43.4043 262.233 43.4693 262.428 43.5344C262.623 43.5994 262.819 43.632 263.079 43.6645V44.5427H263.111Z" fill="white"/>
<path d="M272.218 44.5427H264.51V43.6645C264.705 43.6645 264.933 43.632 265.128 43.5994C265.323 43.5669 265.518 43.5344 265.648 43.4693C265.908 43.3718 266.104 43.2417 266.201 43.0465C266.299 42.8513 266.364 42.6237 266.364 42.3309V35.2404C266.364 34.9477 266.299 34.72 266.169 34.4923C266.038 34.2647 265.876 34.102 265.681 33.9719C265.551 33.8744 265.323 33.7768 265.03 33.6792C264.737 33.5816 264.477 33.5491 264.217 33.5166V32.6384L270.202 32.3131L270.397 32.5083V42.2009C270.397 42.4936 270.462 42.7213 270.592 42.9164C270.722 43.1116 270.885 43.2742 271.112 43.3718C271.275 43.4368 271.438 43.5019 271.633 43.5669C271.828 43.632 272.023 43.6645 272.251 43.697V44.5427H272.218ZM270.429 27.9222C270.429 28.5402 270.202 29.0606 269.714 29.516C269.226 29.9388 268.673 30.1665 268.023 30.1665C267.372 30.1665 266.787 29.9388 266.331 29.516C265.843 29.0931 265.616 28.5402 265.616 27.9222C265.616 27.3042 265.843 26.7838 266.331 26.3285C266.819 25.9057 267.372 25.678 268.023 25.678C268.673 25.678 269.258 25.9057 269.714 26.3285C270.202 26.7838 270.429 27.3042 270.429 27.9222Z" fill="white"/>
<path d="M279.211 44.9654C278.431 44.9654 277.65 44.8353 276.902 44.6076C276.154 44.38 275.569 44.1198 275.146 43.8596L274.788 44.6727H273.845L273.682 40.1191H274.56C274.69 40.4769 274.886 40.8998 275.178 41.3551C275.471 41.8105 275.796 42.2333 276.154 42.5911C276.544 42.9488 276.967 43.2741 277.455 43.5018C277.943 43.762 278.463 43.8921 279.049 43.8921C279.797 43.8921 280.35 43.762 280.708 43.4693C281.065 43.1765 281.26 42.7212 281.26 42.1357C281.26 41.8105 281.195 41.5503 281.033 41.3226C280.87 41.1274 280.642 40.9323 280.35 40.7696C280.025 40.607 279.699 40.4769 279.309 40.3468C278.919 40.2167 278.463 40.0866 277.91 39.924C277.357 39.7614 276.87 39.5987 276.479 39.4361C276.089 39.2735 275.666 39.0133 275.243 38.6555C274.886 38.3302 274.593 37.9725 274.365 37.5171C274.137 37.0618 274.04 36.5414 274.04 35.9234C274.04 34.785 274.528 33.8418 275.471 33.1587C276.447 32.4432 277.683 32.0854 279.244 32.0854C279.992 32.0854 280.675 32.1504 281.293 32.3131C281.911 32.4757 282.431 32.6383 282.854 32.8009L283.114 32.0854H284.025L284.22 36.2486H283.375C283.082 35.403 282.594 34.6874 281.911 34.0694C281.228 33.4515 280.48 33.1587 279.667 33.1587C279.049 33.1587 278.561 33.2888 278.203 33.549C277.845 33.8092 277.683 34.167 277.683 34.6224C277.683 35.2403 277.943 35.6957 278.463 35.9559C278.984 36.2161 279.732 36.4763 280.675 36.7365C282.139 37.0943 283.179 37.6147 283.863 38.2652C284.546 38.9157 284.871 39.7288 284.871 40.7371C284.871 42.0707 284.35 43.1115 283.31 43.827C282.269 44.6076 280.903 44.9654 279.211 44.9654Z" fill="white"/>
<path d="M296.547 43.9897C296.027 44.2174 295.474 44.4126 294.888 44.6077C294.303 44.8029 293.587 44.8679 292.709 44.8679C291.441 44.8679 290.498 44.5752 289.88 43.9572C289.262 43.3392 288.969 42.4611 288.969 41.3227V33.8418H286.79V32.5083H289.034V28.8004H292.969V32.5083H296.385V33.8418H292.969V40.5095C292.969 41.4528 293.1 42.1358 293.36 42.5261C293.62 42.9164 294.108 43.1116 294.791 43.1116C295.019 43.1116 295.311 43.1116 295.702 43.079C296.092 43.0465 296.352 43.014 296.515 42.9815V43.9897H296.547Z" fill="white"/>
<path d="M304.256 44.9654C303.475 44.9654 302.695 44.8353 301.947 44.6076C301.198 44.38 300.613 44.1198 300.19 43.8596L299.832 44.6727H298.889L298.727 40.1191H299.605C299.735 40.4769 299.93 40.8998 300.223 41.3551C300.515 41.8105 300.841 42.2333 301.198 42.5911C301.589 42.9488 302.012 43.2741 302.499 43.5018C302.987 43.762 303.508 43.8921 304.093 43.8921C304.841 43.8921 305.394 43.762 305.752 43.4693C306.11 43.1765 306.305 42.7212 306.305 42.1357C306.305 41.8105 306.207 41.5503 306.077 41.3226C305.915 41.1274 305.687 40.9323 305.394 40.7696C305.069 40.607 304.744 40.4769 304.353 40.3468C303.963 40.2167 303.508 40.0866 302.955 39.924C302.402 39.7614 301.914 39.5987 301.524 39.4361C301.133 39.2735 300.711 39.0133 300.288 38.6555C299.93 38.3302 299.637 37.9725 299.41 37.5171C299.182 37.0618 299.084 36.5414 299.084 35.9234C299.084 34.785 299.572 33.8418 300.515 33.1587C301.491 32.4432 302.727 32.0854 304.288 32.0854C305.036 32.0854 305.719 32.1504 306.337 32.3131C306.955 32.4757 307.476 32.6383 307.899 32.8009L308.159 32.0854H309.07L309.265 36.2486H308.419C308.126 35.403 307.638 34.6874 306.955 34.0694C306.272 33.4515 305.524 33.1587 304.711 33.1587C304.093 33.1587 303.605 33.2888 303.248 33.549C302.89 33.8092 302.727 34.167 302.727 34.6224C302.727 35.2403 302.987 35.6957 303.508 35.9559C304.028 36.2161 304.776 36.4763 305.719 36.7365C307.183 37.0943 308.224 37.6147 308.907 38.2652C309.59 38.9157 309.915 39.7288 309.915 40.7371C309.915 42.0707 309.395 43.1115 308.354 43.827C307.313 44.6076 305.947 44.9654 304.256 44.9654Z" fill="white"/>
</svg>
