<svg width="60" height="60" viewBox="0 0 60 60" fill="none" xmlns="http://www.w3.org/2000/svg">
<path d="M52.7602 35.2463V25.6308H48.537C48.5671 25.5333 48.5973 25.4683 48.6274 25.3709C48.7481 25.046 48.8688 24.7537 48.9894 24.4288L51.1614 18.7764L54.0272 11.2723L47.9336 16.0476L43.3484 19.6535L42.6546 20.2057C42.0513 20.6605 41.4781 21.1153 40.8446 21.6351C40.2413 22.1224 39.7285 22.6096 39.2157 23.0969V11.0125H33.6048L32.006 6.13969L29.9849 0L27.9638 6.13969L26.365 11.0125H20.7541V23.0969C20.2413 22.6096 19.7285 22.1548 19.1252 21.6351C18.5219 21.1153 17.9487 20.693 17.3756 20.2382C17.1342 20.0433 16.8627 19.8484 16.6214 19.6535L12.0362 16.0152L5.97285 11.2074L8.80844 18.7114L10.9502 24.3963L11.282 25.2409C11.3122 25.3384 11.3725 25.4683 11.4027 25.5658H7.17948V35.1814L0 35.4088L6.546 39.4369L7.20965 39.8267V45.4142H17.9487C18.0694 45.4467 18.1599 45.4792 18.2805 45.5116L15.264 48.4678L9.62292 54.0227L17.1342 52.3985L20.7843 51.5864V60H39.2157V51.8462L43.2278 52.7233L50.7391 54.3801L45.0679 48.8901L41.7195 45.5766C41.81 45.5441 41.9005 45.5116 42.0211 45.4792H52.7903V39.8917L53.454 39.5019L60 35.4737L52.7602 35.2463ZM47.7526 40.3465L46.8477 40.8988C46.5158 41.0937 46.2142 41.2886 45.8824 41.451C45.5505 41.6134 45.2187 41.8083 44.8869 41.9708C44.5551 42.1332 44.2232 42.2956 43.8612 42.4256C42.4736 42.9778 41.0558 43.4651 39.6078 43.6925C39.2459 43.7574 38.8839 43.8224 38.5219 43.8549C38.1599 43.9199 37.7979 43.9524 37.4359 43.9524C37.1946 43.9524 36.9231 43.9848 36.6818 43.9848C36.9532 44.1473 37.1946 44.3422 37.4661 44.5371C37.6772 44.6995 37.8582 44.8619 38.0392 45.0244L38.5822 45.5116L39.5475 46.4537L43.6501 50.5144L38.19 49.3124L36.8929 49.02L36.1991 48.8576C35.9578 48.7926 35.7164 48.7277 35.5053 48.6302C34.5701 48.3054 33.6953 47.8506 32.8808 47.2658C32.2172 46.7786 31.6139 46.2263 31.0709 45.6091V54.2177H30.7391H29.2006H28.8688V45.3817C28.6576 45.6416 28.4163 45.9015 28.175 46.1289C27.8431 46.4537 27.451 46.7786 27.0588 47.0384C26.2745 47.5907 25.4299 48.0455 24.5249 48.3703C24.3137 48.4678 24.0724 48.5328 23.8311 48.5977L23.1674 48.7602L21.9306 49.02L20.724 49.2799L16.6516 50.157L20.6335 46.2588L20.724 46.1613L21.5686 45.3492L22.0814 44.8619C22.2624 44.6995 22.4434 44.5371 22.6546 44.4071C22.8356 44.2447 23.0468 44.1148 23.2278 43.9848C22.9864 43.9848 22.7451 43.9524 22.5038 43.9524C22.1418 43.9199 21.7798 43.8874 21.4178 43.8224C21.0558 43.7574 20.6938 43.725 20.3318 43.66C19.9698 43.595 19.6078 43.53 19.2458 43.4326C18.8839 43.3351 18.5219 43.2377 18.19 43.1402C17.4962 42.9128 16.7722 42.6854 16.0784 42.3931C15.7164 42.2631 15.3846 42.1007 15.0528 41.9383C14.721 41.7759 14.3891 41.6134 14.0573 41.4185C13.7255 41.2561 13.3937 41.0287 13.092 40.8663L12.187 40.314L7.57165 37.4878L12.8808 37.3254L13.9366 37.2929C14.2986 37.2929 14.6606 37.2604 15.0528 37.2929C15.4148 37.2929 15.7768 37.3254 16.1689 37.3579C16.5309 37.3904 16.8929 37.4229 17.2851 37.4553C18.733 37.6827 20.2112 37.9751 21.5988 38.4624C22.0815 38.6248 22.5339 38.8197 22.9864 39.0146C22.4133 38.5273 21.8401 38.0076 21.2971 37.4553C20.905 37.098 20.543 36.6757 20.181 36.2859C19.819 35.896 19.4872 35.4737 19.1252 35.0514C18.7934 34.6291 18.4615 34.2068 18.1297 33.752C17.8281 33.2972 17.4962 32.8749 17.1946 32.3877C16.8929 31.9329 16.5913 31.4781 16.3198 30.9908C16.0483 30.5035 15.7768 30.0487 15.5053 29.5615C15.2338 29.0742 14.9925 28.5869 14.7813 28.0671C14.54 27.5799 14.3288 27.0601 14.1176 26.5403C13.997 26.2805 13.9065 26.0206 13.816 25.7607C13.5143 25.0135 13.2428 24.2664 12.9713 23.5192L10.8296 17.8343L15.4148 21.4727C16.2293 22.1224 17.0136 22.7071 17.8582 23.4218C18.6727 24.104 19.4872 24.8511 20.2413 25.6308C21.7195 27.19 23.1373 28.8793 24.3137 30.7309C24.5852 31.1532 24.8265 31.5755 25.0679 31.9978C25.3092 32.4201 25.5505 32.8424 25.7919 33.2972C25.641 32.5501 25.5204 31.8029 25.4299 31.0558C25.3394 30.3086 25.2489 29.529 25.2187 28.7818C25.1584 27.4499 25.1282 26.0855 25.2489 24.7212C25.279 24.039 25.3997 23.3893 25.46 22.7071C25.5807 22.0249 25.641 21.3752 25.7919 20.693C25.8522 20.3682 25.9125 20.0108 26.003 19.686L26.2745 18.6789C26.365 18.3541 26.4555 18.0292 26.546 17.7044C26.6365 17.3795 26.7572 17.0547 26.8477 16.7298L28.0845 12.9616L28.7179 11.0125L30.0754 6.88684L31.4329 11.0125L32.0664 12.9616L33.3032 16.7298C33.4842 17.3795 33.7255 18.0292 33.8763 18.7114L34.1478 19.7185C34.2383 20.0433 34.2685 20.4007 34.359 20.7255C34.4193 21.0504 34.4796 21.4077 34.54 21.7325C34.6003 22.0574 34.6305 22.4147 34.6908 22.7396C34.721 23.0644 34.7813 23.4218 34.8115 23.7466C34.8416 24.0715 34.8718 24.4288 34.902 24.7537C35.0226 26.118 34.9925 27.4499 34.9321 28.8143C34.8416 30.3411 34.6606 31.8354 34.359 33.3297C34.8115 32.4526 35.3243 31.608 35.8371 30.7959C36.1388 30.3411 36.4404 29.8863 36.7421 29.4315C37.0739 29.0092 37.4057 28.5544 37.7376 28.1321C38.4012 27.2875 39.1554 26.4754 39.8793 25.6957L39.9095 25.6632C40.6636 24.8836 41.448 24.1689 42.2624 23.4867C43.1071 22.7721 43.8914 22.1873 44.7059 21.5376L49.2911 17.9318L47.1192 23.5842C46.8477 24.2664 46.6063 24.9486 46.3348 25.6308C46.2142 25.9556 46.0935 26.2805 45.9729 26.6053C45.5505 27.6448 45.098 28.6519 44.555 29.6264C43.4992 31.5755 42.3228 33.4272 40.9351 35.1164C40.2413 35.9285 39.5475 36.7731 38.7632 37.5203C38.2202 38.0726 37.6471 38.5923 37.0739 39.0796C37.5264 38.8847 38.0091 38.6898 38.4615 38.5273C38.8235 38.3974 39.1554 38.2999 39.5173 38.17C39.8793 38.0726 40.2413 37.9751 40.6033 37.9101C41.3273 37.7477 42.0513 37.6178 42.7753 37.5203C43.1373 37.4553 43.4992 37.4228 43.8914 37.4228C44.2534 37.3904 44.6154 37.3904 45.0075 37.3579C45.3695 37.3579 45.7315 37.3579 46.1237 37.3579L47.1795 37.3904L52.4887 37.5528L47.7526 40.3465Z" fill="url(#paint0_linear_616_181)"/>
<defs>
<linearGradient id="paint0_linear_616_181" x1="29.9849" y1="60.0871" x2="29.9849" y2="-0.00607478" gradientUnits="userSpaceOnUse">
<stop stop-color="#72C06F"/>
<stop offset="0.1572" stop-color="#6CBD70"/>
<stop offset="0.3614" stop-color="#5CB571"/>
<stop offset="0.5915" stop-color="#41A874"/>
<stop offset="0.8387" stop-color="#1C9577"/>
<stop offset="1" stop-color="#00877A"/>
</linearGradient>
</defs>
</svg>
